<?xml version="1.0" encoding="UTF-8" standalone="no"?>
<!DOCTYPE svg PUBLIC "-//W3C//DTD SVG 1.1//EN"
 "http://www.w3.org/Graphics/SVG/1.1/DTD/svg11.dtd">
<!-- Generated by graphviz version 2.42.3 (20191010.1750)
 -->
<!-- Title: snakemake_dag Pages: 1 -->
<svg width="894pt" height="913pt"
 viewBox="0.00 0.00 894.00 913.00" xmlns="http://www.w3.org/2000/svg" xmlns:xlink="http://www.w3.org/1999/xlink">
<g id="graph0" class="graph" transform="scale(1 1) rotate(0) translate(4 909)">
<title>snakemake_dag</title>
<polygon fill="white" stroke="transparent" points="-4,4 -4,-909 890,-909 890,4 -4,4"/>
<!-- 0 -->
<g id="node1" class="node">
<title>0</title>
<path fill="none" stroke="#d85656" stroke-width="2" stroke-dasharray="5,2" d="M471,-36C471,-36 441,-36 441,-36 435,-36 429,-30 429,-24 429,-24 429,-12 429,-12 429,-6 435,0 441,0 441,0 471,0 471,0 477,0 483,-6 483,-12 483,-12 483,-24 483,-24 483,-30 477,-36 471,-36"/>
<text text-anchor="middle" x="456" y="-15.5" font-family="sans" font-size="10.00">all</text>
</g>
<!-- 1 -->
<g id="node2" class="node">
<title>1</title>
<path fill="none" stroke="#56d89a" stroke-width="2" stroke-dasharray="5,2" d="M287,-108C287,-108 173,-108 173,-108 167,-108 161,-102 161,-96 161,-96 161,-84 161,-84 161,-78 167,-72 173,-72 173,-72 287,-72 287,-72 293,-72 299,-78 299,-84 299,-84 299,-96 299,-96 299,-102 293,-108 287,-108"/>
<text text-anchor="middle" x="230" y="-93" font-family="sans" font-size="10.00">pruned_raxml_anc_score</text>
<text text-anchor="middle" x="230" y="-82" font-family="sans" font-size="10.00">pattern: CountNodes_1</text>
</g>
<!-- 1&#45;&gt;0 -->
<g id="edge1" class="edge">
<title>1&#45;&gt;0</title>
<path fill="none" stroke="grey" stroke-width="2" d="M285,-71.97C326.68,-59.06 382.8,-41.67 419.19,-30.4"/>
<polygon fill="grey" stroke="grey" stroke-width="2" points="420.39,-33.69 428.91,-27.39 418.32,-27.01 420.39,-33.69"/>
</g>
<!-- 2 -->
<g id="node3" class="node">
<title>2</title>
<path fill="none" stroke="#569ad8" stroke-width="2" stroke-dasharray="5,2" d="M291,-180C291,-180 169,-180 169,-180 163,-180 157,-174 157,-168 157,-168 157,-156 157,-156 157,-150 163,-144 169,-144 169,-144 291,-144 291,-144 297,-144 303,-150 303,-156 303,-156 303,-168 303,-168 303,-174 297,-180 291,-180"/>
<text text-anchor="middle" x="230" y="-159.5" font-family="sans" font-size="10.00">pruned_raxmlng_ancestral</text>
</g>
<!-- 2&#45;&gt;1 -->
<g id="edge5" class="edge">
<title>2&#45;&gt;1</title>
<path fill="none" stroke="grey" stroke-width="2" d="M230,-143.7C230,-135.98 230,-126.71 230,-118.11"/>
<polygon fill="grey" stroke="grey" stroke-width="2" points="233.5,-118.1 230,-108.1 226.5,-118.1 233.5,-118.1"/>
</g>
<!-- 3 -->
<g id="node4" class="node">
<title>3</title>
<path fill="none" stroke="#56d8b9" stroke-width="2" stroke-dasharray="5,2" d="M217,-324C217,-324 187,-324 187,-324 181,-324 175,-318 175,-312 175,-312 175,-300 175,-300 175,-294 181,-288 187,-288 187,-288 217,-288 217,-288 223,-288 229,-294 229,-300 229,-300 229,-312 229,-312 229,-318 223,-324 217,-324"/>
<text text-anchor="middle" x="202" y="-303.5" font-family="sans" font-size="10.00">prune</text>
</g>
<!-- 3&#45;&gt;2 -->
<g id="edge6" class="edge">
<title>3&#45;&gt;2</title>
<path fill="none" stroke="grey" stroke-width="2" d="M188.04,-287.96C174.98,-269.81 159,-240.4 170,-216 175.18,-204.52 184.21,-194.52 193.72,-186.4"/>
<polygon fill="grey" stroke="grey" stroke-width="2" points="196.09,-188.99 201.74,-180.03 191.73,-183.51 196.09,-188.99"/>
</g>
<!-- 12 -->
<g id="node13" class="node">
<title>12</title>
<path fill="none" stroke="#56d87b" stroke-width="2" stroke-dasharray="5,2" d="M279,-252C279,-252 191,-252 191,-252 185,-252 179,-246 179,-240 179,-240 179,-228 179,-228 179,-222 185,-216 191,-216 191,-216 279,-216 279,-216 285,-216 291,-222 291,-228 291,-228 291,-240 291,-240 291,-246 285,-252 279,-252"/>
<text text-anchor="middle" x="235" y="-231.5" font-family="sans" font-size="10.00">unroot_pruned_tree</text>
</g>
<!-- 3&#45;&gt;12 -->
<g id="edge22" class="edge">
<title>3&#45;&gt;12</title>
<path fill="none" stroke="grey" stroke-width="2" d="M210.16,-287.7C213.91,-279.73 218.45,-270.1 222.62,-261.26"/>
<polygon fill="grey" stroke="grey" stroke-width="2" points="225.84,-262.64 226.94,-252.1 219.51,-259.66 225.84,-262.64"/>
</g>
<!-- 4 -->
<g id="node5" class="node">
<title>4</title>
<path fill="none" stroke="#d8b456" stroke-width="2" stroke-dasharray="5,2" d="M235.5,-828C235.5,-828 198.5,-828 198.5,-828 192.5,-828 186.5,-822 186.5,-816 186.5,-816 186.5,-804 186.5,-804 186.5,-798 192.5,-792 198.5,-792 198.5,-792 235.5,-792 235.5,-792 241.5,-792 247.5,-798 247.5,-804 247.5,-804 247.5,-816 247.5,-816 247.5,-822 241.5,-828 235.5,-828"/>
<text text-anchor="middle" x="217" y="-807.5" font-family="sans" font-size="10.00">psiblastp</text>
</g>
<!-- 4&#45;&gt;3 -->
<g id="edge8" class="edge">
<title>4&#45;&gt;3</title>
<path fill="none" stroke="grey" stroke-width="2" d="M213.96,-791.57C209.58,-764.86 202,-712.12 202,-667 202,-667 202,-667 202,-449 202,-409 202,-362.65 202,-334.08"/>
<polygon fill="grey" stroke="grey" stroke-width="2" points="205.5,-334.05 202,-324.05 198.5,-334.05 205.5,-334.05"/>
</g>
<!-- 9 -->
<g id="node10" class="node">
<title>9</title>
<path fill="none" stroke="#567bd8" stroke-width="2" stroke-dasharray="5,2" d="M301,-756C301,-756 245,-756 245,-756 239,-756 233,-750 233,-744 233,-744 233,-732 233,-732 233,-726 239,-720 245,-720 245,-720 301,-720 301,-720 307,-720 313,-726 313,-732 313,-732 313,-744 313,-744 313,-750 307,-756 301,-756"/>
<text text-anchor="middle" x="273" y="-735.5" font-family="sans" font-size="10.00">get_blasthits</text>
</g>
<!-- 4&#45;&gt;9 -->
<g id="edge18" class="edge">
<title>4&#45;&gt;9</title>
<path fill="none" stroke="grey" stroke-width="2" d="M230.84,-791.7C237.49,-783.39 245.58,-773.28 252.89,-764.14"/>
<polygon fill="grey" stroke="grey" stroke-width="2" points="255.8,-766.1 259.32,-756.1 250.34,-761.73 255.8,-766.1"/>
</g>
<!-- 5 -->
<g id="node6" class="node">
<title>5</title>
<path fill="none" stroke="#d87556" stroke-width="2" stroke-dasharray="5,2" d="M422,-905C422,-905 12,-905 12,-905 6,-905 0,-899 0,-893 0,-893 0,-876 0,-876 0,-870 6,-864 12,-864 12,-864 422,-864 422,-864 428,-864 434,-870 434,-876 434,-876 434,-893 434,-893 434,-899 428,-905 422,-905"/>
<text text-anchor="middle" x="217" y="-893" font-family="sans" font-size="10.00">query_fasta</text>
<text text-anchor="middle" x="217" y="-882" font-family="sans" font-size="10.00">query_id: P35520</text>
<text text-anchor="middle" x="217" y="-871" font-family="sans" font-size="10.00">workdir: /cta/users/eakkoyun/WORKFOLDER/TEST/120421_test/phylogeny&#45;snakemake</text>
</g>
<!-- 5&#45;&gt;3 -->
<g id="edge10" class="edge">
<title>5&#45;&gt;3</title>
<path fill="none" stroke="grey" stroke-width="2" d="M199.82,-863.93C191.78,-853.82 182.73,-840.92 177,-828 160.6,-791.03 158,-779.45 158,-739 158,-739 158,-739 158,-449 158,-407.21 175.6,-361.48 188.54,-333.51"/>
<polygon fill="grey" stroke="grey" stroke-width="2" points="191.74,-334.93 192.88,-324.39 185.42,-331.92 191.74,-334.93"/>
</g>
<!-- 5&#45;&gt;4 -->
<g id="edge11" class="edge">
<title>5&#45;&gt;4</title>
<path fill="none" stroke="grey" stroke-width="2" d="M217,-863.69C217,-855.91 217,-846.84 217,-838.45"/>
<polygon fill="grey" stroke="grey" stroke-width="2" points="220.5,-838.32 217,-828.32 213.5,-838.32 220.5,-838.32"/>
</g>
<!-- 7 -->
<g id="node8" class="node">
<title>7</title>
<path fill="none" stroke="#56d8d8" stroke-width="2" stroke-dasharray="5,2" d="M356.5,-468C356.5,-468 297.5,-468 297.5,-468 291.5,-468 285.5,-462 285.5,-456 285.5,-456 285.5,-444 285.5,-444 285.5,-438 291.5,-432 297.5,-432 297.5,-432 356.5,-432 356.5,-432 362.5,-432 368.5,-438 368.5,-444 368.5,-444 368.5,-456 368.5,-456 368.5,-462 362.5,-468 356.5,-468"/>
<text text-anchor="middle" x="327" y="-447.5" font-family="sans" font-size="10.00">remove_gaps</text>
</g>
<!-- 5&#45;&gt;7 -->
<g id="edge14" class="edge">
<title>5&#45;&gt;7</title>
<path fill="none" stroke="grey" stroke-width="2" d="M257.98,-863.99C300.23,-840.69 360,-797.41 360,-739 360,-739 360,-739 360,-593 360,-551.97 346.77,-505.97 337.06,-477.74"/>
<polygon fill="grey" stroke="grey" stroke-width="2" points="340.32,-476.45 333.68,-468.19 333.72,-478.78 340.32,-476.45"/>
</g>
<!-- 5&#45;&gt;9 -->
<g id="edge19" class="edge">
<title>5&#45;&gt;9</title>
<path fill="none" stroke="grey" stroke-width="2" d="M233.86,-863.92C241.72,-853.8 250.53,-840.9 256,-828 264.37,-808.23 268.65,-784.25 270.82,-766.17"/>
<polygon fill="grey" stroke="grey" stroke-width="2" points="274.32,-766.33 271.89,-756.02 267.36,-765.59 274.32,-766.33"/>
</g>
<!-- 6 -->
<g id="node7" class="node">
<title>6</title>
<path fill="none" stroke="#b6d856" stroke-width="2" stroke-dasharray="5,2" d="M345,-396C345,-396 273,-396 273,-396 267,-396 261,-390 261,-384 261,-384 261,-372 261,-372 261,-366 267,-360 273,-360 273,-360 345,-360 345,-360 351,-360 357,-366 357,-372 357,-372 357,-384 357,-384 357,-390 351,-396 345,-396"/>
<text text-anchor="middle" x="309" y="-375.5" font-family="sans" font-size="10.00">remove_outliers</text>
</g>
<!-- 6&#45;&gt;3 -->
<g id="edge9" class="edge">
<title>6&#45;&gt;3</title>
<path fill="none" stroke="grey" stroke-width="2" d="M282.82,-359.88C268.96,-350.81 251.76,-339.55 236.79,-329.76"/>
<polygon fill="grey" stroke="grey" stroke-width="2" points="238.56,-326.74 228.28,-324.19 234.73,-332.59 238.56,-326.74"/>
</g>
<!-- 26 -->
<g id="node27" class="node">
<title>26</title>
<path fill="none" stroke="#56b9d8" stroke-width="2" stroke-dasharray="5,2" d="M415.5,-252C415.5,-252 332.5,-252 332.5,-252 326.5,-252 320.5,-246 320.5,-240 320.5,-240 320.5,-228 320.5,-228 320.5,-222 326.5,-216 332.5,-216 332.5,-216 415.5,-216 415.5,-216 421.5,-216 427.5,-222 427.5,-228 427.5,-228 427.5,-240 427.5,-240 427.5,-246 421.5,-252 415.5,-252"/>
<text text-anchor="middle" x="374" y="-231.5" font-family="sans" font-size="10.00">raxmlng_ancestral</text>
</g>
<!-- 6&#45;&gt;26 -->
<g id="edge42" class="edge">
<title>6&#45;&gt;26</title>
<path fill="none" stroke="grey" stroke-width="2" d="M310.12,-359.76C311.89,-341.19 316.44,-311.19 328,-288 333.03,-277.92 340.42,-268.21 347.82,-259.91"/>
<polygon fill="grey" stroke="grey" stroke-width="2" points="350.55,-262.12 354.84,-252.43 345.44,-257.33 350.55,-262.12"/>
</g>
<!-- 27 -->
<g id="node28" class="node">
<title>27</title>
<path fill="none" stroke="#d6d856" stroke-width="2" stroke-dasharray="5,2" d="M398.5,-324C398.5,-324 349.5,-324 349.5,-324 343.5,-324 337.5,-318 337.5,-312 337.5,-312 337.5,-300 337.5,-300 337.5,-294 343.5,-288 349.5,-288 349.5,-288 398.5,-288 398.5,-288 404.5,-288 410.5,-294 410.5,-300 410.5,-300 410.5,-312 410.5,-312 410.5,-318 404.5,-324 398.5,-324"/>
<text text-anchor="middle" x="374" y="-303.5" font-family="sans" font-size="10.00">unroot_tree</text>
</g>
<!-- 6&#45;&gt;27 -->
<g id="edge44" class="edge">
<title>6&#45;&gt;27</title>
<path fill="none" stroke="grey" stroke-width="2" d="M325.07,-359.7C332.94,-351.22 342.56,-340.86 351.17,-331.58"/>
<polygon fill="grey" stroke="grey" stroke-width="2" points="353.88,-333.81 358.12,-324.1 348.75,-329.05 353.88,-333.81"/>
</g>
<!-- 7&#45;&gt;6 -->
<g id="edge12" class="edge">
<title>7&#45;&gt;6</title>
<path fill="none" stroke="grey" stroke-width="2" d="M322.55,-431.7C320.55,-423.9 318.13,-414.51 315.9,-405.83"/>
<polygon fill="grey" stroke="grey" stroke-width="2" points="319.28,-404.92 313.4,-396.1 312.5,-406.66 319.28,-404.92"/>
</g>
<!-- 8 -->
<g id="node9" class="node">
<title>8</title>
<path fill="none" stroke="#d89556" stroke-width="2" stroke-dasharray="5,2" d="M288,-684C288,-684 258,-684 258,-684 252,-684 246,-678 246,-672 246,-672 246,-660 246,-660 246,-654 252,-648 258,-648 258,-648 288,-648 288,-648 294,-648 300,-654 300,-660 300,-660 300,-672 300,-672 300,-678 294,-684 288,-684"/>
<text text-anchor="middle" x="273" y="-663.5" font-family="sans" font-size="10.00">msa</text>
</g>
<!-- 8&#45;&gt;7 -->
<g id="edge15" class="edge">
<title>8&#45;&gt;7</title>
<path fill="none" stroke="grey" stroke-width="2" d="M284.55,-647.56C290.66,-637.55 297.75,-624.51 302,-612 317.36,-566.76 323.34,-511.13 325.62,-478.52"/>
<polygon fill="grey" stroke="grey" stroke-width="2" points="329.12,-478.59 326.26,-468.39 322.14,-478.14 329.12,-478.59"/>
</g>
<!-- 11 -->
<g id="node12" class="node">
<title>11</title>
<path fill="none" stroke="#97d856" stroke-width="2" stroke-dasharray="5,2" d="M281.5,-612C281.5,-612 242.5,-612 242.5,-612 236.5,-612 230.5,-606 230.5,-600 230.5,-600 230.5,-588 230.5,-588 230.5,-582 236.5,-576 242.5,-576 242.5,-576 281.5,-576 281.5,-576 287.5,-576 293.5,-582 293.5,-588 293.5,-588 293.5,-600 293.5,-600 293.5,-606 287.5,-612 281.5,-612"/>
<text text-anchor="middle" x="262" y="-591.5" font-family="sans" font-size="10.00">trim_msa</text>
</g>
<!-- 8&#45;&gt;11 -->
<g id="edge21" class="edge">
<title>8&#45;&gt;11</title>
<path fill="none" stroke="grey" stroke-width="2" d="M270.28,-647.7C269.07,-639.98 267.61,-630.71 266.26,-622.11"/>
<polygon fill="grey" stroke="grey" stroke-width="2" points="269.7,-621.44 264.69,-612.1 262.78,-622.53 269.7,-621.44"/>
</g>
<!-- 9&#45;&gt;8 -->
<g id="edge17" class="edge">
<title>9&#45;&gt;8</title>
<path fill="none" stroke="grey" stroke-width="2" d="M273,-719.7C273,-711.98 273,-702.71 273,-694.11"/>
<polygon fill="grey" stroke="grey" stroke-width="2" points="276.5,-694.1 273,-684.1 269.5,-694.1 276.5,-694.1"/>
</g>
<!-- 10 -->
<g id="node11" class="node">
<title>10</title>
<path fill="none" stroke="#59d856" stroke-width="2" stroke-dasharray="5,2" d="M277,-540C277,-540 247,-540 247,-540 241,-540 235,-534 235,-528 235,-528 235,-516 235,-516 235,-510 241,-504 247,-504 247,-504 277,-504 277,-504 283,-504 289,-510 289,-516 289,-516 289,-528 289,-528 289,-534 283,-540 277,-540"/>
<text text-anchor="middle" x="262" y="-519.5" font-family="sans" font-size="10.00">ml_tree</text>
</g>
<!-- 10&#45;&gt;6 -->
<g id="edge13" class="edge">
<title>10&#45;&gt;6</title>
<path fill="none" stroke="grey" stroke-width="2" d="M262.68,-503.76C263.86,-485.44 267.1,-455.89 276,-432 279.5,-422.6 284.78,-413.07 290.1,-404.74"/>
<polygon fill="grey" stroke="grey" stroke-width="2" points="293.15,-406.48 295.8,-396.22 287.33,-402.58 293.15,-406.48"/>
</g>
<!-- 10&#45;&gt;7 -->
<g id="edge16" class="edge">
<title>10&#45;&gt;7</title>
<path fill="none" stroke="grey" stroke-width="2" d="M278.07,-503.7C285.94,-495.22 295.56,-484.86 304.17,-475.58"/>
<polygon fill="grey" stroke="grey" stroke-width="2" points="306.88,-477.81 311.12,-468.1 301.75,-473.05 306.88,-477.81"/>
</g>
<!-- 11&#45;&gt;10 -->
<g id="edge20" class="edge">
<title>11&#45;&gt;10</title>
<path fill="none" stroke="grey" stroke-width="2" d="M262,-575.7C262,-567.98 262,-558.71 262,-550.11"/>
<polygon fill="grey" stroke="grey" stroke-width="2" points="265.5,-550.1 262,-540.1 258.5,-550.1 265.5,-550.1"/>
</g>
<!-- 12&#45;&gt;2 -->
<g id="edge7" class="edge">
<title>12&#45;&gt;2</title>
<path fill="none" stroke="grey" stroke-width="2" d="M233.76,-215.7C233.21,-207.98 232.55,-198.71 231.94,-190.11"/>
<polygon fill="grey" stroke="grey" stroke-width="2" points="235.43,-189.83 231.22,-180.1 228.44,-190.33 235.43,-189.83"/>
</g>
<!-- 13 -->
<g id="node14" class="node">
<title>13</title>
<path fill="none" stroke="#56d89a" stroke-width="2" stroke-dasharray="5,2" d="M589,-108C589,-108 475,-108 475,-108 469,-108 463,-102 463,-96 463,-96 463,-84 463,-84 463,-78 469,-72 475,-72 475,-72 589,-72 589,-72 595,-72 601,-78 601,-84 601,-84 601,-96 601,-96 601,-102 595,-108 589,-108"/>
<text text-anchor="middle" x="532" y="-93" font-family="sans" font-size="10.00">pruned_raxml_anc_score</text>
<text text-anchor="middle" x="532" y="-82" font-family="sans" font-size="10.00">pattern: CountNodes_1</text>
</g>
<!-- 13&#45;&gt;0 -->
<g id="edge2" class="edge">
<title>13&#45;&gt;0</title>
<path fill="none" stroke="grey" stroke-width="2" d="M513.21,-71.7C503.83,-63.05 492.32,-52.45 482.09,-43.03"/>
<polygon fill="grey" stroke="grey" stroke-width="2" points="484.3,-40.3 474.57,-36.1 479.55,-45.45 484.3,-40.3"/>
</g>
<!-- 14 -->
<g id="node15" class="node">
<title>14</title>
<path fill="none" stroke="#569ad8" stroke-width="2" stroke-dasharray="5,2" d="M593,-180C593,-180 471,-180 471,-180 465,-180 459,-174 459,-168 459,-168 459,-156 459,-156 459,-150 465,-144 471,-144 471,-144 593,-144 593,-144 599,-144 605,-150 605,-156 605,-156 605,-168 605,-168 605,-174 599,-180 593,-180"/>
<text text-anchor="middle" x="532" y="-159.5" font-family="sans" font-size="10.00">pruned_raxmlng_ancestral</text>
</g>
<!-- 14&#45;&gt;13 -->
<g id="edge23" class="edge">
<title>14&#45;&gt;13</title>
<path fill="none" stroke="grey" stroke-width="2" d="M532,-143.7C532,-135.98 532,-126.71 532,-118.11"/>
<polygon fill="grey" stroke="grey" stroke-width="2" points="535.5,-118.1 532,-108.1 528.5,-118.1 535.5,-118.1"/>
</g>
<!-- 15 -->
<g id="node16" class="node">
<title>15</title>
<path fill="none" stroke="#56d8b9" stroke-width="2" stroke-dasharray="5,2" d="M586,-324C586,-324 556,-324 556,-324 550,-324 544,-318 544,-312 544,-312 544,-300 544,-300 544,-294 550,-288 556,-288 556,-288 586,-288 586,-288 592,-288 598,-294 598,-300 598,-300 598,-312 598,-312 598,-318 592,-324 586,-324"/>
<text text-anchor="middle" x="571" y="-303.5" font-family="sans" font-size="10.00">prune</text>
</g>
<!-- 15&#45;&gt;14 -->
<g id="edge24" class="edge">
<title>15&#45;&gt;14</title>
<path fill="none" stroke="grey" stroke-width="2" d="M543.83,-290.7C529.74,-281.67 513.87,-268.57 506,-252 496.41,-231.82 504.87,-207.36 514.62,-189.19"/>
<polygon fill="grey" stroke="grey" stroke-width="2" points="517.77,-190.73 519.74,-180.32 511.71,-187.23 517.77,-190.73"/>
</g>
<!-- 24 -->
<g id="node25" class="node">
<title>24</title>
<path fill="none" stroke="#56d87b" stroke-width="2" stroke-dasharray="5,2" d="M615,-252C615,-252 527,-252 527,-252 521,-252 515,-246 515,-240 515,-240 515,-228 515,-228 515,-222 521,-216 527,-216 527,-216 615,-216 615,-216 621,-216 627,-222 627,-228 627,-228 627,-240 627,-240 627,-246 621,-252 615,-252"/>
<text text-anchor="middle" x="571" y="-231.5" font-family="sans" font-size="10.00">unroot_pruned_tree</text>
</g>
<!-- 15&#45;&gt;24 -->
<g id="edge40" class="edge">
<title>15&#45;&gt;24</title>
<path fill="none" stroke="grey" stroke-width="2" d="M571,-287.7C571,-279.98 571,-270.71 571,-262.11"/>
<polygon fill="grey" stroke="grey" stroke-width="2" points="574.5,-262.1 571,-252.1 567.5,-262.1 574.5,-262.1"/>
</g>
<!-- 16 -->
<g id="node17" class="node">
<title>16</title>
<path fill="none" stroke="#d8b456" stroke-width="2" stroke-dasharray="5,2" d="M628.5,-828C628.5,-828 591.5,-828 591.5,-828 585.5,-828 579.5,-822 579.5,-816 579.5,-816 579.5,-804 579.5,-804 579.5,-798 585.5,-792 591.5,-792 591.5,-792 628.5,-792 628.5,-792 634.5,-792 640.5,-798 640.5,-804 640.5,-804 640.5,-816 640.5,-816 640.5,-822 634.5,-828 628.5,-828"/>
<text text-anchor="middle" x="610" y="-807.5" font-family="sans" font-size="10.00">psiblastp</text>
</g>
<!-- 16&#45;&gt;15 -->
<g id="edge26" class="edge">
<title>16&#45;&gt;15</title>
<path fill="none" stroke="grey" stroke-width="2" d="M604.74,-791.7C597.14,-765.14 584,-712.61 584,-667 584,-667 584,-667 584,-449 584,-408.83 578.78,-362.53 574.95,-334.01"/>
<polygon fill="grey" stroke="grey" stroke-width="2" points="578.4,-333.43 573.57,-324 571.47,-334.39 578.4,-333.43"/>
</g>
<!-- 21 -->
<g id="node22" class="node">
<title>21</title>
<path fill="none" stroke="#567bd8" stroke-width="2" stroke-dasharray="5,2" d="M689,-756C689,-756 633,-756 633,-756 627,-756 621,-750 621,-744 621,-744 621,-732 621,-732 621,-726 627,-720 633,-720 633,-720 689,-720 689,-720 695,-720 701,-726 701,-732 701,-732 701,-744 701,-744 701,-750 695,-756 689,-756"/>
<text text-anchor="middle" x="661" y="-735.5" font-family="sans" font-size="10.00">get_blasthits</text>
</g>
<!-- 16&#45;&gt;21 -->
<g id="edge36" class="edge">
<title>16&#45;&gt;21</title>
<path fill="none" stroke="grey" stroke-width="2" d="M622.61,-791.7C628.6,-783.47 635.88,-773.48 642.48,-764.42"/>
<polygon fill="grey" stroke="grey" stroke-width="2" points="645.48,-766.25 648.54,-756.1 639.82,-762.13 645.48,-766.25"/>
</g>
<!-- 17 -->
<g id="node18" class="node">
<title>17</title>
<path fill="none" stroke="#d87556" stroke-width="2" stroke-dasharray="5,2" d="M874,-905C874,-905 464,-905 464,-905 458,-905 452,-899 452,-893 452,-893 452,-876 452,-876 452,-870 458,-864 464,-864 464,-864 874,-864 874,-864 880,-864 886,-870 886,-876 886,-876 886,-893 886,-893 886,-899 880,-905 874,-905"/>
<text text-anchor="middle" x="669" y="-893" font-family="sans" font-size="10.00">query_fasta</text>
<text text-anchor="middle" x="669" y="-882" font-family="sans" font-size="10.00">query_id: P63000</text>
<text text-anchor="middle" x="669" y="-871" font-family="sans" font-size="10.00">workdir: /cta/users/eakkoyun/WORKFOLDER/TEST/120421_test/phylogeny&#45;snakemake</text>
</g>
<!-- 17&#45;&gt;15 -->
<g id="edge28" class="edge">
<title>17&#45;&gt;15</title>
<path fill="none" stroke="grey" stroke-width="2" d="M617.61,-863.93C600.65,-855.23 583.06,-843.39 571,-828 545.66,-795.66 546,-780.09 546,-739 546,-739 546,-739 546,-449 546,-408.6 555.94,-362.71 563.28,-334.3"/>
<polygon fill="grey" stroke="grey" stroke-width="2" points="566.75,-334.88 565.94,-324.32 559.98,-333.08 566.75,-334.88"/>
</g>
<!-- 17&#45;&gt;16 -->
<g id="edge29" class="edge">
<title>17&#45;&gt;16</title>
<path fill="none" stroke="grey" stroke-width="2" d="M652.88,-863.69C645.98,-855.21 637.85,-845.22 630.53,-836.23"/>
<polygon fill="grey" stroke="grey" stroke-width="2" points="633.12,-833.87 624.09,-828.32 627.69,-838.28 633.12,-833.87"/>
</g>
<!-- 19 -->
<g id="node20" class="node">
<title>19</title>
<path fill="none" stroke="#56d8d8" stroke-width="2" stroke-dasharray="5,2" d="M738.5,-468C738.5,-468 679.5,-468 679.5,-468 673.5,-468 667.5,-462 667.5,-456 667.5,-456 667.5,-444 667.5,-444 667.5,-438 673.5,-432 679.5,-432 679.5,-432 738.5,-432 738.5,-432 744.5,-432 750.5,-438 750.5,-444 750.5,-444 750.5,-456 750.5,-456 750.5,-462 744.5,-468 738.5,-468"/>
<text text-anchor="middle" x="709" y="-447.5" font-family="sans" font-size="10.00">remove_gaps</text>
</g>
<!-- 17&#45;&gt;19 -->
<g id="edge32" class="edge">
<title>17&#45;&gt;19</title>
<path fill="none" stroke="grey" stroke-width="2" d="M686.67,-863.57C708.28,-837.09 742,-787.91 742,-739 742,-739 742,-739 742,-593 742,-551.97 728.77,-505.97 719.06,-477.74"/>
<polygon fill="grey" stroke="grey" stroke-width="2" points="722.32,-476.45 715.68,-468.19 715.72,-478.78 722.32,-476.45"/>
</g>
<!-- 17&#45;&gt;21 -->
<g id="edge37" class="edge">
<title>17&#45;&gt;21</title>
<path fill="none" stroke="grey" stroke-width="2" d="M667.9,-863.71C666.51,-838.49 664.09,-794.76 662.51,-766.36"/>
<polygon fill="grey" stroke="grey" stroke-width="2" points="666.01,-766.09 661.96,-756.3 659.02,-766.47 666.01,-766.09"/>
</g>
<!-- 18 -->
<g id="node19" class="node">
<title>18</title>
<path fill="none" stroke="#b6d856" stroke-width="2" stroke-dasharray="5,2" d="M696,-396C696,-396 624,-396 624,-396 618,-396 612,-390 612,-384 612,-384 612,-372 612,-372 612,-366 618,-360 624,-360 624,-360 696,-360 696,-360 702,-360 708,-366 708,-372 708,-372 708,-384 708,-384 708,-390 702,-396 696,-396"/>
<text text-anchor="middle" x="660" y="-375.5" font-family="sans" font-size="10.00">remove_outliers</text>
</g>
<!-- 18&#45;&gt;15 -->
<g id="edge27" class="edge">
<title>18&#45;&gt;15</title>
<path fill="none" stroke="grey" stroke-width="2" d="M638,-359.7C626.79,-350.88 613,-340.03 600.85,-330.47"/>
<polygon fill="grey" stroke="grey" stroke-width="2" points="602.77,-327.54 592.75,-324.1 598.44,-333.04 602.77,-327.54"/>
</g>
<!-- 29 -->
<g id="node30" class="node">
<title>29</title>
<path fill="none" stroke="#56b9d8" stroke-width="2" stroke-dasharray="5,2" d="M740.5,-252C740.5,-252 657.5,-252 657.5,-252 651.5,-252 645.5,-246 645.5,-240 645.5,-240 645.5,-228 645.5,-228 645.5,-222 651.5,-216 657.5,-216 657.5,-216 740.5,-216 740.5,-216 746.5,-216 752.5,-222 752.5,-228 752.5,-228 752.5,-240 752.5,-240 752.5,-246 746.5,-252 740.5,-252"/>
<text text-anchor="middle" x="699" y="-231.5" font-family="sans" font-size="10.00">raxmlng_ancestral</text>
</g>
<!-- 18&#45;&gt;29 -->
<g id="edge46" class="edge">
<title>18&#45;&gt;29</title>
<path fill="none" stroke="grey" stroke-width="2" d="M659.04,-359.82C658.55,-341.56 659.27,-312.05 667,-288 670.04,-278.53 675.07,-268.98 680.24,-260.65"/>
<polygon fill="grey" stroke="grey" stroke-width="2" points="683.26,-262.43 685.83,-252.15 677.41,-258.58 683.26,-262.43"/>
</g>
<!-- 30 -->
<g id="node31" class="node">
<title>30</title>
<path fill="none" stroke="#d6d856" stroke-width="2" stroke-dasharray="5,2" d="M736.5,-324C736.5,-324 687.5,-324 687.5,-324 681.5,-324 675.5,-318 675.5,-312 675.5,-312 675.5,-300 675.5,-300 675.5,-294 681.5,-288 687.5,-288 687.5,-288 736.5,-288 736.5,-288 742.5,-288 748.5,-294 748.5,-300 748.5,-300 748.5,-312 748.5,-312 748.5,-318 742.5,-324 736.5,-324"/>
<text text-anchor="middle" x="712" y="-303.5" font-family="sans" font-size="10.00">unroot_tree</text>
</g>
<!-- 18&#45;&gt;30 -->
<g id="edge48" class="edge">
<title>18&#45;&gt;30</title>
<path fill="none" stroke="grey" stroke-width="2" d="M672.85,-359.7C679.03,-351.39 686.54,-341.28 693.32,-332.14"/>
<polygon fill="grey" stroke="grey" stroke-width="2" points="696.14,-334.22 699.29,-324.1 690.52,-330.04 696.14,-334.22"/>
</g>
<!-- 19&#45;&gt;18 -->
<g id="edge30" class="edge">
<title>19&#45;&gt;18</title>
<path fill="none" stroke="grey" stroke-width="2" d="M696.89,-431.7C691.13,-423.47 684.14,-413.48 677.79,-404.42"/>
<polygon fill="grey" stroke="grey" stroke-width="2" points="680.58,-402.29 671.97,-396.1 674.84,-406.3 680.58,-402.29"/>
</g>
<!-- 20 -->
<g id="node21" class="node">
<title>20</title>
<path fill="none" stroke="#d89556" stroke-width="2" stroke-dasharray="5,2" d="M676,-684C676,-684 646,-684 646,-684 640,-684 634,-678 634,-672 634,-672 634,-660 634,-660 634,-654 640,-648 646,-648 646,-648 676,-648 676,-648 682,-648 688,-654 688,-660 688,-660 688,-672 688,-672 688,-678 682,-684 676,-684"/>
<text text-anchor="middle" x="661" y="-663.5" font-family="sans" font-size="10.00">msa</text>
</g>
<!-- 20&#45;&gt;19 -->
<g id="edge33" class="edge">
<title>20&#45;&gt;19</title>
<path fill="none" stroke="grey" stroke-width="2" d="M670.26,-647.8C675.35,-637.65 681.35,-624.4 685,-612 698.49,-566.21 704.63,-510.76 707.24,-478.33"/>
<polygon fill="grey" stroke="grey" stroke-width="2" points="710.74,-478.49 708,-468.26 703.76,-477.97 710.74,-478.49"/>
</g>
<!-- 23 -->
<g id="node24" class="node">
<title>23</title>
<path fill="none" stroke="#97d856" stroke-width="2" stroke-dasharray="5,2" d="M663.5,-612C663.5,-612 624.5,-612 624.5,-612 618.5,-612 612.5,-606 612.5,-600 612.5,-600 612.5,-588 612.5,-588 612.5,-582 618.5,-576 624.5,-576 624.5,-576 663.5,-576 663.5,-576 669.5,-576 675.5,-582 675.5,-588 675.5,-588 675.5,-600 675.5,-600 675.5,-606 669.5,-612 663.5,-612"/>
<text text-anchor="middle" x="644" y="-591.5" font-family="sans" font-size="10.00">trim_msa</text>
</g>
<!-- 20&#45;&gt;23 -->
<g id="edge39" class="edge">
<title>20&#45;&gt;23</title>
<path fill="none" stroke="grey" stroke-width="2" d="M656.8,-647.7C654.9,-639.9 652.62,-630.51 650.52,-621.83"/>
<polygon fill="grey" stroke="grey" stroke-width="2" points="653.92,-621 648.15,-612.1 647.11,-622.65 653.92,-621"/>
</g>
<!-- 21&#45;&gt;20 -->
<g id="edge35" class="edge">
<title>21&#45;&gt;20</title>
<path fill="none" stroke="grey" stroke-width="2" d="M661,-719.7C661,-711.98 661,-702.71 661,-694.11"/>
<polygon fill="grey" stroke="grey" stroke-width="2" points="664.5,-694.1 661,-684.1 657.5,-694.1 664.5,-694.1"/>
</g>
<!-- 22 -->
<g id="node23" class="node">
<title>22</title>
<path fill="none" stroke="#59d856" stroke-width="2" stroke-dasharray="5,2" d="M659,-540C659,-540 629,-540 629,-540 623,-540 617,-534 617,-528 617,-528 617,-516 617,-516 617,-510 623,-504 629,-504 629,-504 659,-504 659,-504 665,-504 671,-510 671,-516 671,-516 671,-528 671,-528 671,-534 665,-540 659,-540"/>
<text text-anchor="middle" x="644" y="-519.5" font-family="sans" font-size="10.00">ml_tree</text>
</g>
<!-- 22&#45;&gt;18 -->
<g id="edge31" class="edge">
<title>22&#45;&gt;18</title>
<path fill="none" stroke="grey" stroke-width="2" d="M645.93,-503.87C648.66,-479.67 653.67,-435.21 656.91,-406.39"/>
<polygon fill="grey" stroke="grey" stroke-width="2" points="660.42,-406.52 658.06,-396.19 653.47,-405.73 660.42,-406.52"/>
</g>
<!-- 22&#45;&gt;19 -->
<g id="edge34" class="edge">
<title>22&#45;&gt;19</title>
<path fill="none" stroke="grey" stroke-width="2" d="M660.07,-503.7C667.94,-495.22 677.56,-484.86 686.17,-475.58"/>
<polygon fill="grey" stroke="grey" stroke-width="2" points="688.88,-477.81 693.12,-468.1 683.75,-473.05 688.88,-477.81"/>
</g>
<!-- 23&#45;&gt;22 -->
<g id="edge38" class="edge">
<title>23&#45;&gt;22</title>
<path fill="none" stroke="grey" stroke-width="2" d="M644,-575.7C644,-567.98 644,-558.71 644,-550.11"/>
<polygon fill="grey" stroke="grey" stroke-width="2" points="647.5,-550.1 644,-540.1 640.5,-550.1 647.5,-550.1"/>
</g>
<!-- 24&#45;&gt;14 -->
<g id="edge25" class="edge">
<title>24&#45;&gt;14</title>
<path fill="none" stroke="grey" stroke-width="2" d="M561.36,-215.7C556.87,-207.64 551.44,-197.89 546.48,-188.98"/>
<polygon fill="grey" stroke="grey" stroke-width="2" points="549.45,-187.14 541.53,-180.1 543.34,-190.54 549.45,-187.14"/>
</g>
<!-- 25 -->
<g id="node26" class="node">
<title>25</title>
<path fill="none" stroke="#78d856" stroke-width="2" stroke-dasharray="5,2" d="M433,-108C433,-108 329,-108 329,-108 323,-108 317,-102 317,-96 317,-96 317,-84 317,-84 317,-78 323,-72 329,-72 329,-72 433,-72 433,-72 439,-72 445,-78 445,-84 445,-84 445,-96 445,-96 445,-102 439,-108 433,-108"/>
<text text-anchor="middle" x="381" y="-93" font-family="sans" font-size="10.00">raxml_anc_score</text>
<text text-anchor="middle" x="381" y="-82" font-family="sans" font-size="10.00">pattern: CountNodes_1</text>
</g>
<!-- 25&#45;&gt;0 -->
<g id="edge3" class="edge">
<title>25&#45;&gt;0</title>
<path fill="none" stroke="grey" stroke-width="2" d="M399.54,-71.7C408.8,-63.05 420.16,-52.45 430.26,-43.03"/>
<polygon fill="grey" stroke="grey" stroke-width="2" points="432.75,-45.49 437.67,-36.1 427.98,-40.37 432.75,-45.49"/>
</g>
<!-- 26&#45;&gt;25 -->
<g id="edge41" class="edge">
<title>26&#45;&gt;25</title>
<path fill="none" stroke="grey" stroke-width="2" d="M374.84,-215.87C376.04,-191.67 378.23,-147.21 379.65,-118.39"/>
<polygon fill="grey" stroke="grey" stroke-width="2" points="383.16,-118.35 380.15,-108.19 376.16,-118 383.16,-118.35"/>
</g>
<!-- 27&#45;&gt;26 -->
<g id="edge43" class="edge">
<title>27&#45;&gt;26</title>
<path fill="none" stroke="grey" stroke-width="2" d="M374,-287.7C374,-279.98 374,-270.71 374,-262.11"/>
<polygon fill="grey" stroke="grey" stroke-width="2" points="377.5,-262.1 374,-252.1 370.5,-262.1 377.5,-262.1"/>
</g>
<!-- 28 -->
<g id="node29" class="node">
<title>28</title>
<path fill="none" stroke="#78d856" stroke-width="2" stroke-dasharray="5,2" d="M746,-180C746,-180 642,-180 642,-180 636,-180 630,-174 630,-168 630,-168 630,-156 630,-156 630,-150 636,-144 642,-144 642,-144 746,-144 746,-144 752,-144 758,-150 758,-156 758,-156 758,-168 758,-168 758,-174 752,-180 746,-180"/>
<text text-anchor="middle" x="694" y="-165" font-family="sans" font-size="10.00">raxml_anc_score</text>
<text text-anchor="middle" x="694" y="-154" font-family="sans" font-size="10.00">pattern: CountNodes_1</text>
</g>
<!-- 28&#45;&gt;0 -->
<g id="edge4" class="edge">
<title>28&#45;&gt;0</title>
<path fill="none" stroke="grey" stroke-width="2" d="M681.94,-143.89C667.12,-124.02 640.17,-91.46 610,-72 573.66,-48.56 525.77,-34.21 493.11,-26.45"/>
<polygon fill="grey" stroke="grey" stroke-width="2" points="493.6,-22.98 483.07,-24.17 492.04,-29.8 493.6,-22.98"/>
</g>
<!-- 29&#45;&gt;28 -->
<g id="edge45" class="edge">
<title>29&#45;&gt;28</title>
<path fill="none" stroke="grey" stroke-width="2" d="M697.76,-215.7C697.21,-207.98 696.55,-198.71 695.94,-190.11"/>
<polygon fill="grey" stroke="grey" stroke-width="2" points="699.43,-189.83 695.22,-180.1 692.44,-190.33 699.43,-189.83"/>
</g>
<!-- 30&#45;&gt;29 -->
<g id="edge47" class="edge">
<title>30&#45;&gt;29</title>
<path fill="none" stroke="grey" stroke-width="2" d="M708.79,-287.7C707.35,-279.98 705.63,-270.71 704.04,-262.11"/>
<polygon fill="grey" stroke="grey" stroke-width="2" points="707.44,-261.3 702.18,-252.1 700.56,-262.58 707.44,-261.3"/>
</g>
</g>
</svg>
