<?xml version="1.0" encoding="UTF-8" standalone="no"?>
<!DOCTYPE svg PUBLIC "-//W3C//DTD SVG 1.1//EN"
 "http://www.w3.org/Graphics/SVG/1.1/DTD/svg11.dtd">
<!-- Generated by graphviz version 2.42.3 (20191010.1750)
 -->
<!-- Title: snakemake_dag Pages: 1 -->
<svg width="870pt" height="697pt"
 viewBox="0.00 0.00 870.00 697.00" xmlns="http://www.w3.org/2000/svg" xmlns:xlink="http://www.w3.org/1999/xlink">
<g id="graph0" class="graph" transform="scale(1 1) rotate(0) translate(4 693)">
<title>snakemake_dag</title>
<polygon fill="white" stroke="transparent" points="-4,4 -4,-693 866,-693 866,4 -4,4"/>
<!-- 0 -->
<g id="node1" class="node">
<title>0</title>
<path fill="none" stroke="#56c1d8" stroke-width="2" d="M498,-36C498,-36 468,-36 468,-36 462,-36 456,-30 456,-24 456,-24 456,-12 456,-12 456,-6 462,0 468,0 468,0 498,0 498,0 504,0 510,-6 510,-12 510,-12 510,-24 510,-24 510,-30 504,-36 498,-36"/>
<text text-anchor="middle" x="483" y="-15.5" font-family="sans" font-size="10.00">all</text>
</g>
<!-- 1 -->
<g id="node2" class="node">
<title>1</title>
<path fill="none" stroke="#d87556" stroke-width="2" d="M316,-108C316,-108 212,-108 212,-108 206,-108 200,-102 200,-96 200,-96 200,-84 200,-84 200,-78 206,-72 212,-72 212,-72 316,-72 316,-72 322,-72 328,-78 328,-84 328,-84 328,-96 328,-96 328,-102 322,-108 316,-108"/>
<text text-anchor="middle" x="264" y="-93" font-family="sans" font-size="10.00">raxml_anc_score</text>
<text text-anchor="middle" x="264" y="-82" font-family="sans" font-size="10.00">pattern: CountNodes_1</text>
</g>
<!-- 1&#45;&gt;0 -->
<g id="edge1" class="edge">
<title>1&#45;&gt;0</title>
<path fill="none" stroke="grey" stroke-width="2" d="M317.29,-71.97C357.16,-59.22 410.68,-42.12 445.97,-30.84"/>
<polygon fill="grey" stroke="grey" stroke-width="2" points="447.39,-34.06 455.85,-27.68 445.26,-27.39 447.39,-34.06"/>
</g>
<!-- 2 -->
<g id="node3" class="node">
<title>2</title>
<path fill="none" stroke="#afd856" stroke-width="2" stroke-dasharray="5,2" d="M305.5,-180C305.5,-180 222.5,-180 222.5,-180 216.5,-180 210.5,-174 210.5,-168 210.5,-168 210.5,-156 210.5,-156 210.5,-150 216.5,-144 222.5,-144 222.5,-144 305.5,-144 305.5,-144 311.5,-144 317.5,-150 317.5,-156 317.5,-156 317.5,-168 317.5,-168 317.5,-174 311.5,-180 305.5,-180"/>
<text text-anchor="middle" x="264" y="-159.5" font-family="sans" font-size="10.00">raxmlng_ancestral</text>
</g>
<!-- 2&#45;&gt;1 -->
<g id="edge5" class="edge">
<title>2&#45;&gt;1</title>
<path fill="none" stroke="grey" stroke-width="2" d="M264,-143.7C264,-135.98 264,-126.71 264,-118.11"/>
<polygon fill="grey" stroke="grey" stroke-width="2" points="267.5,-118.1 264,-108.1 260.5,-118.1 267.5,-118.1"/>
</g>
<!-- 3 -->
<g id="node4" class="node">
<title>3</title>
<path fill="none" stroke="#56d8a9" stroke-width="2" stroke-dasharray="5,2" d="M241.5,-252C241.5,-252 182.5,-252 182.5,-252 176.5,-252 170.5,-246 170.5,-240 170.5,-240 170.5,-228 170.5,-228 170.5,-222 176.5,-216 182.5,-216 182.5,-216 241.5,-216 241.5,-216 247.5,-216 253.5,-222 253.5,-228 253.5,-228 253.5,-240 253.5,-240 253.5,-246 247.5,-252 241.5,-252"/>
<text text-anchor="middle" x="212" y="-231.5" font-family="sans" font-size="10.00">remove_gaps</text>
</g>
<!-- 3&#45;&gt;2 -->
<g id="edge6" class="edge">
<title>3&#45;&gt;2</title>
<path fill="none" stroke="grey" stroke-width="2" d="M224.85,-215.7C231.03,-207.39 238.54,-197.28 245.32,-188.14"/>
<polygon fill="grey" stroke="grey" stroke-width="2" points="248.14,-190.22 251.29,-180.1 242.52,-186.04 248.14,-190.22"/>
</g>
<!-- 22 -->
<g id="node23" class="node">
<title>22</title>
<path fill="none" stroke="#ced856" stroke-width="2" stroke-dasharray="5,2" d="M444.5,-180C444.5,-180 373.5,-180 373.5,-180 367.5,-180 361.5,-174 361.5,-168 361.5,-168 361.5,-156 361.5,-156 361.5,-150 367.5,-144 373.5,-144 373.5,-144 444.5,-144 444.5,-144 450.5,-144 456.5,-150 456.5,-156 456.5,-156 456.5,-168 456.5,-168 456.5,-174 450.5,-180 444.5,-180"/>
<text text-anchor="middle" x="409" y="-159.5" font-family="sans" font-size="10.00">iqtree_ancestral</text>
</g>
<!-- 3&#45;&gt;22 -->
<g id="edge32" class="edge">
<title>3&#45;&gt;22</title>
<path fill="none" stroke="grey" stroke-width="2" d="M253.78,-218.15C282.34,-208.01 320.54,-194.43 351.9,-183.29"/>
<polygon fill="grey" stroke="grey" stroke-width="2" points="353.15,-186.56 361.4,-179.91 350.8,-179.96 353.15,-186.56"/>
</g>
<!-- 4 -->
<g id="node5" class="node">
<title>4</title>
<path fill="none" stroke="#88d856" stroke-width="2" stroke-dasharray="5,2" d="M410,-689C410,-689 12,-689 12,-689 6,-689 0,-683 0,-677 0,-677 0,-660 0,-660 0,-654 6,-648 12,-648 12,-648 410,-648 410,-648 416,-648 422,-654 422,-660 422,-660 422,-677 422,-677 422,-683 416,-689 410,-689"/>
<text text-anchor="middle" x="211" y="-677" font-family="sans" font-size="10.00">query_fasta</text>
<text text-anchor="middle" x="211" y="-666" font-family="sans" font-size="10.00">query_id: O95153</text>
<text text-anchor="middle" x="211" y="-655" font-family="sans" font-size="10.00">workdir: /cta/users/eakkoyun/WORKFOLDER/TEST/FASTTREE/phylogeny&#45;snakemake</text>
</g>
<!-- 4&#45;&gt;3 -->
<g id="edge8" class="edge">
<title>4&#45;&gt;3</title>
<path fill="none" stroke="grey" stroke-width="2" d="M206.78,-647.97C201.19,-620.31 192,-568.04 192,-523 192,-523 192,-523 192,-377 192,-336.82 199.95,-290.87 205.82,-262.39"/>
<polygon fill="grey" stroke="grey" stroke-width="2" points="209.3,-262.89 207.95,-252.38 202.45,-261.43 209.3,-262.89"/>
</g>
<!-- 6 -->
<g id="node7" class="node">
<title>6</title>
<path fill="none" stroke="#56d86b" stroke-width="2" stroke-dasharray="5,2" d="M303,-540C303,-540 247,-540 247,-540 241,-540 235,-534 235,-528 235,-528 235,-516 235,-516 235,-510 241,-504 247,-504 247,-504 303,-504 303,-504 309,-504 315,-510 315,-516 315,-516 315,-528 315,-528 315,-534 309,-540 303,-540"/>
<text text-anchor="middle" x="275" y="-519.5" font-family="sans" font-size="10.00">get_blasthits</text>
</g>
<!-- 4&#45;&gt;6 -->
<g id="edge13" class="edge">
<title>4&#45;&gt;6</title>
<path fill="none" stroke="grey" stroke-width="2" d="M218.8,-647.71C226.25,-629.08 237.94,-600.45 249,-576 252.99,-567.18 257.58,-557.65 261.77,-549.14"/>
<polygon fill="grey" stroke="grey" stroke-width="2" points="264.97,-550.57 266.3,-540.06 258.71,-547.45 264.97,-550.57"/>
</g>
<!-- 7 -->
<g id="node8" class="node">
<title>7</title>
<path fill="none" stroke="#d85656" stroke-width="2" stroke-dasharray="5,2" d="M307.5,-612C307.5,-612 270.5,-612 270.5,-612 264.5,-612 258.5,-606 258.5,-600 258.5,-600 258.5,-588 258.5,-588 258.5,-582 264.5,-576 270.5,-576 270.5,-576 307.5,-576 307.5,-576 313.5,-576 319.5,-582 319.5,-588 319.5,-588 319.5,-600 319.5,-600 319.5,-606 313.5,-612 307.5,-612"/>
<text text-anchor="middle" x="289" y="-591.5" font-family="sans" font-size="10.00">psiblastp</text>
</g>
<!-- 4&#45;&gt;7 -->
<g id="edge14" class="edge">
<title>4&#45;&gt;7</title>
<path fill="none" stroke="grey" stroke-width="2" d="M232.31,-647.69C241.87,-638.8 253.24,-628.24 263.27,-618.92"/>
<polygon fill="grey" stroke="grey" stroke-width="2" points="265.68,-621.45 270.63,-612.08 260.92,-616.32 265.68,-621.45"/>
</g>
<!-- 5 -->
<g id="node6" class="node">
<title>5</title>
<path fill="none" stroke="#d89c56" stroke-width="2" stroke-dasharray="5,2" d="M290,-468C290,-468 260,-468 260,-468 254,-468 248,-462 248,-456 248,-456 248,-444 248,-444 248,-438 254,-432 260,-432 260,-432 290,-432 290,-432 296,-432 302,-438 302,-444 302,-444 302,-456 302,-456 302,-462 296,-468 290,-468"/>
<text text-anchor="middle" x="275" y="-447.5" font-family="sans" font-size="10.00">msa</text>
</g>
<!-- 5&#45;&gt;3 -->
<g id="edge9" class="edge">
<title>5&#45;&gt;3</title>
<path fill="none" stroke="grey" stroke-width="2" d="M269.95,-431.85C259.03,-394.75 233.14,-306.81 219.98,-262.1"/>
<polygon fill="grey" stroke="grey" stroke-width="2" points="223.25,-260.84 217.07,-252.23 216.54,-262.81 223.25,-260.84"/>
</g>
<!-- 9 -->
<g id="node10" class="node">
<title>9</title>
<path fill="none" stroke="#56d88a" stroke-width="2" stroke-dasharray="5,2" d="M324.5,-396C324.5,-396 285.5,-396 285.5,-396 279.5,-396 273.5,-390 273.5,-384 273.5,-384 273.5,-372 273.5,-372 273.5,-366 279.5,-360 285.5,-360 285.5,-360 324.5,-360 324.5,-360 330.5,-360 336.5,-366 336.5,-372 336.5,-372 336.5,-384 336.5,-384 336.5,-390 330.5,-396 324.5,-396"/>
<text text-anchor="middle" x="305" y="-375.5" font-family="sans" font-size="10.00">trim_msa</text>
</g>
<!-- 5&#45;&gt;9 -->
<g id="edge16" class="edge">
<title>5&#45;&gt;9</title>
<path fill="none" stroke="grey" stroke-width="2" d="M282.42,-431.7C285.79,-423.81 289.87,-414.3 293.62,-405.55"/>
<polygon fill="grey" stroke="grey" stroke-width="2" points="296.95,-406.67 297.67,-396.1 290.51,-403.92 296.95,-406.67"/>
</g>
<!-- 6&#45;&gt;5 -->
<g id="edge11" class="edge">
<title>6&#45;&gt;5</title>
<path fill="none" stroke="grey" stroke-width="2" d="M275,-503.7C275,-495.98 275,-486.71 275,-478.11"/>
<polygon fill="grey" stroke="grey" stroke-width="2" points="278.5,-478.1 275,-468.1 271.5,-478.1 278.5,-478.1"/>
</g>
<!-- 7&#45;&gt;6 -->
<g id="edge12" class="edge">
<title>7&#45;&gt;6</title>
<path fill="none" stroke="grey" stroke-width="2" d="M285.54,-575.7C284,-567.98 282.14,-558.71 280.42,-550.11"/>
<polygon fill="grey" stroke="grey" stroke-width="2" points="283.81,-549.22 278.42,-540.1 276.95,-550.6 283.81,-549.22"/>
</g>
<!-- 8 -->
<g id="node9" class="node">
<title>8</title>
<path fill="none" stroke="#567bd8" stroke-width="2" stroke-dasharray="5,2" d="M320,-324C320,-324 290,-324 290,-324 284,-324 278,-318 278,-312 278,-312 278,-300 278,-300 278,-294 284,-288 290,-288 290,-288 320,-288 320,-288 326,-288 332,-294 332,-300 332,-300 332,-312 332,-312 332,-318 326,-324 320,-324"/>
<text text-anchor="middle" x="305" y="-303.5" font-family="sans" font-size="10.00">ml_tree</text>
</g>
<!-- 8&#45;&gt;3 -->
<g id="edge10" class="edge">
<title>8&#45;&gt;3</title>
<path fill="none" stroke="grey" stroke-width="2" d="M282.01,-287.7C270.19,-278.8 255.61,-267.82 242.82,-258.2"/>
<polygon fill="grey" stroke="grey" stroke-width="2" points="244.82,-255.32 234.72,-252.1 240.61,-260.91 244.82,-255.32"/>
</g>
<!-- 10 -->
<g id="node11" class="node">
<title>10</title>
<path fill="none" stroke="#68d856" stroke-width="2" stroke-dasharray="5,2" d="M332.5,-252C332.5,-252 283.5,-252 283.5,-252 277.5,-252 271.5,-246 271.5,-240 271.5,-240 271.5,-228 271.5,-228 271.5,-222 277.5,-216 283.5,-216 283.5,-216 332.5,-216 332.5,-216 338.5,-216 344.5,-222 344.5,-228 344.5,-228 344.5,-240 344.5,-240 344.5,-246 338.5,-252 332.5,-252"/>
<text text-anchor="middle" x="308" y="-231.5" font-family="sans" font-size="10.00">unroot_tree</text>
</g>
<!-- 8&#45;&gt;10 -->
<g id="edge17" class="edge">
<title>8&#45;&gt;10</title>
<path fill="none" stroke="grey" stroke-width="2" d="M305.74,-287.7C306.07,-279.98 306.47,-270.71 306.84,-262.11"/>
<polygon fill="grey" stroke="grey" stroke-width="2" points="310.34,-262.25 307.27,-252.1 303.34,-261.95 310.34,-262.25"/>
</g>
<!-- 9&#45;&gt;8 -->
<g id="edge15" class="edge">
<title>9&#45;&gt;8</title>
<path fill="none" stroke="grey" stroke-width="2" d="M305,-359.7C305,-351.98 305,-342.71 305,-334.11"/>
<polygon fill="grey" stroke="grey" stroke-width="2" points="308.5,-334.1 305,-324.1 301.5,-334.1 308.5,-334.1"/>
</g>
<!-- 24 -->
<g id="node25" class="node">
<title>24</title>
<path fill="none" stroke="#569ad8" stroke-width="2" stroke-dasharray="5,2" d="M413,-324C413,-324 377,-324 377,-324 371,-324 365,-318 365,-312 365,-312 365,-300 365,-300 365,-294 371,-288 377,-288 377,-288 413,-288 413,-288 419,-288 425,-294 425,-300 425,-300 425,-312 425,-312 425,-318 419,-324 413,-324"/>
<text text-anchor="middle" x="395" y="-303.5" font-family="sans" font-size="10.00">fast_tree</text>
</g>
<!-- 9&#45;&gt;24 -->
<g id="edge35" class="edge">
<title>9&#45;&gt;24</title>
<path fill="none" stroke="grey" stroke-width="2" d="M327.25,-359.7C338.58,-350.88 352.53,-340.03 364.82,-330.47"/>
<polygon fill="grey" stroke="grey" stroke-width="2" points="367.26,-333.01 373.01,-324.1 362.97,-327.48 367.26,-333.01"/>
</g>
<!-- 10&#45;&gt;2 -->
<g id="edge7" class="edge">
<title>10&#45;&gt;2</title>
<path fill="none" stroke="grey" stroke-width="2" d="M297.12,-215.7C292.01,-207.56 285.8,-197.69 280.16,-188.7"/>
<polygon fill="grey" stroke="grey" stroke-width="2" points="283.04,-186.71 274.75,-180.1 277.11,-190.43 283.04,-186.71"/>
</g>
<!-- 11 -->
<g id="node12" class="node">
<title>11</title>
<path fill="none" stroke="#d87556" stroke-width="2" d="M608,-108C608,-108 504,-108 504,-108 498,-108 492,-102 492,-96 492,-96 492,-84 492,-84 492,-78 498,-72 504,-72 504,-72 608,-72 608,-72 614,-72 620,-78 620,-84 620,-84 620,-96 620,-96 620,-102 614,-108 608,-108"/>
<text text-anchor="middle" x="556" y="-93" font-family="sans" font-size="10.00">raxml_anc_score</text>
<text text-anchor="middle" x="556" y="-82" font-family="sans" font-size="10.00">pattern: CountNodes_1</text>
</g>
<!-- 11&#45;&gt;0 -->
<g id="edge2" class="edge">
<title>11&#45;&gt;0</title>
<path fill="none" stroke="grey" stroke-width="2" d="M537.96,-71.7C528.94,-63.05 517.88,-52.45 508.06,-43.03"/>
<polygon fill="grey" stroke="grey" stroke-width="2" points="510.48,-40.5 500.84,-36.1 505.63,-45.55 510.48,-40.5"/>
</g>
<!-- 12 -->
<g id="node13" class="node">
<title>12</title>
<path fill="none" stroke="#afd856" stroke-width="2" stroke-dasharray="5,2" d="M598.5,-180C598.5,-180 515.5,-180 515.5,-180 509.5,-180 503.5,-174 503.5,-168 503.5,-168 503.5,-156 503.5,-156 503.5,-150 509.5,-144 515.5,-144 515.5,-144 598.5,-144 598.5,-144 604.5,-144 610.5,-150 610.5,-156 610.5,-156 610.5,-168 610.5,-168 610.5,-174 604.5,-180 598.5,-180"/>
<text text-anchor="middle" x="557" y="-159.5" font-family="sans" font-size="10.00">raxmlng_ancestral</text>
</g>
<!-- 12&#45;&gt;11 -->
<g id="edge18" class="edge">
<title>12&#45;&gt;11</title>
<path fill="none" stroke="grey" stroke-width="2" d="M556.75,-143.7C556.64,-135.98 556.51,-126.71 556.39,-118.11"/>
<polygon fill="grey" stroke="grey" stroke-width="2" points="559.89,-118.05 556.24,-108.1 552.89,-118.15 559.89,-118.05"/>
</g>
<!-- 13 -->
<g id="node14" class="node">
<title>13</title>
<path fill="none" stroke="#56d8a9" stroke-width="2" stroke-dasharray="5,2" d="M586.5,-252C586.5,-252 527.5,-252 527.5,-252 521.5,-252 515.5,-246 515.5,-240 515.5,-240 515.5,-228 515.5,-228 515.5,-222 521.5,-216 527.5,-216 527.5,-216 586.5,-216 586.5,-216 592.5,-216 598.5,-222 598.5,-228 598.5,-228 598.5,-240 598.5,-240 598.5,-246 592.5,-252 586.5,-252"/>
<text text-anchor="middle" x="557" y="-231.5" font-family="sans" font-size="10.00">remove_gaps</text>
</g>
<!-- 13&#45;&gt;12 -->
<g id="edge19" class="edge">
<title>13&#45;&gt;12</title>
<path fill="none" stroke="grey" stroke-width="2" d="M557,-215.7C557,-207.98 557,-198.71 557,-190.11"/>
<polygon fill="grey" stroke="grey" stroke-width="2" points="560.5,-190.1 557,-180.1 553.5,-190.1 560.5,-190.1"/>
</g>
<!-- 26 -->
<g id="node27" class="node">
<title>26</title>
<path fill="none" stroke="#ced856" stroke-width="2" stroke-dasharray="5,2" d="M737.5,-180C737.5,-180 666.5,-180 666.5,-180 660.5,-180 654.5,-174 654.5,-168 654.5,-168 654.5,-156 654.5,-156 654.5,-150 660.5,-144 666.5,-144 666.5,-144 737.5,-144 737.5,-144 743.5,-144 749.5,-150 749.5,-156 749.5,-156 749.5,-168 749.5,-168 749.5,-174 743.5,-180 737.5,-180"/>
<text text-anchor="middle" x="702" y="-159.5" font-family="sans" font-size="10.00">iqtree_ancestral</text>
</g>
<!-- 13&#45;&gt;26 -->
<g id="edge37" class="edge">
<title>13&#45;&gt;26</title>
<path fill="none" stroke="grey" stroke-width="2" d="M592.47,-215.88C612.12,-206.39 636.72,-194.51 657.63,-184.42"/>
<polygon fill="grey" stroke="grey" stroke-width="2" points="659.16,-187.57 666.64,-180.07 656.12,-181.26 659.16,-187.57"/>
</g>
<!-- 14 -->
<g id="node15" class="node">
<title>14</title>
<path fill="none" stroke="#88d856" stroke-width="2" stroke-dasharray="5,2" d="M850,-689C850,-689 452,-689 452,-689 446,-689 440,-683 440,-677 440,-677 440,-660 440,-660 440,-654 446,-648 452,-648 452,-648 850,-648 850,-648 856,-648 862,-654 862,-660 862,-660 862,-677 862,-677 862,-683 856,-689 850,-689"/>
<text text-anchor="middle" x="651" y="-677" font-family="sans" font-size="10.00">query_fasta</text>
<text text-anchor="middle" x="651" y="-666" font-family="sans" font-size="10.00">query_id: O60312</text>
<text text-anchor="middle" x="651" y="-655" font-family="sans" font-size="10.00">workdir: /cta/users/eakkoyun/WORKFOLDER/TEST/FASTTREE/phylogeny&#45;snakemake</text>
</g>
<!-- 14&#45;&gt;13 -->
<g id="edge21" class="edge">
<title>14&#45;&gt;13</title>
<path fill="none" stroke="grey" stroke-width="2" d="M627.28,-647.66C599.43,-622.01 557,-574.48 557,-523 557,-523 557,-523 557,-377 557,-337 557,-290.65 557,-262.08"/>
<polygon fill="grey" stroke="grey" stroke-width="2" points="560.5,-262.05 557,-252.05 553.5,-262.05 560.5,-262.05"/>
</g>
<!-- 16 -->
<g id="node17" class="node">
<title>16</title>
<path fill="none" stroke="#56d86b" stroke-width="2" stroke-dasharray="5,2" d="M668,-540C668,-540 612,-540 612,-540 606,-540 600,-534 600,-528 600,-528 600,-516 600,-516 600,-510 606,-504 612,-504 612,-504 668,-504 668,-504 674,-504 680,-510 680,-516 680,-516 680,-528 680,-528 680,-534 674,-540 668,-540"/>
<text text-anchor="middle" x="640" y="-519.5" font-family="sans" font-size="10.00">get_blasthits</text>
</g>
<!-- 14&#45;&gt;16 -->
<g id="edge26" class="edge">
<title>14&#45;&gt;16</title>
<path fill="none" stroke="grey" stroke-width="2" d="M641.06,-647.75C636.4,-637.39 631.35,-624.32 629,-612 625.08,-591.48 628.29,-568.03 632.23,-550.35"/>
<polygon fill="grey" stroke="grey" stroke-width="2" points="635.75,-550.71 634.73,-540.17 628.95,-549.05 635.75,-550.71"/>
</g>
<!-- 17 -->
<g id="node18" class="node">
<title>17</title>
<path fill="none" stroke="#d85656" stroke-width="2" stroke-dasharray="5,2" d="M687.5,-612C687.5,-612 650.5,-612 650.5,-612 644.5,-612 638.5,-606 638.5,-600 638.5,-600 638.5,-588 638.5,-588 638.5,-582 644.5,-576 650.5,-576 650.5,-576 687.5,-576 687.5,-576 693.5,-576 699.5,-582 699.5,-588 699.5,-588 699.5,-600 699.5,-600 699.5,-606 693.5,-612 687.5,-612"/>
<text text-anchor="middle" x="669" y="-591.5" font-family="sans" font-size="10.00">psiblastp</text>
</g>
<!-- 14&#45;&gt;17 -->
<g id="edge27" class="edge">
<title>14&#45;&gt;17</title>
<path fill="none" stroke="grey" stroke-width="2" d="M655.92,-647.69C657.87,-639.82 660.15,-630.64 662.25,-622.17"/>
<polygon fill="grey" stroke="grey" stroke-width="2" points="665.69,-622.87 664.7,-612.32 658.89,-621.18 665.69,-622.87"/>
</g>
<!-- 15 -->
<g id="node16" class="node">
<title>15</title>
<path fill="none" stroke="#d89c56" stroke-width="2" stroke-dasharray="5,2" d="M655,-468C655,-468 625,-468 625,-468 619,-468 613,-462 613,-456 613,-456 613,-444 613,-444 613,-438 619,-432 625,-432 625,-432 655,-432 655,-432 661,-432 667,-438 667,-444 667,-444 667,-456 667,-456 667,-462 661,-468 655,-468"/>
<text text-anchor="middle" x="640" y="-447.5" font-family="sans" font-size="10.00">msa</text>
</g>
<!-- 15&#45;&gt;13 -->
<g id="edge22" class="edge">
<title>15&#45;&gt;13</title>
<path fill="none" stroke="grey" stroke-width="2" d="M630.81,-431.57C625.59,-421.34 619.09,-408.09 614,-396 594.5,-349.63 575.81,-294.02 565.42,-261.77"/>
<polygon fill="grey" stroke="grey" stroke-width="2" points="568.73,-260.63 562.35,-252.17 562.07,-262.76 568.73,-260.63"/>
</g>
<!-- 19 -->
<g id="node20" class="node">
<title>19</title>
<path fill="none" stroke="#56d88a" stroke-width="2" stroke-dasharray="5,2" d="M674.5,-396C674.5,-396 635.5,-396 635.5,-396 629.5,-396 623.5,-390 623.5,-384 623.5,-384 623.5,-372 623.5,-372 623.5,-366 629.5,-360 635.5,-360 635.5,-360 674.5,-360 674.5,-360 680.5,-360 686.5,-366 686.5,-372 686.5,-372 686.5,-384 686.5,-384 686.5,-390 680.5,-396 674.5,-396"/>
<text text-anchor="middle" x="655" y="-375.5" font-family="sans" font-size="10.00">trim_msa</text>
</g>
<!-- 15&#45;&gt;19 -->
<g id="edge29" class="edge">
<title>15&#45;&gt;19</title>
<path fill="none" stroke="grey" stroke-width="2" d="M643.71,-431.7C645.36,-423.98 647.35,-414.71 649.19,-406.11"/>
<polygon fill="grey" stroke="grey" stroke-width="2" points="652.66,-406.62 651.33,-396.1 645.82,-405.15 652.66,-406.62"/>
</g>
<!-- 16&#45;&gt;15 -->
<g id="edge24" class="edge">
<title>16&#45;&gt;15</title>
<path fill="none" stroke="grey" stroke-width="2" d="M640,-503.7C640,-495.98 640,-486.71 640,-478.11"/>
<polygon fill="grey" stroke="grey" stroke-width="2" points="643.5,-478.1 640,-468.1 636.5,-478.1 643.5,-478.1"/>
</g>
<!-- 17&#45;&gt;16 -->
<g id="edge25" class="edge">
<title>17&#45;&gt;16</title>
<path fill="none" stroke="grey" stroke-width="2" d="M661.83,-575.7C658.57,-567.81 654.63,-558.3 651,-549.55"/>
<polygon fill="grey" stroke="grey" stroke-width="2" points="654.15,-548 647.09,-540.1 647.68,-550.68 654.15,-548"/>
</g>
<!-- 18 -->
<g id="node19" class="node">
<title>18</title>
<path fill="none" stroke="#567bd8" stroke-width="2" stroke-dasharray="5,2" d="M668,-324C668,-324 638,-324 638,-324 632,-324 626,-318 626,-312 626,-312 626,-300 626,-300 626,-294 632,-288 638,-288 638,-288 668,-288 668,-288 674,-288 680,-294 680,-300 680,-300 680,-312 680,-312 680,-318 674,-324 668,-324"/>
<text text-anchor="middle" x="653" y="-303.5" font-family="sans" font-size="10.00">ml_tree</text>
</g>
<!-- 18&#45;&gt;13 -->
<g id="edge23" class="edge">
<title>18&#45;&gt;13</title>
<path fill="none" stroke="grey" stroke-width="2" d="M629.27,-287.7C617.06,-278.8 602.01,-267.82 588.82,-258.2"/>
<polygon fill="grey" stroke="grey" stroke-width="2" points="590.6,-255.17 580.46,-252.1 586.48,-260.82 590.6,-255.17"/>
</g>
<!-- 20 -->
<g id="node21" class="node">
<title>20</title>
<path fill="none" stroke="#68d856" stroke-width="2" stroke-dasharray="5,2" d="M677.5,-252C677.5,-252 628.5,-252 628.5,-252 622.5,-252 616.5,-246 616.5,-240 616.5,-240 616.5,-228 616.5,-228 616.5,-222 622.5,-216 628.5,-216 628.5,-216 677.5,-216 677.5,-216 683.5,-216 689.5,-222 689.5,-228 689.5,-228 689.5,-240 689.5,-240 689.5,-246 683.5,-252 677.5,-252"/>
<text text-anchor="middle" x="653" y="-231.5" font-family="sans" font-size="10.00">unroot_tree</text>
</g>
<!-- 18&#45;&gt;20 -->
<g id="edge30" class="edge">
<title>18&#45;&gt;20</title>
<path fill="none" stroke="grey" stroke-width="2" d="M653,-287.7C653,-279.98 653,-270.71 653,-262.11"/>
<polygon fill="grey" stroke="grey" stroke-width="2" points="656.5,-262.1 653,-252.1 649.5,-262.1 656.5,-262.1"/>
</g>
<!-- 19&#45;&gt;18 -->
<g id="edge28" class="edge">
<title>19&#45;&gt;18</title>
<path fill="none" stroke="grey" stroke-width="2" d="M654.51,-359.7C654.29,-351.98 654.02,-342.71 653.77,-334.11"/>
<polygon fill="grey" stroke="grey" stroke-width="2" points="657.27,-334 653.49,-324.1 650.28,-334.2 657.27,-334"/>
</g>
<!-- 28 -->
<g id="node29" class="node">
<title>28</title>
<path fill="none" stroke="#569ad8" stroke-width="2" stroke-dasharray="5,2" d="M759,-324C759,-324 723,-324 723,-324 717,-324 711,-318 711,-312 711,-312 711,-300 711,-300 711,-294 717,-288 723,-288 723,-288 759,-288 759,-288 765,-288 771,-294 771,-300 771,-300 771,-312 771,-312 771,-318 765,-324 759,-324"/>
<text text-anchor="middle" x="741" y="-303.5" font-family="sans" font-size="10.00">fast_tree</text>
</g>
<!-- 19&#45;&gt;28 -->
<g id="edge40" class="edge">
<title>19&#45;&gt;28</title>
<path fill="none" stroke="grey" stroke-width="2" d="M676.26,-359.7C687.09,-350.88 700.42,-340.03 712.16,-330.47"/>
<polygon fill="grey" stroke="grey" stroke-width="2" points="714.44,-333.13 719.99,-324.1 710.02,-327.7 714.44,-333.13"/>
</g>
<!-- 20&#45;&gt;12 -->
<g id="edge20" class="edge">
<title>20&#45;&gt;12</title>
<path fill="none" stroke="grey" stroke-width="2" d="M629.27,-215.7C617.06,-206.8 602.01,-195.82 588.82,-186.2"/>
<polygon fill="grey" stroke="grey" stroke-width="2" points="590.6,-183.17 580.46,-180.1 586.48,-188.82 590.6,-183.17"/>
</g>
<!-- 21 -->
<g id="node22" class="node">
<title>21</title>
<path fill="none" stroke="#d8bc56" stroke-width="2" stroke-dasharray="5,2" d="M462,-108C462,-108 358,-108 358,-108 352,-108 346,-102 346,-96 346,-96 346,-84 346,-84 346,-78 352,-72 358,-72 358,-72 462,-72 462,-72 468,-72 474,-78 474,-84 474,-84 474,-96 474,-96 474,-102 468,-108 462,-108"/>
<text text-anchor="middle" x="410" y="-93" font-family="sans" font-size="10.00">iqtree_anc_score</text>
<text text-anchor="middle" x="410" y="-82" font-family="sans" font-size="10.00">pattern: CountNodes_1</text>
</g>
<!-- 21&#45;&gt;0 -->
<g id="edge3" class="edge">
<title>21&#45;&gt;0</title>
<path fill="none" stroke="grey" stroke-width="2" d="M428.04,-71.7C437.06,-63.05 448.12,-52.45 457.94,-43.03"/>
<polygon fill="grey" stroke="grey" stroke-width="2" points="460.37,-45.55 465.16,-36.1 455.52,-40.5 460.37,-45.55"/>
</g>
<!-- 22&#45;&gt;21 -->
<g id="edge31" class="edge">
<title>22&#45;&gt;21</title>
<path fill="none" stroke="grey" stroke-width="2" d="M409.25,-143.7C409.36,-135.98 409.49,-126.71 409.61,-118.11"/>
<polygon fill="grey" stroke="grey" stroke-width="2" points="413.11,-118.15 409.76,-108.1 406.11,-118.05 413.11,-118.15"/>
</g>
<!-- 23 -->
<g id="node24" class="node">
<title>23</title>
<path fill="none" stroke="#56d8d0" stroke-width="2" stroke-dasharray="5,2" d="M443,-252C443,-252 375,-252 375,-252 369,-252 363,-246 363,-240 363,-240 363,-228 363,-228 363,-222 369,-216 375,-216 375,-216 443,-216 443,-216 449,-216 455,-222 455,-228 455,-228 455,-240 455,-240 455,-246 449,-252 443,-252"/>
<text text-anchor="middle" x="409" y="-231.5" font-family="sans" font-size="10.00">unroot_fasttree</text>
</g>
<!-- 23&#45;&gt;22 -->
<g id="edge33" class="edge">
<title>23&#45;&gt;22</title>
<path fill="none" stroke="grey" stroke-width="2" d="M409,-215.7C409,-207.98 409,-198.71 409,-190.11"/>
<polygon fill="grey" stroke="grey" stroke-width="2" points="412.5,-190.1 409,-180.1 405.5,-190.1 412.5,-190.1"/>
</g>
<!-- 24&#45;&gt;23 -->
<g id="edge34" class="edge">
<title>24&#45;&gt;23</title>
<path fill="none" stroke="grey" stroke-width="2" d="M398.46,-287.7C400,-279.98 401.86,-270.71 403.58,-262.11"/>
<polygon fill="grey" stroke="grey" stroke-width="2" points="407.05,-262.6 405.58,-252.1 400.19,-261.22 407.05,-262.6"/>
</g>
<!-- 25 -->
<g id="node26" class="node">
<title>25</title>
<path fill="none" stroke="#d8bc56" stroke-width="2" stroke-dasharray="5,2" d="M754,-108C754,-108 650,-108 650,-108 644,-108 638,-102 638,-96 638,-96 638,-84 638,-84 638,-78 644,-72 650,-72 650,-72 754,-72 754,-72 760,-72 766,-78 766,-84 766,-84 766,-96 766,-96 766,-102 760,-108 754,-108"/>
<text text-anchor="middle" x="702" y="-93" font-family="sans" font-size="10.00">iqtree_anc_score</text>
<text text-anchor="middle" x="702" y="-82" font-family="sans" font-size="10.00">pattern: CountNodes_1</text>
</g>
<!-- 25&#45;&gt;0 -->
<g id="edge4" class="edge">
<title>25&#45;&gt;0</title>
<path fill="none" stroke="grey" stroke-width="2" d="M648.71,-71.97C608.84,-59.22 555.32,-42.12 520.03,-30.84"/>
<polygon fill="grey" stroke="grey" stroke-width="2" points="520.74,-27.39 510.15,-27.68 518.61,-34.06 520.74,-27.39"/>
</g>
<!-- 26&#45;&gt;25 -->
<g id="edge36" class="edge">
<title>26&#45;&gt;25</title>
<path fill="none" stroke="grey" stroke-width="2" d="M702,-143.7C702,-135.98 702,-126.71 702,-118.11"/>
<polygon fill="grey" stroke="grey" stroke-width="2" points="705.5,-118.1 702,-108.1 698.5,-118.1 705.5,-118.1"/>
</g>
<!-- 27 -->
<g id="node28" class="node">
<title>27</title>
<path fill="none" stroke="#56d8d0" stroke-width="2" stroke-dasharray="5,2" d="M788,-252C788,-252 720,-252 720,-252 714,-252 708,-246 708,-240 708,-240 708,-228 708,-228 708,-222 714,-216 720,-216 720,-216 788,-216 788,-216 794,-216 800,-222 800,-228 800,-228 800,-240 800,-240 800,-246 794,-252 788,-252"/>
<text text-anchor="middle" x="754" y="-231.5" font-family="sans" font-size="10.00">unroot_fasttree</text>
</g>
<!-- 27&#45;&gt;26 -->
<g id="edge38" class="edge">
<title>27&#45;&gt;26</title>
<path fill="none" stroke="grey" stroke-width="2" d="M741.15,-215.7C734.97,-207.39 727.46,-197.28 720.68,-188.14"/>
<polygon fill="grey" stroke="grey" stroke-width="2" points="723.48,-186.04 714.71,-180.1 717.86,-190.22 723.48,-186.04"/>
</g>
<!-- 28&#45;&gt;27 -->
<g id="edge39" class="edge">
<title>28&#45;&gt;27</title>
<path fill="none" stroke="grey" stroke-width="2" d="M744.21,-287.7C745.65,-279.98 747.37,-270.71 748.96,-262.11"/>
<polygon fill="grey" stroke="grey" stroke-width="2" points="752.44,-262.58 750.82,-252.1 745.56,-261.3 752.44,-262.58"/>
</g>
</g>
</svg>
