<?xml version="1.0" encoding="UTF-8" standalone="no"?>
<!DOCTYPE svg PUBLIC "-//W3C//DTD SVG 1.1//EN"
 "http://www.w3.org/Graphics/SVG/1.1/DTD/svg11.dtd">
<!-- Generated by graphviz version 2.42.3 (20191010.1750)
 -->
<!-- Title: snakemake_dag Pages: 1 -->
<svg width="894pt" height="697pt"
 viewBox="0.00 0.00 894.00 697.00" xmlns="http://www.w3.org/2000/svg" xmlns:xlink="http://www.w3.org/1999/xlink">
<g id="graph0" class="graph" transform="scale(1 1) rotate(0) translate(4 693)">
<title>snakemake_dag</title>
<polygon fill="white" stroke="transparent" points="-4,4 -4,-693 890,-693 890,4 -4,4"/>
<!-- 0 -->
<g id="node1" class="node">
<title>0</title>
<path fill="none" stroke="#d8b456" stroke-width="2" stroke-dasharray="5,2" d="M487,-36C487,-36 457,-36 457,-36 451,-36 445,-30 445,-24 445,-24 445,-12 445,-12 445,-6 451,0 457,0 457,0 487,0 487,0 493,0 499,-6 499,-12 499,-12 499,-24 499,-24 499,-30 493,-36 487,-36"/>
<text text-anchor="middle" x="472" y="-15.5" font-family="sans" font-size="10.00">all</text>
</g>
<!-- 1 -->
<g id="node2" class="node">
<title>1</title>
<path fill="none" stroke="#9fd856" stroke-width="2" stroke-dasharray="5,2" d="M451,-108C451,-108 347,-108 347,-108 341,-108 335,-102 335,-96 335,-96 335,-84 335,-84 335,-78 341,-72 347,-72 347,-72 451,-72 451,-72 457,-72 463,-78 463,-84 463,-84 463,-96 463,-96 463,-102 457,-108 451,-108"/>
<text text-anchor="middle" x="399" y="-93" font-family="sans" font-size="10.00">raxml_anc_score</text>
<text text-anchor="middle" x="399" y="-82" font-family="sans" font-size="10.00">pattern: CountNodes_1</text>
</g>
<!-- 1&#45;&gt;0 -->
<g id="edge1" class="edge">
<title>1&#45;&gt;0</title>
<path fill="none" stroke="grey" stroke-width="2" d="M417.04,-71.7C426.06,-63.05 437.12,-52.45 446.94,-43.03"/>
<polygon fill="grey" stroke="grey" stroke-width="2" points="449.37,-45.55 454.16,-36.1 444.52,-40.5 449.37,-45.55"/>
</g>
<!-- 2 -->
<g id="node3" class="node">
<title>2</title>
<path fill="none" stroke="#ced856" stroke-width="2" stroke-dasharray="5,2" d="M395.5,-180C395.5,-180 312.5,-180 312.5,-180 306.5,-180 300.5,-174 300.5,-168 300.5,-168 300.5,-156 300.5,-156 300.5,-150 306.5,-144 312.5,-144 312.5,-144 395.5,-144 395.5,-144 401.5,-144 407.5,-150 407.5,-156 407.5,-156 407.5,-168 407.5,-168 407.5,-174 401.5,-180 395.5,-180"/>
<text text-anchor="middle" x="354" y="-159.5" font-family="sans" font-size="10.00">raxmlng_ancestral</text>
</g>
<!-- 2&#45;&gt;1 -->
<g id="edge3" class="edge">
<title>2&#45;&gt;1</title>
<path fill="none" stroke="grey" stroke-width="2" d="M365.12,-143.7C370.36,-135.56 376.7,-125.69 382.48,-116.7"/>
<polygon fill="grey" stroke="grey" stroke-width="2" points="385.54,-118.41 388,-108.1 379.65,-114.62 385.54,-118.41"/>
</g>
<!-- 3 -->
<g id="node4" class="node">
<title>3</title>
<path fill="none" stroke="#70d856" stroke-width="2" stroke-dasharray="5,2" d="M287.5,-252C287.5,-252 228.5,-252 228.5,-252 222.5,-252 216.5,-246 216.5,-240 216.5,-240 216.5,-228 216.5,-228 216.5,-222 222.5,-216 228.5,-216 228.5,-216 287.5,-216 287.5,-216 293.5,-216 299.5,-222 299.5,-228 299.5,-228 299.5,-240 299.5,-240 299.5,-246 293.5,-252 287.5,-252"/>
<text text-anchor="middle" x="258" y="-231.5" font-family="sans" font-size="10.00">remove_gaps</text>
</g>
<!-- 3&#45;&gt;2 -->
<g id="edge4" class="edge">
<title>3&#45;&gt;2</title>
<path fill="none" stroke="grey" stroke-width="2" d="M281.73,-215.7C293.94,-206.8 308.99,-195.82 322.18,-186.2"/>
<polygon fill="grey" stroke="grey" stroke-width="2" points="324.52,-188.82 330.54,-180.1 320.4,-183.17 324.52,-188.82"/>
</g>
<!-- 4 -->
<g id="node5" class="node">
<title>4</title>
<path fill="none" stroke="#56b1d8" stroke-width="2" stroke-dasharray="5,2" d="M422,-689C422,-689 12,-689 12,-689 6,-689 0,-683 0,-677 0,-677 0,-660 0,-660 0,-654 6,-648 12,-648 12,-648 422,-648 422,-648 428,-648 434,-654 434,-660 434,-660 434,-677 434,-677 434,-683 428,-689 422,-689"/>
<text text-anchor="middle" x="217" y="-677" font-family="sans" font-size="10.00">query_fasta</text>
<text text-anchor="middle" x="217" y="-666" font-family="sans" font-size="10.00">query_id: P35520</text>
<text text-anchor="middle" x="217" y="-655" font-family="sans" font-size="10.00">workdir: /cta/users/eakkoyun/WORKFOLDER/TEST/120421_test/phylogeny&#45;snakemake</text>
</g>
<!-- 4&#45;&gt;3 -->
<g id="edge6" class="edge">
<title>4&#45;&gt;3</title>
<path fill="none" stroke="grey" stroke-width="2" d="M212.78,-647.97C207.19,-620.31 198,-568.04 198,-523 198,-523 198,-523 198,-377 198,-333.72 221.94,-288.45 239.58,-260.98"/>
<polygon fill="grey" stroke="grey" stroke-width="2" points="242.68,-262.65 245.28,-252.38 236.84,-258.78 242.68,-262.65"/>
</g>
<!-- 6 -->
<g id="node7" class="node">
<title>6</title>
<path fill="none" stroke="#5682d8" stroke-width="2" stroke-dasharray="5,2" d="M309,-540C309,-540 253,-540 253,-540 247,-540 241,-534 241,-528 241,-528 241,-516 241,-516 241,-510 247,-504 253,-504 253,-504 309,-504 309,-504 315,-504 321,-510 321,-516 321,-516 321,-528 321,-528 321,-534 315,-540 309,-540"/>
<text text-anchor="middle" x="281" y="-519.5" font-family="sans" font-size="10.00">get_blasthits</text>
</g>
<!-- 4&#45;&gt;6 -->
<g id="edge11" class="edge">
<title>4&#45;&gt;6</title>
<path fill="none" stroke="grey" stroke-width="2" d="M224.8,-647.71C232.25,-629.08 243.94,-600.45 255,-576 258.99,-567.18 263.58,-557.65 267.77,-549.14"/>
<polygon fill="grey" stroke="grey" stroke-width="2" points="270.97,-550.57 272.3,-540.06 264.71,-547.45 270.97,-550.57"/>
</g>
<!-- 7 -->
<g id="node8" class="node">
<title>7</title>
<path fill="none" stroke="#56d8c9" stroke-width="2" stroke-dasharray="5,2" d="M313.5,-612C313.5,-612 276.5,-612 276.5,-612 270.5,-612 264.5,-606 264.5,-600 264.5,-600 264.5,-588 264.5,-588 264.5,-582 270.5,-576 276.5,-576 276.5,-576 313.5,-576 313.5,-576 319.5,-576 325.5,-582 325.5,-588 325.5,-588 325.5,-600 325.5,-600 325.5,-606 319.5,-612 313.5,-612"/>
<text text-anchor="middle" x="295" y="-591.5" font-family="sans" font-size="10.00">psiblastp</text>
</g>
<!-- 4&#45;&gt;7 -->
<g id="edge12" class="edge">
<title>4&#45;&gt;7</title>
<path fill="none" stroke="grey" stroke-width="2" d="M238.31,-647.69C247.87,-638.8 259.24,-628.24 269.27,-618.92"/>
<polygon fill="grey" stroke="grey" stroke-width="2" points="271.68,-621.45 276.63,-612.08 266.92,-616.32 271.68,-621.45"/>
</g>
<!-- 5 -->
<g id="node6" class="node">
<title>5</title>
<path fill="none" stroke="#d88556" stroke-width="2" stroke-dasharray="5,2" d="M296,-468C296,-468 266,-468 266,-468 260,-468 254,-462 254,-456 254,-456 254,-444 254,-444 254,-438 260,-432 266,-432 266,-432 296,-432 296,-432 302,-432 308,-438 308,-444 308,-444 308,-456 308,-456 308,-462 302,-468 296,-468"/>
<text text-anchor="middle" x="281" y="-447.5" font-family="sans" font-size="10.00">msa</text>
</g>
<!-- 5&#45;&gt;3 -->
<g id="edge7" class="edge">
<title>5&#45;&gt;3</title>
<path fill="none" stroke="grey" stroke-width="2" d="M279.16,-431.85C275.18,-394.83 265.76,-307.18 260.94,-262.39"/>
<polygon fill="grey" stroke="grey" stroke-width="2" points="264.4,-261.8 259.85,-252.23 257.44,-262.55 264.4,-261.8"/>
</g>
<!-- 9 -->
<g id="node10" class="node">
<title>9</title>
<path fill="none" stroke="#d85656" stroke-width="2" stroke-dasharray="5,2" d="M337.5,-396C337.5,-396 298.5,-396 298.5,-396 292.5,-396 286.5,-390 286.5,-384 286.5,-384 286.5,-372 286.5,-372 286.5,-366 292.5,-360 298.5,-360 298.5,-360 337.5,-360 337.5,-360 343.5,-360 349.5,-366 349.5,-372 349.5,-372 349.5,-384 349.5,-384 349.5,-390 343.5,-396 337.5,-396"/>
<text text-anchor="middle" x="318" y="-375.5" font-family="sans" font-size="10.00">trim_msa</text>
</g>
<!-- 5&#45;&gt;9 -->
<g id="edge14" class="edge">
<title>5&#45;&gt;9</title>
<path fill="none" stroke="grey" stroke-width="2" d="M290.15,-431.7C294.4,-423.64 299.56,-413.89 304.27,-404.98"/>
<polygon fill="grey" stroke="grey" stroke-width="2" points="307.38,-406.58 308.96,-396.1 301.19,-403.31 307.38,-406.58"/>
</g>
<!-- 6&#45;&gt;5 -->
<g id="edge9" class="edge">
<title>6&#45;&gt;5</title>
<path fill="none" stroke="grey" stroke-width="2" d="M281,-503.7C281,-495.98 281,-486.71 281,-478.11"/>
<polygon fill="grey" stroke="grey" stroke-width="2" points="284.5,-478.1 281,-468.1 277.5,-478.1 284.5,-478.1"/>
</g>
<!-- 7&#45;&gt;6 -->
<g id="edge10" class="edge">
<title>7&#45;&gt;6</title>
<path fill="none" stroke="grey" stroke-width="2" d="M291.54,-575.7C290,-567.98 288.14,-558.71 286.42,-550.11"/>
<polygon fill="grey" stroke="grey" stroke-width="2" points="289.81,-549.22 284.42,-540.1 282.95,-550.6 289.81,-549.22"/>
</g>
<!-- 8 -->
<g id="node9" class="node">
<title>8</title>
<path fill="none" stroke="#56d89a" stroke-width="2" stroke-dasharray="5,2" d="M333,-324C333,-324 303,-324 303,-324 297,-324 291,-318 291,-312 291,-312 291,-300 291,-300 291,-294 297,-288 303,-288 303,-288 333,-288 333,-288 339,-288 345,-294 345,-300 345,-300 345,-312 345,-312 345,-318 339,-324 333,-324"/>
<text text-anchor="middle" x="318" y="-303.5" font-family="sans" font-size="10.00">ml_tree</text>
</g>
<!-- 8&#45;&gt;3 -->
<g id="edge8" class="edge">
<title>8&#45;&gt;3</title>
<path fill="none" stroke="grey" stroke-width="2" d="M303.17,-287.7C295.98,-279.3 287.2,-269.07 279.31,-259.86"/>
<polygon fill="grey" stroke="grey" stroke-width="2" points="281.83,-257.42 272.66,-252.1 276.51,-261.97 281.83,-257.42"/>
</g>
<!-- 10 -->
<g id="node11" class="node">
<title>10</title>
<path fill="none" stroke="#56d86b" stroke-width="2" stroke-dasharray="5,2" d="M378.5,-252C378.5,-252 329.5,-252 329.5,-252 323.5,-252 317.5,-246 317.5,-240 317.5,-240 317.5,-228 317.5,-228 317.5,-222 323.5,-216 329.5,-216 329.5,-216 378.5,-216 378.5,-216 384.5,-216 390.5,-222 390.5,-228 390.5,-228 390.5,-240 390.5,-240 390.5,-246 384.5,-252 378.5,-252"/>
<text text-anchor="middle" x="354" y="-231.5" font-family="sans" font-size="10.00">unroot_tree</text>
</g>
<!-- 8&#45;&gt;10 -->
<g id="edge15" class="edge">
<title>8&#45;&gt;10</title>
<path fill="none" stroke="grey" stroke-width="2" d="M326.9,-287.7C331,-279.73 335.95,-270.1 340.49,-261.26"/>
<polygon fill="grey" stroke="grey" stroke-width="2" points="343.74,-262.6 345.2,-252.1 337.52,-259.4 343.74,-262.6"/>
</g>
<!-- 9&#45;&gt;8 -->
<g id="edge13" class="edge">
<title>9&#45;&gt;8</title>
<path fill="none" stroke="grey" stroke-width="2" d="M318,-359.7C318,-351.98 318,-342.71 318,-334.11"/>
<polygon fill="grey" stroke="grey" stroke-width="2" points="321.5,-334.1 318,-324.1 314.5,-334.1 321.5,-334.1"/>
</g>
<!-- 10&#45;&gt;2 -->
<g id="edge5" class="edge">
<title>10&#45;&gt;2</title>
<path fill="none" stroke="grey" stroke-width="2" d="M354,-215.7C354,-207.98 354,-198.71 354,-190.11"/>
<polygon fill="grey" stroke="grey" stroke-width="2" points="357.5,-190.1 354,-180.1 350.5,-190.1 357.5,-190.1"/>
</g>
<!-- 11 -->
<g id="node12" class="node">
<title>11</title>
<path fill="none" stroke="#9fd856" stroke-width="2" stroke-dasharray="5,2" d="M625,-108C625,-108 521,-108 521,-108 515,-108 509,-102 509,-96 509,-96 509,-84 509,-84 509,-78 515,-72 521,-72 521,-72 625,-72 625,-72 631,-72 637,-78 637,-84 637,-84 637,-96 637,-96 637,-102 631,-108 625,-108"/>
<text text-anchor="middle" x="573" y="-93" font-family="sans" font-size="10.00">raxml_anc_score</text>
<text text-anchor="middle" x="573" y="-82" font-family="sans" font-size="10.00">pattern: CountNodes_1</text>
</g>
<!-- 11&#45;&gt;0 -->
<g id="edge2" class="edge">
<title>11&#45;&gt;0</title>
<path fill="none" stroke="grey" stroke-width="2" d="M548.29,-71.88C535.33,-62.89 519.27,-51.76 505.23,-42.03"/>
<polygon fill="grey" stroke="grey" stroke-width="2" points="507.02,-39.01 496.8,-36.19 503.03,-44.76 507.02,-39.01"/>
</g>
<!-- 12 -->
<g id="node13" class="node">
<title>12</title>
<path fill="none" stroke="#ced856" stroke-width="2" stroke-dasharray="5,2" d="M628.5,-180C628.5,-180 545.5,-180 545.5,-180 539.5,-180 533.5,-174 533.5,-168 533.5,-168 533.5,-156 533.5,-156 533.5,-150 539.5,-144 545.5,-144 545.5,-144 628.5,-144 628.5,-144 634.5,-144 640.5,-150 640.5,-156 640.5,-156 640.5,-168 640.5,-168 640.5,-174 634.5,-180 628.5,-180"/>
<text text-anchor="middle" x="587" y="-159.5" font-family="sans" font-size="10.00">raxmlng_ancestral</text>
</g>
<!-- 12&#45;&gt;11 -->
<g id="edge16" class="edge">
<title>12&#45;&gt;11</title>
<path fill="none" stroke="grey" stroke-width="2" d="M583.54,-143.7C582,-135.98 580.14,-126.71 578.42,-118.11"/>
<polygon fill="grey" stroke="grey" stroke-width="2" points="581.81,-117.22 576.42,-108.1 574.95,-118.6 581.81,-117.22"/>
</g>
<!-- 13 -->
<g id="node14" class="node">
<title>13</title>
<path fill="none" stroke="#70d856" stroke-width="2" stroke-dasharray="5,2" d="M616.5,-252C616.5,-252 557.5,-252 557.5,-252 551.5,-252 545.5,-246 545.5,-240 545.5,-240 545.5,-228 545.5,-228 545.5,-222 551.5,-216 557.5,-216 557.5,-216 616.5,-216 616.5,-216 622.5,-216 628.5,-222 628.5,-228 628.5,-228 628.5,-240 628.5,-240 628.5,-246 622.5,-252 616.5,-252"/>
<text text-anchor="middle" x="587" y="-231.5" font-family="sans" font-size="10.00">remove_gaps</text>
</g>
<!-- 13&#45;&gt;12 -->
<g id="edge17" class="edge">
<title>13&#45;&gt;12</title>
<path fill="none" stroke="grey" stroke-width="2" d="M587,-215.7C587,-207.98 587,-198.71 587,-190.11"/>
<polygon fill="grey" stroke="grey" stroke-width="2" points="590.5,-190.1 587,-180.1 583.5,-190.1 590.5,-190.1"/>
</g>
<!-- 14 -->
<g id="node15" class="node">
<title>14</title>
<path fill="none" stroke="#56b1d8" stroke-width="2" stroke-dasharray="5,2" d="M874,-689C874,-689 464,-689 464,-689 458,-689 452,-683 452,-677 452,-677 452,-660 452,-660 452,-654 458,-648 464,-648 464,-648 874,-648 874,-648 880,-648 886,-654 886,-660 886,-660 886,-677 886,-677 886,-683 880,-689 874,-689"/>
<text text-anchor="middle" x="669" y="-677" font-family="sans" font-size="10.00">query_fasta</text>
<text text-anchor="middle" x="669" y="-666" font-family="sans" font-size="10.00">query_id: P63000</text>
<text text-anchor="middle" x="669" y="-655" font-family="sans" font-size="10.00">workdir: /cta/users/eakkoyun/WORKFOLDER/TEST/120421_test/phylogeny&#45;snakemake</text>
</g>
<!-- 14&#45;&gt;13 -->
<g id="edge19" class="edge">
<title>14&#45;&gt;13</title>
<path fill="none" stroke="grey" stroke-width="2" d="M648.48,-647.56C623.9,-621.44 586,-573.05 586,-523 586,-523 586,-523 586,-377 586,-337 586.4,-290.65 586.7,-262.08"/>
<polygon fill="grey" stroke="grey" stroke-width="2" points="590.2,-262.09 586.8,-252.05 583.2,-262.01 590.2,-262.09"/>
</g>
<!-- 16 -->
<g id="node17" class="node">
<title>16</title>
<path fill="none" stroke="#5682d8" stroke-width="2" stroke-dasharray="5,2" d="M697,-540C697,-540 641,-540 641,-540 635,-540 629,-534 629,-528 629,-528 629,-516 629,-516 629,-510 635,-504 641,-504 641,-504 697,-504 697,-504 703,-504 709,-510 709,-516 709,-516 709,-528 709,-528 709,-534 703,-540 697,-540"/>
<text text-anchor="middle" x="669" y="-519.5" font-family="sans" font-size="10.00">get_blasthits</text>
</g>
<!-- 14&#45;&gt;16 -->
<g id="edge24" class="edge">
<title>14&#45;&gt;16</title>
<path fill="none" stroke="grey" stroke-width="2" d="M664.58,-647.84C662.42,-637.28 660.07,-623.99 659,-612 657.58,-596.06 657.51,-591.93 659,-576 659.8,-567.48 661.3,-558.28 662.9,-549.99"/>
<polygon fill="grey" stroke="grey" stroke-width="2" points="666.36,-550.57 664.94,-540.07 659.5,-549.16 666.36,-550.57"/>
</g>
<!-- 17 -->
<g id="node18" class="node">
<title>17</title>
<path fill="none" stroke="#56d8c9" stroke-width="2" stroke-dasharray="5,2" d="M716.5,-612C716.5,-612 679.5,-612 679.5,-612 673.5,-612 667.5,-606 667.5,-600 667.5,-600 667.5,-588 667.5,-588 667.5,-582 673.5,-576 679.5,-576 679.5,-576 716.5,-576 716.5,-576 722.5,-576 728.5,-582 728.5,-588 728.5,-588 728.5,-600 728.5,-600 728.5,-606 722.5,-612 716.5,-612"/>
<text text-anchor="middle" x="698" y="-591.5" font-family="sans" font-size="10.00">psiblastp</text>
</g>
<!-- 14&#45;&gt;17 -->
<g id="edge25" class="edge">
<title>14&#45;&gt;17</title>
<path fill="none" stroke="grey" stroke-width="2" d="M676.92,-647.69C680.14,-639.65 683.91,-630.24 687.36,-621.61"/>
<polygon fill="grey" stroke="grey" stroke-width="2" points="690.61,-622.9 691.07,-612.32 684.11,-620.3 690.61,-622.9"/>
</g>
<!-- 15 -->
<g id="node16" class="node">
<title>15</title>
<path fill="none" stroke="#d88556" stroke-width="2" stroke-dasharray="5,2" d="M684,-468C684,-468 654,-468 654,-468 648,-468 642,-462 642,-456 642,-456 642,-444 642,-444 642,-438 648,-432 654,-432 654,-432 684,-432 684,-432 690,-432 696,-438 696,-444 696,-444 696,-456 696,-456 696,-462 690,-468 684,-468"/>
<text text-anchor="middle" x="669" y="-447.5" font-family="sans" font-size="10.00">msa</text>
</g>
<!-- 15&#45;&gt;13 -->
<g id="edge20" class="edge">
<title>15&#45;&gt;13</title>
<path fill="none" stroke="grey" stroke-width="2" d="M660.22,-431.53C655.21,-421.29 648.96,-408.04 644,-396 624.85,-349.49 606.05,-293.92 595.55,-261.72"/>
<polygon fill="grey" stroke="grey" stroke-width="2" points="598.85,-260.57 592.44,-252.13 592.19,-262.72 598.85,-260.57"/>
</g>
<!-- 19 -->
<g id="node20" class="node">
<title>19</title>
<path fill="none" stroke="#d85656" stroke-width="2" stroke-dasharray="5,2" d="M703.5,-396C703.5,-396 664.5,-396 664.5,-396 658.5,-396 652.5,-390 652.5,-384 652.5,-384 652.5,-372 652.5,-372 652.5,-366 658.5,-360 664.5,-360 664.5,-360 703.5,-360 703.5,-360 709.5,-360 715.5,-366 715.5,-372 715.5,-372 715.5,-384 715.5,-384 715.5,-390 709.5,-396 703.5,-396"/>
<text text-anchor="middle" x="684" y="-375.5" font-family="sans" font-size="10.00">trim_msa</text>
</g>
<!-- 15&#45;&gt;19 -->
<g id="edge27" class="edge">
<title>15&#45;&gt;19</title>
<path fill="none" stroke="grey" stroke-width="2" d="M672.71,-431.7C674.36,-423.98 676.35,-414.71 678.19,-406.11"/>
<polygon fill="grey" stroke="grey" stroke-width="2" points="681.66,-406.62 680.33,-396.1 674.82,-405.15 681.66,-406.62"/>
</g>
<!-- 16&#45;&gt;15 -->
<g id="edge22" class="edge">
<title>16&#45;&gt;15</title>
<path fill="none" stroke="grey" stroke-width="2" d="M669,-503.7C669,-495.98 669,-486.71 669,-478.11"/>
<polygon fill="grey" stroke="grey" stroke-width="2" points="672.5,-478.1 669,-468.1 665.5,-478.1 672.5,-478.1"/>
</g>
<!-- 17&#45;&gt;16 -->
<g id="edge23" class="edge">
<title>17&#45;&gt;16</title>
<path fill="none" stroke="grey" stroke-width="2" d="M690.83,-575.7C687.57,-567.81 683.63,-558.3 680,-549.55"/>
<polygon fill="grey" stroke="grey" stroke-width="2" points="683.15,-548 676.09,-540.1 676.68,-550.68 683.15,-548"/>
</g>
<!-- 18 -->
<g id="node19" class="node">
<title>18</title>
<path fill="none" stroke="#56d89a" stroke-width="2" stroke-dasharray="5,2" d="M698,-324C698,-324 668,-324 668,-324 662,-324 656,-318 656,-312 656,-312 656,-300 656,-300 656,-294 662,-288 668,-288 668,-288 698,-288 698,-288 704,-288 710,-294 710,-300 710,-300 710,-312 710,-312 710,-318 704,-324 698,-324"/>
<text text-anchor="middle" x="683" y="-303.5" font-family="sans" font-size="10.00">ml_tree</text>
</g>
<!-- 18&#45;&gt;13 -->
<g id="edge21" class="edge">
<title>18&#45;&gt;13</title>
<path fill="none" stroke="grey" stroke-width="2" d="M659.27,-287.7C647.06,-278.8 632.01,-267.82 618.82,-258.2"/>
<polygon fill="grey" stroke="grey" stroke-width="2" points="620.6,-255.17 610.46,-252.1 616.48,-260.82 620.6,-255.17"/>
</g>
<!-- 20 -->
<g id="node21" class="node">
<title>20</title>
<path fill="none" stroke="#56d86b" stroke-width="2" stroke-dasharray="5,2" d="M707.5,-252C707.5,-252 658.5,-252 658.5,-252 652.5,-252 646.5,-246 646.5,-240 646.5,-240 646.5,-228 646.5,-228 646.5,-222 652.5,-216 658.5,-216 658.5,-216 707.5,-216 707.5,-216 713.5,-216 719.5,-222 719.5,-228 719.5,-228 719.5,-240 719.5,-240 719.5,-246 713.5,-252 707.5,-252"/>
<text text-anchor="middle" x="683" y="-231.5" font-family="sans" font-size="10.00">unroot_tree</text>
</g>
<!-- 18&#45;&gt;20 -->
<g id="edge28" class="edge">
<title>18&#45;&gt;20</title>
<path fill="none" stroke="grey" stroke-width="2" d="M683,-287.7C683,-279.98 683,-270.71 683,-262.11"/>
<polygon fill="grey" stroke="grey" stroke-width="2" points="686.5,-262.1 683,-252.1 679.5,-262.1 686.5,-262.1"/>
</g>
<!-- 19&#45;&gt;18 -->
<g id="edge26" class="edge">
<title>19&#45;&gt;18</title>
<path fill="none" stroke="grey" stroke-width="2" d="M683.75,-359.7C683.64,-351.98 683.51,-342.71 683.39,-334.11"/>
<polygon fill="grey" stroke="grey" stroke-width="2" points="686.89,-334.05 683.24,-324.1 679.89,-334.15 686.89,-334.05"/>
</g>
<!-- 20&#45;&gt;12 -->
<g id="edge18" class="edge">
<title>20&#45;&gt;12</title>
<path fill="none" stroke="grey" stroke-width="2" d="M659.27,-215.7C647.06,-206.8 632.01,-195.82 618.82,-186.2"/>
<polygon fill="grey" stroke="grey" stroke-width="2" points="620.6,-183.17 610.46,-180.1 616.48,-188.82 620.6,-183.17"/>
</g>
</g>
</svg>
