<?xml version="1.0" encoding="UTF-8" standalone="no"?>
<!DOCTYPE svg PUBLIC "-//W3C//DTD SVG 1.1//EN"
 "http://www.w3.org/Graphics/SVG/1.1/DTD/svg11.dtd">
<!-- Generated by graphviz version 2.42.3 (20191010.1750)
 -->
<!-- Title: snakemake_dag Pages: 1 -->
<svg width="884pt" height="697pt"
 viewBox="0.00 0.00 883.50 697.00" xmlns="http://www.w3.org/2000/svg" xmlns:xlink="http://www.w3.org/1999/xlink">
<g id="graph0" class="graph" transform="scale(1 1) rotate(0) translate(4 693)">
<title>snakemake_dag</title>
<polygon fill="white" stroke="transparent" points="-4,4 -4,-693 879.5,-693 879.5,4 -4,4"/>
<!-- 0 -->
<g id="node1" class="node">
<title>0</title>
<path fill="none" stroke="#b6d856" stroke-width="2" d="M441.5,-36C441.5,-36 411.5,-36 411.5,-36 405.5,-36 399.5,-30 399.5,-24 399.5,-24 399.5,-12 399.5,-12 399.5,-6 405.5,0 411.5,0 411.5,0 441.5,0 441.5,0 447.5,0 453.5,-6 453.5,-12 453.5,-12 453.5,-24 453.5,-24 453.5,-30 447.5,-36 441.5,-36"/>
<text text-anchor="middle" x="426.5" y="-15.5" font-family="sans" font-size="10.00">all</text>
</g>
<!-- 1 -->
<g id="node2" class="node">
<title>1</title>
<path fill="none" stroke="#56b9d8" stroke-width="2" d="M230.5,-108C230.5,-108 126.5,-108 126.5,-108 120.5,-108 114.5,-102 114.5,-96 114.5,-96 114.5,-84 114.5,-84 114.5,-78 120.5,-72 126.5,-72 126.5,-72 230.5,-72 230.5,-72 236.5,-72 242.5,-78 242.5,-84 242.5,-84 242.5,-96 242.5,-96 242.5,-102 236.5,-108 230.5,-108"/>
<text text-anchor="middle" x="178.5" y="-93" font-family="sans" font-size="10.00">raxml_anc_score</text>
<text text-anchor="middle" x="178.5" y="-82" font-family="sans" font-size="10.00">pattern: CountNodes_1</text>
</g>
<!-- 1&#45;&gt;0 -->
<g id="edge1" class="edge">
<title>1&#45;&gt;0</title>
<path fill="none" stroke="grey" stroke-width="2" d="M238.85,-71.97C285.94,-58.68 349.82,-40.64 389.58,-29.42"/>
<polygon fill="grey" stroke="grey" stroke-width="2" points="390.72,-32.74 399.39,-26.65 388.82,-26 390.72,-32.74"/>
</g>
<!-- 2 -->
<g id="node3" class="node">
<title>2</title>
<path fill="none" stroke="#59d856" stroke-width="2" d="M179,-180C179,-180 96,-180 96,-180 90,-180 84,-174 84,-168 84,-168 84,-156 84,-156 84,-150 90,-144 96,-144 96,-144 179,-144 179,-144 185,-144 191,-150 191,-156 191,-156 191,-168 191,-168 191,-174 185,-180 179,-180"/>
<text text-anchor="middle" x="137.5" y="-159.5" font-family="sans" font-size="10.00">raxmlng_ancestral</text>
</g>
<!-- 2&#45;&gt;1 -->
<g id="edge5" class="edge">
<title>2&#45;&gt;1</title>
<path fill="none" stroke="grey" stroke-width="2" d="M147.63,-143.7C152.35,-135.64 158.06,-125.89 163.28,-116.98"/>
<polygon fill="grey" stroke="grey" stroke-width="2" points="166.45,-118.5 168.48,-108.1 160.41,-114.96 166.45,-118.5"/>
</g>
<!-- 3 -->
<g id="node4" class="node">
<title>3</title>
<path fill="none" stroke="#d6d856" stroke-width="2" d="M71,-252C71,-252 12,-252 12,-252 6,-252 0,-246 0,-240 0,-240 0,-228 0,-228 0,-222 6,-216 12,-216 12,-216 71,-216 71,-216 77,-216 83,-222 83,-228 83,-228 83,-240 83,-240 83,-246 77,-252 71,-252"/>
<text text-anchor="middle" x="41.5" y="-231.5" font-family="sans" font-size="10.00">remove_gaps</text>
</g>
<!-- 3&#45;&gt;2 -->
<g id="edge6" class="edge">
<title>3&#45;&gt;2</title>
<path fill="none" stroke="grey" stroke-width="2" d="M65.23,-215.7C77.44,-206.8 92.49,-195.82 105.68,-186.2"/>
<polygon fill="grey" stroke="grey" stroke-width="2" points="108.02,-188.82 114.04,-180.1 103.9,-183.17 108.02,-188.82"/>
</g>
<!-- 4 -->
<g id="node5" class="node">
<title>4</title>
<path fill="none" stroke="#569ad8" stroke-width="2" d="M354.5,-689C354.5,-689 22.5,-689 22.5,-689 16.5,-689 10.5,-683 10.5,-677 10.5,-677 10.5,-660 10.5,-660 10.5,-654 16.5,-648 22.5,-648 22.5,-648 354.5,-648 354.5,-648 360.5,-648 366.5,-654 366.5,-660 366.5,-660 366.5,-677 366.5,-677 366.5,-683 360.5,-689 354.5,-689"/>
<text text-anchor="middle" x="188.5" y="-677" font-family="sans" font-size="10.00">query_fasta</text>
<text text-anchor="middle" x="188.5" y="-666" font-family="sans" font-size="10.00">query_id: O95153</text>
<text text-anchor="middle" x="188.5" y="-655" font-family="sans" font-size="10.00">workdir: /cta/users/eakkoyun/WORKFOLDER/PROD/run_011121/PHACT</text>
</g>
<!-- 4&#45;&gt;3 -->
<g id="edge8" class="edge">
<title>4&#45;&gt;3</title>
<path fill="none" stroke="grey" stroke-width="2" d="M145.88,-647.8C102.78,-624.6 42.5,-581.67 42.5,-523 42.5,-523 42.5,-523 42.5,-377 42.5,-337 42.1,-290.65 41.8,-262.08"/>
<polygon fill="grey" stroke="grey" stroke-width="2" points="45.3,-262.01 41.7,-252.05 38.3,-262.09 45.3,-262.01"/>
</g>
<!-- 6 -->
<g id="node7" class="node">
<title>6</title>
<path fill="none" stroke="#d8b456" stroke-width="2" d="M216.5,-540C216.5,-540 160.5,-540 160.5,-540 154.5,-540 148.5,-534 148.5,-528 148.5,-528 148.5,-516 148.5,-516 148.5,-510 154.5,-504 160.5,-504 160.5,-504 216.5,-504 216.5,-504 222.5,-504 228.5,-510 228.5,-516 228.5,-516 228.5,-528 228.5,-528 228.5,-534 222.5,-540 216.5,-540"/>
<text text-anchor="middle" x="188.5" y="-519.5" font-family="sans" font-size="10.00">get_blasthits</text>
</g>
<!-- 4&#45;&gt;6 -->
<g id="edge12" class="edge">
<title>4&#45;&gt;6</title>
<path fill="none" stroke="grey" stroke-width="2" d="M183.63,-647.86C181.27,-637.31 178.68,-624.02 177.5,-612 175.94,-596.08 175.87,-591.92 177.5,-576 178.38,-567.46 180.03,-558.26 181.79,-549.96"/>
<polygon fill="grey" stroke="grey" stroke-width="2" points="185.24,-550.57 184.04,-540.05 178.42,-549.03 185.24,-550.57"/>
</g>
<!-- 7 -->
<g id="node8" class="node">
<title>7</title>
<path fill="none" stroke="#56d8d8" stroke-width="2" d="M236,-612C236,-612 199,-612 199,-612 193,-612 187,-606 187,-600 187,-600 187,-588 187,-588 187,-582 193,-576 199,-576 199,-576 236,-576 236,-576 242,-576 248,-582 248,-588 248,-588 248,-600 248,-600 248,-606 242,-612 236,-612"/>
<text text-anchor="middle" x="217.5" y="-591.5" font-family="sans" font-size="10.00">psiblastp</text>
</g>
<!-- 4&#45;&gt;7 -->
<g id="edge14" class="edge">
<title>4&#45;&gt;7</title>
<path fill="none" stroke="grey" stroke-width="2" d="M196.42,-647.69C199.64,-639.65 203.41,-630.24 206.86,-621.61"/>
<polygon fill="grey" stroke="grey" stroke-width="2" points="210.11,-622.9 210.57,-612.32 203.61,-620.3 210.11,-622.9"/>
</g>
<!-- 23 -->
<g id="node24" class="node">
<title>23</title>
<path fill="none" stroke="#d87556" stroke-width="2" d="M416.5,-252C416.5,-252 314.5,-252 314.5,-252 308.5,-252 302.5,-246 302.5,-240 302.5,-240 302.5,-228 302.5,-228 302.5,-222 308.5,-216 314.5,-216 314.5,-216 416.5,-216 416.5,-216 422.5,-216 428.5,-222 428.5,-228 428.5,-228 428.5,-240 428.5,-240 428.5,-246 422.5,-252 416.5,-252"/>
<text text-anchor="middle" x="365.5" y="-231.5" font-family="sans" font-size="10.00">remove_gaps_fasttree</text>
</g>
<!-- 4&#45;&gt;23 -->
<g id="edge34" class="edge">
<title>4&#45;&gt;23</title>
<path fill="none" stroke="grey" stroke-width="2" d="M241.97,-647.84C291.48,-625.77 357.5,-584.76 357.5,-523 357.5,-523 357.5,-523 357.5,-377 357.5,-336.93 360.71,-290.61 363.07,-262.05"/>
<polygon fill="grey" stroke="grey" stroke-width="2" points="366.56,-262.29 363.92,-252.03 359.59,-261.7 366.56,-262.29"/>
</g>
<!-- 5 -->
<g id="node6" class="node">
<title>5</title>
<path fill="none" stroke="#d89556" stroke-width="2" d="M203.5,-468C203.5,-468 173.5,-468 173.5,-468 167.5,-468 161.5,-462 161.5,-456 161.5,-456 161.5,-444 161.5,-444 161.5,-438 167.5,-432 173.5,-432 173.5,-432 203.5,-432 203.5,-432 209.5,-432 215.5,-438 215.5,-444 215.5,-444 215.5,-456 215.5,-456 215.5,-462 209.5,-468 203.5,-468"/>
<text text-anchor="middle" x="188.5" y="-447.5" font-family="sans" font-size="10.00">msa</text>
</g>
<!-- 5&#45;&gt;3 -->
<g id="edge9" class="edge">
<title>5&#45;&gt;3</title>
<path fill="none" stroke="grey" stroke-width="2" d="M174.49,-431.59C166.41,-421.37 156.16,-408.12 147.5,-396 114.21,-349.41 78.07,-293.17 57.76,-261"/>
<polygon fill="grey" stroke="grey" stroke-width="2" points="60.51,-258.81 52.22,-252.21 54.59,-262.54 60.51,-258.81"/>
</g>
<!-- 9 -->
<g id="node10" class="node">
<title>9</title>
<path fill="none" stroke="#56d87b" stroke-width="2" d="M208,-396C208,-396 169,-396 169,-396 163,-396 157,-390 157,-384 157,-384 157,-372 157,-372 157,-366 163,-360 169,-360 169,-360 208,-360 208,-360 214,-360 220,-366 220,-372 220,-372 220,-384 220,-384 220,-390 214,-396 208,-396"/>
<text text-anchor="middle" x="188.5" y="-375.5" font-family="sans" font-size="10.00">trim_msa</text>
</g>
<!-- 5&#45;&gt;9 -->
<g id="edge16" class="edge">
<title>5&#45;&gt;9</title>
<path fill="none" stroke="grey" stroke-width="2" d="M188.5,-431.7C188.5,-423.98 188.5,-414.71 188.5,-406.11"/>
<polygon fill="grey" stroke="grey" stroke-width="2" points="192,-406.1 188.5,-396.1 185,-406.1 192,-406.1"/>
</g>
<!-- 5&#45;&gt;23 -->
<g id="edge35" class="edge">
<title>5&#45;&gt;23</title>
<path fill="none" stroke="grey" stroke-width="2" d="M202.69,-431.85C233.82,-394.21 308.26,-304.2 344.7,-260.15"/>
<polygon fill="grey" stroke="grey" stroke-width="2" points="347.57,-262.17 351.25,-252.23 342.18,-257.71 347.57,-262.17"/>
</g>
<!-- 6&#45;&gt;5 -->
<g id="edge11" class="edge">
<title>6&#45;&gt;5</title>
<path fill="none" stroke="grey" stroke-width="2" d="M188.5,-503.7C188.5,-495.98 188.5,-486.71 188.5,-478.11"/>
<polygon fill="grey" stroke="grey" stroke-width="2" points="192,-478.1 188.5,-468.1 185,-478.1 192,-478.1"/>
</g>
<!-- 7&#45;&gt;6 -->
<g id="edge13" class="edge">
<title>7&#45;&gt;6</title>
<path fill="none" stroke="grey" stroke-width="2" d="M210.33,-575.7C207.07,-567.81 203.13,-558.3 199.5,-549.55"/>
<polygon fill="grey" stroke="grey" stroke-width="2" points="202.65,-548 195.59,-540.1 196.18,-550.68 202.65,-548"/>
</g>
<!-- 8 -->
<g id="node9" class="node">
<title>8</title>
<path fill="none" stroke="#567bd8" stroke-width="2" d="M152.5,-324C152.5,-324 122.5,-324 122.5,-324 116.5,-324 110.5,-318 110.5,-312 110.5,-312 110.5,-300 110.5,-300 110.5,-294 116.5,-288 122.5,-288 122.5,-288 152.5,-288 152.5,-288 158.5,-288 164.5,-294 164.5,-300 164.5,-300 164.5,-312 164.5,-312 164.5,-318 158.5,-324 152.5,-324"/>
<text text-anchor="middle" x="137.5" y="-303.5" font-family="sans" font-size="10.00">ml_tree</text>
</g>
<!-- 8&#45;&gt;3 -->
<g id="edge10" class="edge">
<title>8&#45;&gt;3</title>
<path fill="none" stroke="grey" stroke-width="2" d="M113.77,-287.7C101.56,-278.8 86.51,-267.82 73.32,-258.2"/>
<polygon fill="grey" stroke="grey" stroke-width="2" points="75.1,-255.17 64.96,-252.1 70.98,-260.82 75.1,-255.17"/>
</g>
<!-- 10 -->
<g id="node11" class="node">
<title>10</title>
<path fill="none" stroke="#d85656" stroke-width="2" d="M162,-252C162,-252 113,-252 113,-252 107,-252 101,-246 101,-240 101,-240 101,-228 101,-228 101,-222 107,-216 113,-216 113,-216 162,-216 162,-216 168,-216 174,-222 174,-228 174,-228 174,-240 174,-240 174,-246 168,-252 162,-252"/>
<text text-anchor="middle" x="137.5" y="-231.5" font-family="sans" font-size="10.00">unroot_tree</text>
</g>
<!-- 8&#45;&gt;10 -->
<g id="edge17" class="edge">
<title>8&#45;&gt;10</title>
<path fill="none" stroke="grey" stroke-width="2" d="M137.5,-287.7C137.5,-279.98 137.5,-270.71 137.5,-262.11"/>
<polygon fill="grey" stroke="grey" stroke-width="2" points="141,-262.1 137.5,-252.1 134,-262.1 141,-262.1"/>
</g>
<!-- 9&#45;&gt;8 -->
<g id="edge15" class="edge">
<title>9&#45;&gt;8</title>
<path fill="none" stroke="grey" stroke-width="2" d="M175.89,-359.7C169.9,-351.47 162.62,-341.48 156.02,-332.42"/>
<polygon fill="grey" stroke="grey" stroke-width="2" points="158.68,-330.13 149.96,-324.1 153.02,-334.25 158.68,-330.13"/>
</g>
<!-- 24 -->
<g id="node25" class="node">
<title>24</title>
<path fill="none" stroke="#56d89a" stroke-width="2" d="M256.5,-324C256.5,-324 220.5,-324 220.5,-324 214.5,-324 208.5,-318 208.5,-312 208.5,-312 208.5,-300 208.5,-300 208.5,-294 214.5,-288 220.5,-288 220.5,-288 256.5,-288 256.5,-288 262.5,-288 268.5,-294 268.5,-300 268.5,-300 268.5,-312 268.5,-312 268.5,-318 262.5,-324 256.5,-324"/>
<text text-anchor="middle" x="238.5" y="-303.5" font-family="sans" font-size="10.00">fast_tree</text>
</g>
<!-- 9&#45;&gt;24 -->
<g id="edge37" class="edge">
<title>9&#45;&gt;24</title>
<path fill="none" stroke="grey" stroke-width="2" d="M200.86,-359.7C206.73,-351.47 213.87,-341.48 220.34,-332.42"/>
<polygon fill="grey" stroke="grey" stroke-width="2" points="223.32,-334.28 226.28,-324.1 217.62,-330.21 223.32,-334.28"/>
</g>
<!-- 10&#45;&gt;2 -->
<g id="edge7" class="edge">
<title>10&#45;&gt;2</title>
<path fill="none" stroke="grey" stroke-width="2" d="M137.5,-215.7C137.5,-207.98 137.5,-198.71 137.5,-190.11"/>
<polygon fill="grey" stroke="grey" stroke-width="2" points="141,-190.1 137.5,-180.1 134,-190.1 141,-190.1"/>
</g>
<!-- 11 -->
<g id="node12" class="node">
<title>11</title>
<path fill="none" stroke="#56b9d8" stroke-width="2" d="M551.5,-108C551.5,-108 447.5,-108 447.5,-108 441.5,-108 435.5,-102 435.5,-96 435.5,-96 435.5,-84 435.5,-84 435.5,-78 441.5,-72 447.5,-72 447.5,-72 551.5,-72 551.5,-72 557.5,-72 563.5,-78 563.5,-84 563.5,-84 563.5,-96 563.5,-96 563.5,-102 557.5,-108 551.5,-108"/>
<text text-anchor="middle" x="499.5" y="-93" font-family="sans" font-size="10.00">raxml_anc_score</text>
<text text-anchor="middle" x="499.5" y="-82" font-family="sans" font-size="10.00">pattern: CountNodes_1</text>
</g>
<!-- 11&#45;&gt;0 -->
<g id="edge2" class="edge">
<title>11&#45;&gt;0</title>
<path fill="none" stroke="grey" stroke-width="2" d="M481.46,-71.7C472.44,-63.05 461.38,-52.45 451.56,-43.03"/>
<polygon fill="grey" stroke="grey" stroke-width="2" points="453.98,-40.5 444.34,-36.1 449.13,-45.55 453.98,-40.5"/>
</g>
<!-- 12 -->
<g id="node13" class="node">
<title>12</title>
<path fill="none" stroke="#59d856" stroke-width="2" d="M541,-180C541,-180 458,-180 458,-180 452,-180 446,-174 446,-168 446,-168 446,-156 446,-156 446,-150 452,-144 458,-144 458,-144 541,-144 541,-144 547,-144 553,-150 553,-156 553,-156 553,-168 553,-168 553,-174 547,-180 541,-180"/>
<text text-anchor="middle" x="499.5" y="-159.5" font-family="sans" font-size="10.00">raxmlng_ancestral</text>
</g>
<!-- 12&#45;&gt;11 -->
<g id="edge18" class="edge">
<title>12&#45;&gt;11</title>
<path fill="none" stroke="grey" stroke-width="2" d="M499.5,-143.7C499.5,-135.98 499.5,-126.71 499.5,-118.11"/>
<polygon fill="grey" stroke="grey" stroke-width="2" points="503,-118.1 499.5,-108.1 496,-118.1 503,-118.1"/>
</g>
<!-- 13 -->
<g id="node14" class="node">
<title>13</title>
<path fill="none" stroke="#d6d856" stroke-width="2" d="M518,-252C518,-252 459,-252 459,-252 453,-252 447,-246 447,-240 447,-240 447,-228 447,-228 447,-222 453,-216 459,-216 459,-216 518,-216 518,-216 524,-216 530,-222 530,-228 530,-228 530,-240 530,-240 530,-246 524,-252 518,-252"/>
<text text-anchor="middle" x="488.5" y="-231.5" font-family="sans" font-size="10.00">remove_gaps</text>
</g>
<!-- 13&#45;&gt;12 -->
<g id="edge19" class="edge">
<title>13&#45;&gt;12</title>
<path fill="none" stroke="grey" stroke-width="2" d="M491.22,-215.7C492.43,-207.98 493.89,-198.71 495.24,-190.11"/>
<polygon fill="grey" stroke="grey" stroke-width="2" points="498.72,-190.53 496.81,-180.1 491.8,-189.44 498.72,-190.53"/>
</g>
<!-- 14 -->
<g id="node15" class="node">
<title>14</title>
<path fill="none" stroke="#569ad8" stroke-width="2" d="M860.5,-689C860.5,-689 528.5,-689 528.5,-689 522.5,-689 516.5,-683 516.5,-677 516.5,-677 516.5,-660 516.5,-660 516.5,-654 522.5,-648 528.5,-648 528.5,-648 860.5,-648 860.5,-648 866.5,-648 872.5,-654 872.5,-660 872.5,-660 872.5,-677 872.5,-677 872.5,-683 866.5,-689 860.5,-689"/>
<text text-anchor="middle" x="694.5" y="-677" font-family="sans" font-size="10.00">query_fasta</text>
<text text-anchor="middle" x="694.5" y="-666" font-family="sans" font-size="10.00">query_id: O60312</text>
<text text-anchor="middle" x="694.5" y="-655" font-family="sans" font-size="10.00">workdir: /cta/users/eakkoyun/WORKFOLDER/PROD/run_011121/PHACT</text>
</g>
<!-- 14&#45;&gt;13 -->
<g id="edge21" class="edge">
<title>14&#45;&gt;13</title>
<path fill="none" stroke="grey" stroke-width="2" d="M619.91,-647.9C561.3,-627.46 489.5,-588.97 489.5,-523 489.5,-523 489.5,-523 489.5,-377 489.5,-337 489.1,-290.65 488.8,-262.08"/>
<polygon fill="grey" stroke="grey" stroke-width="2" points="492.3,-262.01 488.7,-252.05 485.3,-262.09 492.3,-262.01"/>
</g>
<!-- 16 -->
<g id="node17" class="node">
<title>16</title>
<path fill="none" stroke="#d8b456" stroke-width="2" d="M702.5,-540C702.5,-540 646.5,-540 646.5,-540 640.5,-540 634.5,-534 634.5,-528 634.5,-528 634.5,-516 634.5,-516 634.5,-510 640.5,-504 646.5,-504 646.5,-504 702.5,-504 702.5,-504 708.5,-504 714.5,-510 714.5,-516 714.5,-516 714.5,-528 714.5,-528 714.5,-534 708.5,-540 702.5,-540"/>
<text text-anchor="middle" x="674.5" y="-519.5" font-family="sans" font-size="10.00">get_blasthits</text>
</g>
<!-- 14&#45;&gt;16 -->
<g id="edge25" class="edge">
<title>14&#45;&gt;16</title>
<path fill="none" stroke="grey" stroke-width="2" d="M690.12,-647.8C687.89,-637.23 685.28,-623.95 683.5,-612 680.42,-591.39 678.1,-567.94 676.58,-550.29"/>
<polygon fill="grey" stroke="grey" stroke-width="2" points="680.06,-549.8 675.75,-540.12 673.08,-550.38 680.06,-549.8"/>
</g>
<!-- 17 -->
<g id="node18" class="node">
<title>17</title>
<path fill="none" stroke="#56d8d8" stroke-width="2" d="M742,-612C742,-612 705,-612 705,-612 699,-612 693,-606 693,-600 693,-600 693,-588 693,-588 693,-582 699,-576 705,-576 705,-576 742,-576 742,-576 748,-576 754,-582 754,-588 754,-588 754,-600 754,-600 754,-606 748,-612 742,-612"/>
<text text-anchor="middle" x="723.5" y="-591.5" font-family="sans" font-size="10.00">psiblastp</text>
</g>
<!-- 14&#45;&gt;17 -->
<g id="edge27" class="edge">
<title>14&#45;&gt;17</title>
<path fill="none" stroke="grey" stroke-width="2" d="M702.42,-647.69C705.64,-639.65 709.41,-630.24 712.86,-621.61"/>
<polygon fill="grey" stroke="grey" stroke-width="2" points="716.11,-622.9 716.57,-612.32 709.61,-620.3 716.11,-622.9"/>
</g>
<!-- 28 -->
<g id="node29" class="node">
<title>28</title>
<path fill="none" stroke="#d87556" stroke-width="2" d="M863.5,-252C863.5,-252 761.5,-252 761.5,-252 755.5,-252 749.5,-246 749.5,-240 749.5,-240 749.5,-228 749.5,-228 749.5,-222 755.5,-216 761.5,-216 761.5,-216 863.5,-216 863.5,-216 869.5,-216 875.5,-222 875.5,-228 875.5,-228 875.5,-240 875.5,-240 875.5,-246 869.5,-252 863.5,-252"/>
<text text-anchor="middle" x="812.5" y="-231.5" font-family="sans" font-size="10.00">remove_gaps_fasttree</text>
</g>
<!-- 14&#45;&gt;28 -->
<g id="edge42" class="edge">
<title>14&#45;&gt;28</title>
<path fill="none" stroke="grey" stroke-width="2" d="M724.36,-647.98C737.36,-638.35 751.99,-625.83 762.5,-612 788.62,-577.61 801.5,-566.19 801.5,-523 801.5,-523 801.5,-523 801.5,-377 801.5,-336.88 805.92,-290.57 809.16,-262.03"/>
<polygon fill="grey" stroke="grey" stroke-width="2" points="812.64,-262.36 810.33,-252.02 805.69,-261.54 812.64,-262.36"/>
</g>
<!-- 15 -->
<g id="node16" class="node">
<title>15</title>
<path fill="none" stroke="#d89556" stroke-width="2" d="M689.5,-468C689.5,-468 659.5,-468 659.5,-468 653.5,-468 647.5,-462 647.5,-456 647.5,-456 647.5,-444 647.5,-444 647.5,-438 653.5,-432 659.5,-432 659.5,-432 689.5,-432 689.5,-432 695.5,-432 701.5,-438 701.5,-444 701.5,-444 701.5,-456 701.5,-456 701.5,-462 695.5,-468 689.5,-468"/>
<text text-anchor="middle" x="674.5" y="-447.5" font-family="sans" font-size="10.00">msa</text>
</g>
<!-- 15&#45;&gt;13 -->
<g id="edge22" class="edge">
<title>15&#45;&gt;13</title>
<path fill="none" stroke="grey" stroke-width="2" d="M654.96,-431.85C629.13,-408.7 582.88,-365.54 548.5,-324 531.83,-303.86 515.41,-279.06 503.98,-260.76"/>
<polygon fill="grey" stroke="grey" stroke-width="2" points="506.86,-258.77 498.63,-252.1 500.9,-262.45 506.86,-258.77"/>
</g>
<!-- 19 -->
<g id="node20" class="node">
<title>19</title>
<path fill="none" stroke="#56d87b" stroke-width="2" d="M694,-396C694,-396 655,-396 655,-396 649,-396 643,-390 643,-384 643,-384 643,-372 643,-372 643,-366 649,-360 655,-360 655,-360 694,-360 694,-360 700,-360 706,-366 706,-372 706,-372 706,-384 706,-384 706,-390 700,-396 694,-396"/>
<text text-anchor="middle" x="674.5" y="-375.5" font-family="sans" font-size="10.00">trim_msa</text>
</g>
<!-- 15&#45;&gt;19 -->
<g id="edge29" class="edge">
<title>15&#45;&gt;19</title>
<path fill="none" stroke="grey" stroke-width="2" d="M674.5,-431.7C674.5,-423.98 674.5,-414.71 674.5,-406.11"/>
<polygon fill="grey" stroke="grey" stroke-width="2" points="678,-406.1 674.5,-396.1 671,-406.1 678,-406.1"/>
</g>
<!-- 15&#45;&gt;28 -->
<g id="edge43" class="edge">
<title>15&#45;&gt;28</title>
<path fill="none" stroke="grey" stroke-width="2" d="M688.28,-431.65C696.21,-421.46 706.21,-408.21 714.5,-396 745.96,-349.68 779.15,-293.35 797.7,-261.09"/>
<polygon fill="grey" stroke="grey" stroke-width="2" points="800.81,-262.69 802.75,-252.27 794.74,-259.21 800.81,-262.69"/>
</g>
<!-- 16&#45;&gt;15 -->
<g id="edge24" class="edge">
<title>16&#45;&gt;15</title>
<path fill="none" stroke="grey" stroke-width="2" d="M674.5,-503.7C674.5,-495.98 674.5,-486.71 674.5,-478.11"/>
<polygon fill="grey" stroke="grey" stroke-width="2" points="678,-478.1 674.5,-468.1 671,-478.1 678,-478.1"/>
</g>
<!-- 17&#45;&gt;16 -->
<g id="edge26" class="edge">
<title>17&#45;&gt;16</title>
<path fill="none" stroke="grey" stroke-width="2" d="M711.39,-575.7C705.63,-567.47 698.64,-557.48 692.29,-548.42"/>
<polygon fill="grey" stroke="grey" stroke-width="2" points="695.08,-546.29 686.47,-540.1 689.34,-550.3 695.08,-546.29"/>
</g>
<!-- 18 -->
<g id="node19" class="node">
<title>18</title>
<path fill="none" stroke="#567bd8" stroke-width="2" d="M599.5,-324C599.5,-324 569.5,-324 569.5,-324 563.5,-324 557.5,-318 557.5,-312 557.5,-312 557.5,-300 557.5,-300 557.5,-294 563.5,-288 569.5,-288 569.5,-288 599.5,-288 599.5,-288 605.5,-288 611.5,-294 611.5,-300 611.5,-300 611.5,-312 611.5,-312 611.5,-318 605.5,-324 599.5,-324"/>
<text text-anchor="middle" x="584.5" y="-303.5" font-family="sans" font-size="10.00">ml_tree</text>
</g>
<!-- 18&#45;&gt;13 -->
<g id="edge23" class="edge">
<title>18&#45;&gt;13</title>
<path fill="none" stroke="grey" stroke-width="2" d="M560.77,-287.7C548.56,-278.8 533.51,-267.82 520.32,-258.2"/>
<polygon fill="grey" stroke="grey" stroke-width="2" points="522.1,-255.17 511.96,-252.1 517.98,-260.82 522.1,-255.17"/>
</g>
<!-- 20 -->
<g id="node21" class="node">
<title>20</title>
<path fill="none" stroke="#d85656" stroke-width="2" d="M609,-252C609,-252 560,-252 560,-252 554,-252 548,-246 548,-240 548,-240 548,-228 548,-228 548,-222 554,-216 560,-216 560,-216 609,-216 609,-216 615,-216 621,-222 621,-228 621,-228 621,-240 621,-240 621,-246 615,-252 609,-252"/>
<text text-anchor="middle" x="584.5" y="-231.5" font-family="sans" font-size="10.00">unroot_tree</text>
</g>
<!-- 18&#45;&gt;20 -->
<g id="edge30" class="edge">
<title>18&#45;&gt;20</title>
<path fill="none" stroke="grey" stroke-width="2" d="M584.5,-287.7C584.5,-279.98 584.5,-270.71 584.5,-262.11"/>
<polygon fill="grey" stroke="grey" stroke-width="2" points="588,-262.1 584.5,-252.1 581,-262.1 588,-262.1"/>
</g>
<!-- 19&#45;&gt;18 -->
<g id="edge28" class="edge">
<title>19&#45;&gt;18</title>
<path fill="none" stroke="grey" stroke-width="2" d="M652.25,-359.7C640.92,-350.88 626.97,-340.03 614.68,-330.47"/>
<polygon fill="grey" stroke="grey" stroke-width="2" points="616.53,-327.48 606.49,-324.1 612.24,-333.01 616.53,-327.48"/>
</g>
<!-- 29 -->
<g id="node30" class="node">
<title>29</title>
<path fill="none" stroke="#56d89a" stroke-width="2" d="M703.5,-324C703.5,-324 667.5,-324 667.5,-324 661.5,-324 655.5,-318 655.5,-312 655.5,-312 655.5,-300 655.5,-300 655.5,-294 661.5,-288 667.5,-288 667.5,-288 703.5,-288 703.5,-288 709.5,-288 715.5,-294 715.5,-300 715.5,-300 715.5,-312 715.5,-312 715.5,-318 709.5,-324 703.5,-324"/>
<text text-anchor="middle" x="685.5" y="-303.5" font-family="sans" font-size="10.00">fast_tree</text>
</g>
<!-- 19&#45;&gt;29 -->
<g id="edge45" class="edge">
<title>19&#45;&gt;29</title>
<path fill="none" stroke="grey" stroke-width="2" d="M677.22,-359.7C678.43,-351.98 679.89,-342.71 681.24,-334.11"/>
<polygon fill="grey" stroke="grey" stroke-width="2" points="684.72,-334.53 682.81,-324.1 677.8,-333.44 684.72,-334.53"/>
</g>
<!-- 20&#45;&gt;12 -->
<g id="edge20" class="edge">
<title>20&#45;&gt;12</title>
<path fill="none" stroke="grey" stroke-width="2" d="M563.49,-215.7C552.78,-206.88 539.61,-196.03 528,-186.47"/>
<polygon fill="grey" stroke="grey" stroke-width="2" points="530.21,-183.76 520.27,-180.1 525.76,-189.16 530.21,-183.76"/>
</g>
<!-- 21 -->
<g id="node22" class="node">
<title>21</title>
<path fill="none" stroke="#97d856" stroke-width="2" d="M405.5,-108C405.5,-108 301.5,-108 301.5,-108 295.5,-108 289.5,-102 289.5,-96 289.5,-96 289.5,-84 289.5,-84 289.5,-78 295.5,-72 301.5,-72 301.5,-72 405.5,-72 405.5,-72 411.5,-72 417.5,-78 417.5,-84 417.5,-84 417.5,-96 417.5,-96 417.5,-102 411.5,-108 405.5,-108"/>
<text text-anchor="middle" x="353.5" y="-93" font-family="sans" font-size="10.00">iqtree_anc_score</text>
<text text-anchor="middle" x="353.5" y="-82" font-family="sans" font-size="10.00">pattern: CountNodes_1</text>
</g>
<!-- 21&#45;&gt;0 -->
<g id="edge3" class="edge">
<title>21&#45;&gt;0</title>
<path fill="none" stroke="grey" stroke-width="2" d="M371.54,-71.7C380.56,-63.05 391.62,-52.45 401.44,-43.03"/>
<polygon fill="grey" stroke="grey" stroke-width="2" points="403.87,-45.55 408.66,-36.1 399.02,-40.5 403.87,-45.55"/>
</g>
<!-- 22 -->
<g id="node23" class="node">
<title>22</title>
<path fill="none" stroke="#78d856" stroke-width="2" d="M389,-180C389,-180 318,-180 318,-180 312,-180 306,-174 306,-168 306,-168 306,-156 306,-156 306,-150 312,-144 318,-144 318,-144 389,-144 389,-144 395,-144 401,-150 401,-156 401,-156 401,-168 401,-168 401,-174 395,-180 389,-180"/>
<text text-anchor="middle" x="353.5" y="-159.5" font-family="sans" font-size="10.00">iqtree_ancestral</text>
</g>
<!-- 22&#45;&gt;21 -->
<g id="edge31" class="edge">
<title>22&#45;&gt;21</title>
<path fill="none" stroke="grey" stroke-width="2" d="M353.5,-143.7C353.5,-135.98 353.5,-126.71 353.5,-118.11"/>
<polygon fill="grey" stroke="grey" stroke-width="2" points="357,-118.1 353.5,-108.1 350,-118.1 357,-118.1"/>
</g>
<!-- 23&#45;&gt;22 -->
<g id="edge32" class="edge">
<title>23&#45;&gt;22</title>
<path fill="none" stroke="grey" stroke-width="2" d="M362.53,-215.7C361.21,-207.98 359.62,-198.71 358.15,-190.11"/>
<polygon fill="grey" stroke="grey" stroke-width="2" points="361.57,-189.37 356.43,-180.1 354.67,-190.55 361.57,-189.37"/>
</g>
<!-- 24&#45;&gt;23 -->
<g id="edge36" class="edge">
<title>24&#45;&gt;23</title>
<path fill="none" stroke="grey" stroke-width="2" d="M268.6,-288.41C285.62,-279.03 307.11,-267.18 325.53,-257.03"/>
<polygon fill="grey" stroke="grey" stroke-width="2" points="327.22,-260.09 334.29,-252.2 323.85,-253.96 327.22,-260.09"/>
</g>
<!-- 25 -->
<g id="node26" class="node">
<title>25</title>
<path fill="none" stroke="#56d8b9" stroke-width="2" d="M272.5,-252C272.5,-252 204.5,-252 204.5,-252 198.5,-252 192.5,-246 192.5,-240 192.5,-240 192.5,-228 192.5,-228 192.5,-222 198.5,-216 204.5,-216 204.5,-216 272.5,-216 272.5,-216 278.5,-216 284.5,-222 284.5,-228 284.5,-228 284.5,-240 284.5,-240 284.5,-246 278.5,-252 272.5,-252"/>
<text text-anchor="middle" x="238.5" y="-231.5" font-family="sans" font-size="10.00">unroot_fasttree</text>
</g>
<!-- 24&#45;&gt;25 -->
<g id="edge38" class="edge">
<title>24&#45;&gt;25</title>
<path fill="none" stroke="grey" stroke-width="2" d="M238.5,-287.7C238.5,-279.98 238.5,-270.71 238.5,-262.11"/>
<polygon fill="grey" stroke="grey" stroke-width="2" points="242,-262.1 238.5,-252.1 235,-262.1 242,-262.1"/>
</g>
<!-- 25&#45;&gt;22 -->
<g id="edge33" class="edge">
<title>25&#45;&gt;22</title>
<path fill="none" stroke="grey" stroke-width="2" d="M266.63,-215.88C281.67,-206.72 300.37,-195.34 316.56,-185.48"/>
<polygon fill="grey" stroke="grey" stroke-width="2" points="318.54,-188.38 325.26,-180.19 314.9,-182.4 318.54,-188.38"/>
</g>
<!-- 26 -->
<g id="node27" class="node">
<title>26</title>
<path fill="none" stroke="#97d856" stroke-width="2" d="M717.5,-108C717.5,-108 613.5,-108 613.5,-108 607.5,-108 601.5,-102 601.5,-96 601.5,-96 601.5,-84 601.5,-84 601.5,-78 607.5,-72 613.5,-72 613.5,-72 717.5,-72 717.5,-72 723.5,-72 729.5,-78 729.5,-84 729.5,-84 729.5,-96 729.5,-96 729.5,-102 723.5,-108 717.5,-108"/>
<text text-anchor="middle" x="665.5" y="-93" font-family="sans" font-size="10.00">iqtree_anc_score</text>
<text text-anchor="middle" x="665.5" y="-82" font-family="sans" font-size="10.00">pattern: CountNodes_1</text>
</g>
<!-- 26&#45;&gt;0 -->
<g id="edge4" class="edge">
<title>26&#45;&gt;0</title>
<path fill="none" stroke="grey" stroke-width="2" d="M607.34,-71.97C562.44,-58.81 501.69,-41.02 463.29,-29.78"/>
<polygon fill="grey" stroke="grey" stroke-width="2" points="464.14,-26.38 453.56,-26.93 462.17,-33.1 464.14,-26.38"/>
</g>
<!-- 27 -->
<g id="node28" class="node">
<title>27</title>
<path fill="none" stroke="#78d856" stroke-width="2" d="M721,-180C721,-180 650,-180 650,-180 644,-180 638,-174 638,-168 638,-168 638,-156 638,-156 638,-150 644,-144 650,-144 650,-144 721,-144 721,-144 727,-144 733,-150 733,-156 733,-156 733,-168 733,-168 733,-174 727,-180 721,-180"/>
<text text-anchor="middle" x="685.5" y="-159.5" font-family="sans" font-size="10.00">iqtree_ancestral</text>
</g>
<!-- 27&#45;&gt;26 -->
<g id="edge39" class="edge">
<title>27&#45;&gt;26</title>
<path fill="none" stroke="grey" stroke-width="2" d="M680.56,-143.7C678.33,-135.9 675.65,-126.51 673.17,-117.83"/>
<polygon fill="grey" stroke="grey" stroke-width="2" points="676.5,-116.76 670.39,-108.1 669.77,-118.68 676.5,-116.76"/>
</g>
<!-- 28&#45;&gt;27 -->
<g id="edge40" class="edge">
<title>28&#45;&gt;27</title>
<path fill="none" stroke="grey" stroke-width="2" d="M781.43,-215.88C764.67,-206.64 743.79,-195.13 725.8,-185.21"/>
<polygon fill="grey" stroke="grey" stroke-width="2" points="727.13,-181.95 716.69,-180.19 723.76,-188.08 727.13,-181.95"/>
</g>
<!-- 29&#45;&gt;28 -->
<g id="edge44" class="edge">
<title>29&#45;&gt;28</title>
<path fill="none" stroke="grey" stroke-width="2" d="M715.6,-288.41C732.62,-279.03 754.11,-267.18 772.53,-257.03"/>
<polygon fill="grey" stroke="grey" stroke-width="2" points="774.22,-260.09 781.29,-252.2 770.85,-253.96 774.22,-260.09"/>
</g>
<!-- 30 -->
<g id="node31" class="node">
<title>30</title>
<path fill="none" stroke="#56d8b9" stroke-width="2" d="M719.5,-252C719.5,-252 651.5,-252 651.5,-252 645.5,-252 639.5,-246 639.5,-240 639.5,-240 639.5,-228 639.5,-228 639.5,-222 645.5,-216 651.5,-216 651.5,-216 719.5,-216 719.5,-216 725.5,-216 731.5,-222 731.5,-228 731.5,-228 731.5,-240 731.5,-240 731.5,-246 725.5,-252 719.5,-252"/>
<text text-anchor="middle" x="685.5" y="-231.5" font-family="sans" font-size="10.00">unroot_fasttree</text>
</g>
<!-- 29&#45;&gt;30 -->
<g id="edge46" class="edge">
<title>29&#45;&gt;30</title>
<path fill="none" stroke="grey" stroke-width="2" d="M685.5,-287.7C685.5,-279.98 685.5,-270.71 685.5,-262.11"/>
<polygon fill="grey" stroke="grey" stroke-width="2" points="689,-262.1 685.5,-252.1 682,-262.1 689,-262.1"/>
</g>
<!-- 30&#45;&gt;27 -->
<g id="edge41" class="edge">
<title>30&#45;&gt;27</title>
<path fill="none" stroke="grey" stroke-width="2" d="M685.5,-215.7C685.5,-207.98 685.5,-198.71 685.5,-190.11"/>
<polygon fill="grey" stroke="grey" stroke-width="2" points="689,-190.1 685.5,-180.1 682,-190.1 689,-190.1"/>
</g>
</g>
</svg>
