<?xml version="1.0" encoding="UTF-8" standalone="no"?>
<!DOCTYPE svg PUBLIC "-//W3C//DTD SVG 1.1//EN"
 "http://www.w3.org/Graphics/SVG/1.1/DTD/svg11.dtd">
<!-- Generated by graphviz version 2.30.1 (20150306.0020)
 -->
<!-- Title: snakemake_dag Pages: 1 -->
<svg width="730pt" height="770pt"
 viewBox="0.00 0.00 730.00 770.00" xmlns="http://www.w3.org/2000/svg" xmlns:xlink="http://www.w3.org/1999/xlink">
<g id="graph0" class="graph" transform="scale(1 1) rotate(0) translate(4 766)">
<title>snakemake_dag</title>
<polygon fill="white" stroke="white" points="-4,5 -4,-766 727,-766 727,5 -4,5"/>
<!-- 0 -->
<g id="node1" class="node"><title>0</title>
<path fill="none" stroke="#59d856" stroke-width="2" d="M403,-36C403,-36 373,-36 373,-36 367,-36 361,-30 361,-24 361,-24 361,-12 361,-12 361,-6 367,-0 373,-0 373,-0 403,-0 403,-0 409,-0 415,-6 415,-12 415,-12 415,-24 415,-24 415,-30 409,-36 403,-36"/>
<text text-anchor="middle" x="388" y="-15.5" font-family="sans" font-size="10.00">all</text>
</g>
<!-- 1 -->
<g id="node2" class="node"><title>1</title>
<path fill="none" stroke="#80d856" stroke-width="2" d="M367,-108C367,-108 263,-108 263,-108 257,-108 251,-102 251,-96 251,-96 251,-84 251,-84 251,-78 257,-72 263,-72 263,-72 367,-72 367,-72 373,-72 379,-78 379,-84 379,-84 379,-96 379,-96 379,-102 373,-108 367,-108"/>
<text text-anchor="middle" x="315" y="-93" font-family="sans" font-size="10.00">iqtree_anc_score</text>
<text text-anchor="middle" x="315" y="-82" font-family="sans" font-size="10.00">pattern: CountNodes_1</text>
</g>
<!-- 1&#45;&gt;0 -->
<g id="edge1" class="edge"><title>1&#45;&gt;0</title>
<path fill="none" stroke="grey" stroke-width="2" d="M333.045,-71.6966C342.062,-63.0503 353.118,-52.4486 362.943,-43.027"/>
<polygon fill="grey" stroke="grey" points="365.367,-45.5518 370.163,-36.1043 360.522,-40.4993 365.367,-45.5518"/>
</g>
<!-- 2 -->
<g id="node3" class="node"><title>2</title>
<path fill="none" stroke="#56d8d8" stroke-width="2" d="M349.25,-180C349.25,-180 278.75,-180 278.75,-180 272.75,-180 266.75,-174 266.75,-168 266.75,-168 266.75,-156 266.75,-156 266.75,-150 272.75,-144 278.75,-144 278.75,-144 349.25,-144 349.25,-144 355.25,-144 361.25,-150 361.25,-156 361.25,-156 361.25,-168 361.25,-168 361.25,-174 355.25,-180 349.25,-180"/>
<text text-anchor="middle" x="314" y="-159.5" font-family="sans" font-size="10.00">iqtree_ancestral</text>
</g>
<!-- 2&#45;&gt;1 -->
<g id="edge3" class="edge"><title>2&#45;&gt;1</title>
<path fill="none" stroke="grey" stroke-width="2" d="M314.247,-143.697C314.357,-135.983 314.49,-126.712 314.613,-118.112"/>
<polygon fill="grey" stroke="grey" points="318.112,-118.153 314.756,-108.104 311.113,-118.053 318.112,-118.153"/>
</g>
<!-- 3 -->
<g id="node4" class="node"><title>3</title>
<path fill="none" stroke="#afd856" stroke-width="2" d="M238,-252C238,-252 134,-252 134,-252 128,-252 122,-246 122,-240 122,-240 122,-228 122,-228 122,-222 128,-216 134,-216 134,-216 238,-216 238,-216 244,-216 250,-222 250,-228 250,-228 250,-240 250,-240 250,-246 244,-252 238,-252"/>
<text text-anchor="middle" x="186" y="-231.5" font-family="sans" font-size="10.00">msa_masking_fasttree</text>
</g>
<!-- 3&#45;&gt;2 -->
<g id="edge4" class="edge"><title>3&#45;&gt;2</title>
<path fill="none" stroke="grey" stroke-width="2" d="M217.312,-215.876C234.203,-206.639 255.247,-195.131 273.385,-185.212"/>
<polygon fill="grey" stroke="grey" points="275.473,-188.059 282.567,-180.19 272.114,-181.917 275.473,-188.059"/>
</g>
<!-- 4 -->
<g id="node5" class="node"><title>4</title>
<path fill="none" stroke="#56a9d8" stroke-width="2" d="M250,-324C250,-324 148,-324 148,-324 142,-324 136,-318 136,-312 136,-312 136,-300 136,-300 136,-294 142,-288 148,-288 148,-288 250,-288 250,-288 256,-288 262,-294 262,-300 262,-300 262,-312 262,-312 262,-318 256,-324 250,-324"/>
<text text-anchor="middle" x="199" y="-303.5" font-family="sans" font-size="10.00">remove_gaps_fasttree</text>
</g>
<!-- 4&#45;&gt;3 -->
<g id="edge6" class="edge"><title>4&#45;&gt;3</title>
<path fill="none" stroke="grey" stroke-width="2" d="M195.787,-287.697C194.354,-279.983 192.632,-270.712 191.035,-262.112"/>
<polygon fill="grey" stroke="grey" points="194.444,-261.297 189.177,-252.104 187.561,-262.575 194.444,-261.297"/>
</g>
<!-- 11 -->
<g id="node12" class="node"><title>11</title>
<path fill="none" stroke="#d8ac56" stroke-width="2" d="M348,-252C348,-252 280,-252 280,-252 274,-252 268,-246 268,-240 268,-240 268,-228 268,-228 268,-222 274,-216 280,-216 280,-216 348,-216 348,-216 354,-216 360,-222 360,-228 360,-228 360,-240 360,-240 360,-246 354,-252 348,-252"/>
<text text-anchor="middle" x="314" y="-231.5" font-family="sans" font-size="10.00">unroot_fasttree</text>
</g>
<!-- 4&#45;&gt;11 -->
<g id="edge17" class="edge"><title>4&#45;&gt;11</title>
<path fill="none" stroke="grey" stroke-width="2" d="M227.132,-287.876C242.168,-278.724 260.867,-267.342 277.06,-257.485"/>
<polygon fill="grey" stroke="grey" points="279.038,-260.379 285.76,-252.19 275.398,-254.4 279.038,-260.379"/>
</g>
<!-- 5 -->
<g id="node6" class="node"><title>5</title>
<path fill="none" stroke="#d6d856" stroke-width="2" d="M340,-761.5C340,-761.5 12,-761.5 12,-761.5 6,-761.5 0,-755.5 0,-749.5 0,-749.5 0,-732.5 0,-732.5 0,-726.5 6,-720.5 12,-720.5 12,-720.5 340,-720.5 340,-720.5 346,-720.5 352,-726.5 352,-732.5 352,-732.5 352,-749.5 352,-749.5 352,-755.5 346,-761.5 340,-761.5"/>
<text text-anchor="middle" x="176" y="-749.5" font-family="sans" font-size="10.00">query_fasta</text>
<text text-anchor="middle" x="176" y="-738.5" font-family="sans" font-size="10.00">query_id: O95153</text>
<text text-anchor="middle" x="176" y="-727.5" font-family="sans" font-size="10.00">workdir: /truba/home/emrah/WORKFOLDER/PROD/031123_run/PHACT</text>
</g>
<!-- 5&#45;&gt;4 -->
<g id="edge7" class="edge"><title>5&#45;&gt;4</title>
<path fill="none" stroke="grey" stroke-width="2" d="M171.783,-720.406C166.186,-692.641 157,-640.192 157,-595 157,-595 157,-595 157,-449 157,-407.145 173.986,-361.096 186.354,-333.114"/>
<polygon fill="grey" stroke="grey" points="189.542,-334.558 190.501,-324.007 183.172,-331.658 189.542,-334.558"/>
</g>
<!-- 7 -->
<g id="node8" class="node"><title>7</title>
<path fill="none" stroke="#d88556" stroke-width="2" d="M267,-612C267,-612 211,-612 211,-612 205,-612 199,-606 199,-600 199,-600 199,-588 199,-588 199,-582 205,-576 211,-576 211,-576 267,-576 267,-576 273,-576 279,-582 279,-588 279,-588 279,-600 279,-600 279,-606 273,-612 267,-612"/>
<text text-anchor="middle" x="239" y="-591.5" font-family="sans" font-size="10.00">get_blasthits</text>
</g>
<!-- 5&#45;&gt;7 -->
<g id="edge11" class="edge"><title>5&#45;&gt;7</title>
<path fill="none" stroke="grey" stroke-width="2" d="M183.732,-720.499C191.223,-701.795 203.031,-672.815 214,-648 217.885,-639.211 222.307,-629.693 226.34,-621.18"/>
<polygon fill="grey" stroke="grey" points="229.53,-622.62 230.679,-612.088 223.213,-619.605 229.53,-622.62"/>
</g>
<!-- 8 -->
<g id="node9" class="node"><title>8</title>
<path fill="none" stroke="#5682d8" stroke-width="2" d="M272.25,-684C272.25,-684 235.75,-684 235.75,-684 229.75,-684 223.75,-678 223.75,-672 223.75,-672 223.75,-660 223.75,-660 223.75,-654 229.75,-648 235.75,-648 235.75,-648 272.25,-648 272.25,-648 278.25,-648 284.25,-654 284.25,-660 284.25,-660 284.25,-672 284.25,-672 284.25,-678 278.25,-684 272.25,-684"/>
<text text-anchor="middle" x="254" y="-663.5" font-family="sans" font-size="10.00">psiblastp</text>
</g>
<!-- 5&#45;&gt;8 -->
<g id="edge13" class="edge"><title>5&#45;&gt;8</title>
<path fill="none" stroke="grey" stroke-width="2" d="M196.903,-720.437C206.54,-711.418 218.071,-700.625 228.24,-691.108"/>
<polygon fill="grey" stroke="grey" points="230.787,-693.518 235.697,-684.13 226.004,-688.407 230.787,-693.518"/>
</g>
<!-- 6 -->
<g id="node7" class="node"><title>6</title>
<path fill="none" stroke="#d85656" stroke-width="2" d="M254,-540C254,-540 224,-540 224,-540 218,-540 212,-534 212,-528 212,-528 212,-516 212,-516 212,-510 218,-504 224,-504 224,-504 254,-504 254,-504 260,-504 266,-510 266,-516 266,-516 266,-528 266,-528 266,-534 260,-540 254,-540"/>
<text text-anchor="middle" x="239" y="-519.5" font-family="sans" font-size="10.00">msa</text>
</g>
<!-- 6&#45;&gt;4 -->
<g id="edge8" class="edge"><title>6&#45;&gt;4</title>
<path fill="none" stroke="grey" stroke-width="2" d="M230.826,-503.712C226.352,-493.533 221.102,-480.283 218,-468 206.36,-421.908 201.809,-366.551 200.059,-334.22"/>
<polygon fill="grey" stroke="grey" points="203.553,-334.001 199.567,-324.185 196.561,-334.344 203.553,-334.001"/>
</g>
<!-- 10 -->
<g id="node11" class="node"><title>10</title>
<path fill="none" stroke="#56d882" stroke-width="2" d="M278.25,-468C278.25,-468 239.75,-468 239.75,-468 233.75,-468 227.75,-462 227.75,-456 227.75,-456 227.75,-444 227.75,-444 227.75,-438 233.75,-432 239.75,-432 239.75,-432 278.25,-432 278.25,-432 284.25,-432 290.25,-438 290.25,-444 290.25,-444 290.25,-456 290.25,-456 290.25,-462 284.25,-468 278.25,-468"/>
<text text-anchor="middle" x="259" y="-447.5" font-family="sans" font-size="10.00">trim_msa</text>
</g>
<!-- 6&#45;&gt;10 -->
<g id="edge15" class="edge"><title>6&#45;&gt;10</title>
<path fill="none" stroke="grey" stroke-width="2" d="M243.944,-503.697C246.172,-495.898 248.855,-486.509 251.335,-477.829"/>
<polygon fill="grey" stroke="grey" points="254.731,-478.681 254.113,-468.104 248,-476.758 254.731,-478.681"/>
</g>
<!-- 7&#45;&gt;6 -->
<g id="edge10" class="edge"><title>7&#45;&gt;6</title>
<path fill="none" stroke="grey" stroke-width="2" d="M239,-575.697C239,-567.983 239,-558.712 239,-550.112"/>
<polygon fill="grey" stroke="grey" points="242.5,-550.104 239,-540.104 235.5,-550.104 242.5,-550.104"/>
</g>
<!-- 8&#45;&gt;7 -->
<g id="edge12" class="edge"><title>8&#45;&gt;7</title>
<path fill="none" stroke="grey" stroke-width="2" d="M250.292,-647.697C248.639,-639.983 246.653,-630.712 244.81,-622.112"/>
<polygon fill="grey" stroke="grey" points="248.183,-621.149 242.665,-612.104 241.338,-622.616 248.183,-621.149"/>
</g>
<!-- 9 -->
<g id="node10" class="node"><title>9</title>
<path fill="none" stroke="#56d8a9" stroke-width="2" d="M277,-396C277,-396 241,-396 241,-396 235,-396 229,-390 229,-384 229,-384 229,-372 229,-372 229,-366 235,-360 241,-360 241,-360 277,-360 277,-360 283,-360 289,-366 289,-372 289,-372 289,-384 289,-384 289,-390 283,-396 277,-396"/>
<text text-anchor="middle" x="259" y="-375.5" font-family="sans" font-size="10.00">fast_tree</text>
</g>
<!-- 9&#45;&gt;4 -->
<g id="edge9" class="edge"><title>9&#45;&gt;4</title>
<path fill="none" stroke="grey" stroke-width="2" d="M244.169,-359.697C236.975,-351.305 228.203,-341.07 220.31,-331.861"/>
<polygon fill="grey" stroke="grey" points="222.826,-329.419 213.661,-324.104 217.511,-333.975 222.826,-329.419"/>
</g>
<!-- 9&#45;&gt;11 -->
<g id="edge16" class="edge"><title>9&#45;&gt;11</title>
<path fill="none" stroke="grey" stroke-width="2" d="M265.634,-359.871C275.091,-335.457 292.532,-290.426 303.684,-261.635"/>
<polygon fill="grey" stroke="grey" points="306.994,-262.778 307.342,-252.189 300.467,-260.25 306.994,-262.778"/>
</g>
<!-- 10&#45;&gt;9 -->
<g id="edge14" class="edge"><title>10&#45;&gt;9</title>
<path fill="none" stroke="grey" stroke-width="2" d="M259,-431.697C259,-423.983 259,-414.712 259,-406.112"/>
<polygon fill="grey" stroke="grey" points="262.5,-406.104 259,-396.104 255.5,-406.104 262.5,-406.104"/>
</g>
<!-- 11&#45;&gt;2 -->
<g id="edge5" class="edge"><title>11&#45;&gt;2</title>
<path fill="none" stroke="grey" stroke-width="2" d="M314,-215.697C314,-207.983 314,-198.712 314,-190.112"/>
<polygon fill="grey" stroke="grey" points="317.5,-190.104 314,-180.104 310.5,-190.104 317.5,-190.104"/>
</g>
<!-- 12 -->
<g id="node13" class="node"><title>12</title>
<path fill="none" stroke="#80d856" stroke-width="2" d="M513,-108C513,-108 409,-108 409,-108 403,-108 397,-102 397,-96 397,-96 397,-84 397,-84 397,-78 403,-72 409,-72 409,-72 513,-72 513,-72 519,-72 525,-78 525,-84 525,-84 525,-96 525,-96 525,-102 519,-108 513,-108"/>
<text text-anchor="middle" x="461" y="-93" font-family="sans" font-size="10.00">iqtree_anc_score</text>
<text text-anchor="middle" x="461" y="-82" font-family="sans" font-size="10.00">pattern: CountNodes_1</text>
</g>
<!-- 12&#45;&gt;0 -->
<g id="edge2" class="edge"><title>12&#45;&gt;0</title>
<path fill="none" stroke="grey" stroke-width="2" d="M442.955,-71.6966C433.938,-63.0503 422.882,-52.4486 413.057,-43.027"/>
<polygon fill="grey" stroke="grey" points="415.478,-40.4993 405.837,-36.1043 410.633,-45.5518 415.478,-40.4993"/>
</g>
<!-- 13 -->
<g id="node14" class="node"><title>13</title>
<path fill="none" stroke="#56d8d8" stroke-width="2" d="M498.25,-180C498.25,-180 427.75,-180 427.75,-180 421.75,-180 415.75,-174 415.75,-168 415.75,-168 415.75,-156 415.75,-156 415.75,-150 421.75,-144 427.75,-144 427.75,-144 498.25,-144 498.25,-144 504.25,-144 510.25,-150 510.25,-156 510.25,-156 510.25,-168 510.25,-168 510.25,-174 504.25,-180 498.25,-180"/>
<text text-anchor="middle" x="463" y="-159.5" font-family="sans" font-size="10.00">iqtree_ancestral</text>
</g>
<!-- 13&#45;&gt;12 -->
<g id="edge18" class="edge"><title>13&#45;&gt;12</title>
<path fill="none" stroke="grey" stroke-width="2" d="M462.506,-143.697C462.285,-135.983 462.02,-126.712 461.775,-118.112"/>
<polygon fill="grey" stroke="grey" points="465.273,-118 461.489,-108.104 458.276,-118.2 465.273,-118"/>
</g>
<!-- 14 -->
<g id="node15" class="node"><title>14</title>
<path fill="none" stroke="#afd856" stroke-width="2" d="M515,-252C515,-252 411,-252 411,-252 405,-252 399,-246 399,-240 399,-240 399,-228 399,-228 399,-222 405,-216 411,-216 411,-216 515,-216 515,-216 521,-216 527,-222 527,-228 527,-228 527,-240 527,-240 527,-246 521,-252 515,-252"/>
<text text-anchor="middle" x="463" y="-231.5" font-family="sans" font-size="10.00">msa_masking_fasttree</text>
</g>
<!-- 14&#45;&gt;13 -->
<g id="edge19" class="edge"><title>14&#45;&gt;13</title>
<path fill="none" stroke="grey" stroke-width="2" d="M463,-215.697C463,-207.983 463,-198.712 463,-190.112"/>
<polygon fill="grey" stroke="grey" points="466.5,-190.104 463,-180.104 459.5,-190.104 466.5,-190.104"/>
</g>
<!-- 15 -->
<g id="node16" class="node"><title>15</title>
<path fill="none" stroke="#56a9d8" stroke-width="2" d="M558,-324C558,-324 456,-324 456,-324 450,-324 444,-318 444,-312 444,-312 444,-300 444,-300 444,-294 450,-288 456,-288 456,-288 558,-288 558,-288 564,-288 570,-294 570,-300 570,-300 570,-312 570,-312 570,-318 564,-324 558,-324"/>
<text text-anchor="middle" x="507" y="-303.5" font-family="sans" font-size="10.00">remove_gaps_fasttree</text>
</g>
<!-- 15&#45;&gt;14 -->
<g id="edge21" class="edge"><title>15&#45;&gt;14</title>
<path fill="none" stroke="grey" stroke-width="2" d="M496.124,-287.697C491.008,-279.559 484.805,-269.689 479.155,-260.701"/>
<polygon fill="grey" stroke="grey" points="482.036,-258.708 473.751,-252.104 476.11,-262.433 482.036,-258.708"/>
</g>
<!-- 22 -->
<g id="node23" class="node"><title>22</title>
<path fill="none" stroke="#d8ac56" stroke-width="2" d="M625,-252C625,-252 557,-252 557,-252 551,-252 545,-246 545,-240 545,-240 545,-228 545,-228 545,-222 551,-216 557,-216 557,-216 625,-216 625,-216 631,-216 637,-222 637,-228 637,-228 637,-240 637,-240 637,-246 631,-252 625,-252"/>
<text text-anchor="middle" x="591" y="-231.5" font-family="sans" font-size="10.00">unroot_fasttree</text>
</g>
<!-- 15&#45;&gt;22 -->
<g id="edge32" class="edge"><title>15&#45;&gt;22</title>
<path fill="none" stroke="grey" stroke-width="2" d="M527.764,-287.697C538.241,-278.965 551.111,-268.24 562.5,-258.75"/>
<polygon fill="grey" stroke="grey" points="565.033,-261.195 570.475,-252.104 560.552,-255.817 565.033,-261.195"/>
</g>
<!-- 16 -->
<g id="node17" class="node"><title>16</title>
<path fill="none" stroke="#d6d856" stroke-width="2" d="M710,-761.5C710,-761.5 382,-761.5 382,-761.5 376,-761.5 370,-755.5 370,-749.5 370,-749.5 370,-732.5 370,-732.5 370,-726.5 376,-720.5 382,-720.5 382,-720.5 710,-720.5 710,-720.5 716,-720.5 722,-726.5 722,-732.5 722,-732.5 722,-749.5 722,-749.5 722,-755.5 716,-761.5 710,-761.5"/>
<text text-anchor="middle" x="546" y="-749.5" font-family="sans" font-size="10.00">query_fasta</text>
<text text-anchor="middle" x="546" y="-738.5" font-family="sans" font-size="10.00">query_id: O60312</text>
<text text-anchor="middle" x="546" y="-727.5" font-family="sans" font-size="10.00">workdir: /truba/home/emrah/WORKFOLDER/PROD/031123_run/PHACT</text>
</g>
<!-- 16&#45;&gt;15 -->
<g id="edge22" class="edge"><title>16&#45;&gt;15</title>
<path fill="none" stroke="grey" stroke-width="2" d="M535.789,-720.426C522.512,-693.11 501,-641.654 501,-595 501,-595 501,-595 501,-449 501,-408.96 503.411,-362.627 505.176,-334.065"/>
<polygon fill="grey" stroke="grey" points="508.672,-334.242 505.815,-324.039 501.686,-333.797 508.672,-334.242"/>
</g>
<!-- 18 -->
<g id="node19" class="node"><title>18</title>
<path fill="none" stroke="#d88556" stroke-width="2" d="M611,-612C611,-612 555,-612 555,-612 549,-612 543,-606 543,-600 543,-600 543,-588 543,-588 543,-582 549,-576 555,-576 555,-576 611,-576 611,-576 617,-576 623,-582 623,-588 623,-588 623,-600 623,-600 623,-606 617,-612 611,-612"/>
<text text-anchor="middle" x="583" y="-591.5" font-family="sans" font-size="10.00">get_blasthits</text>
</g>
<!-- 16&#45;&gt;18 -->
<g id="edge26" class="edge"><title>16&#45;&gt;18</title>
<path fill="none" stroke="grey" stroke-width="2" d="M548.95,-720.418C551.983,-701.656 557.216,-672.635 564,-648 566.362,-639.424 569.445,-630.248 572.439,-621.982"/>
<polygon fill="grey" stroke="grey" points="575.778,-623.046 575.991,-612.453 569.219,-620.6 575.778,-623.046"/>
</g>
<!-- 19 -->
<g id="node20" class="node"><title>19</title>
<path fill="none" stroke="#5682d8" stroke-width="2" d="M622.25,-684C622.25,-684 585.75,-684 585.75,-684 579.75,-684 573.75,-678 573.75,-672 573.75,-672 573.75,-660 573.75,-660 573.75,-654 579.75,-648 585.75,-648 585.75,-648 622.25,-648 622.25,-648 628.25,-648 634.25,-654 634.25,-660 634.25,-660 634.25,-672 634.25,-672 634.25,-678 628.25,-684 622.25,-684"/>
<text text-anchor="middle" x="604" y="-663.5" font-family="sans" font-size="10.00">psiblastp</text>
</g>
<!-- 16&#45;&gt;19 -->
<g id="edge28" class="edge"><title>16&#45;&gt;19</title>
<path fill="none" stroke="grey" stroke-width="2" d="M561.543,-720.437C568.428,-711.772 576.614,-701.469 583.951,-692.234"/>
<polygon fill="grey" stroke="grey" points="586.91,-694.137 590.39,-684.13 581.429,-689.782 586.91,-694.137"/>
</g>
<!-- 17 -->
<g id="node18" class="node"><title>17</title>
<path fill="none" stroke="#d85656" stroke-width="2" d="M598,-540C598,-540 568,-540 568,-540 562,-540 556,-534 556,-528 556,-528 556,-516 556,-516 556,-510 562,-504 568,-504 568,-504 598,-504 598,-504 604,-504 610,-510 610,-516 610,-516 610,-528 610,-528 610,-534 604,-540 598,-540"/>
<text text-anchor="middle" x="583" y="-519.5" font-family="sans" font-size="10.00">msa</text>
</g>
<!-- 17&#45;&gt;15 -->
<g id="edge23" class="edge"><title>17&#45;&gt;15</title>
<path fill="none" stroke="grey" stroke-width="2" d="M574.066,-503.592C569.005,-493.373 562.755,-480.123 558,-468 539.918,-421.895 523.495,-366.542 514.414,-334.216"/>
<polygon fill="grey" stroke="grey" points="517.675,-332.879 511.623,-324.182 510.931,-334.754 517.675,-332.879"/>
</g>
<!-- 21 -->
<g id="node22" class="node"><title>21</title>
<path fill="none" stroke="#56d882" stroke-width="2" d="M618.25,-468C618.25,-468 579.75,-468 579.75,-468 573.75,-468 567.75,-462 567.75,-456 567.75,-456 567.75,-444 567.75,-444 567.75,-438 573.75,-432 579.75,-432 579.75,-432 618.25,-432 618.25,-432 624.25,-432 630.25,-438 630.25,-444 630.25,-444 630.25,-456 630.25,-456 630.25,-462 624.25,-468 618.25,-468"/>
<text text-anchor="middle" x="599" y="-447.5" font-family="sans" font-size="10.00">trim_msa</text>
</g>
<!-- 17&#45;&gt;21 -->
<g id="edge30" class="edge"><title>17&#45;&gt;21</title>
<path fill="none" stroke="grey" stroke-width="2" d="M586.955,-503.697C588.718,-495.983 590.837,-486.712 592.803,-478.112"/>
<polygon fill="grey" stroke="grey" points="596.274,-478.633 595.09,-468.104 589.45,-477.073 596.274,-478.633"/>
</g>
<!-- 18&#45;&gt;17 -->
<g id="edge25" class="edge"><title>18&#45;&gt;17</title>
<path fill="none" stroke="grey" stroke-width="2" d="M583,-575.697C583,-567.983 583,-558.712 583,-550.112"/>
<polygon fill="grey" stroke="grey" points="586.5,-550.104 583,-540.104 579.5,-550.104 586.5,-550.104"/>
</g>
<!-- 19&#45;&gt;18 -->
<g id="edge27" class="edge"><title>19&#45;&gt;18</title>
<path fill="none" stroke="grey" stroke-width="2" d="M598.809,-647.697C596.469,-639.898 593.653,-630.509 591.049,-621.829"/>
<polygon fill="grey" stroke="grey" points="594.357,-620.677 588.131,-612.104 587.652,-622.688 594.357,-620.677"/>
</g>
<!-- 20 -->
<g id="node21" class="node"><title>20</title>
<path fill="none" stroke="#56d8a9" stroke-width="2" d="M616,-396C616,-396 580,-396 580,-396 574,-396 568,-390 568,-384 568,-384 568,-372 568,-372 568,-366 574,-360 580,-360 580,-360 616,-360 616,-360 622,-360 628,-366 628,-372 628,-372 628,-384 628,-384 628,-390 622,-396 616,-396"/>
<text text-anchor="middle" x="598" y="-375.5" font-family="sans" font-size="10.00">fast_tree</text>
</g>
<!-- 20&#45;&gt;15 -->
<g id="edge24" class="edge"><title>20&#45;&gt;15</title>
<path fill="none" stroke="grey" stroke-width="2" d="M575.506,-359.697C564.045,-350.881 549.942,-340.032 537.516,-330.474"/>
<polygon fill="grey" stroke="grey" points="539.296,-327.427 529.236,-324.104 535.028,-332.976 539.296,-327.427"/>
</g>
<!-- 20&#45;&gt;22 -->
<g id="edge31" class="edge"><title>20&#45;&gt;22</title>
<path fill="none" stroke="grey" stroke-width="2" d="M597.156,-359.871C595.963,-335.67 593.771,-291.211 592.35,-262.393"/>
<polygon fill="grey" stroke="grey" points="595.836,-262.005 591.847,-252.189 588.844,-262.349 595.836,-262.005"/>
</g>
<!-- 21&#45;&gt;20 -->
<g id="edge29" class="edge"><title>21&#45;&gt;20</title>
<path fill="none" stroke="grey" stroke-width="2" d="M598.753,-431.697C598.643,-423.983 598.51,-414.712 598.387,-406.112"/>
<polygon fill="grey" stroke="grey" points="601.887,-406.053 598.244,-396.104 594.888,-406.153 601.887,-406.053"/>
</g>
<!-- 22&#45;&gt;13 -->
<g id="edge20" class="edge"><title>22&#45;&gt;13</title>
<path fill="none" stroke="grey" stroke-width="2" d="M559.688,-215.876C542.797,-206.639 521.753,-195.131 503.615,-185.212"/>
<polygon fill="grey" stroke="grey" points="504.886,-181.917 494.433,-180.19 501.527,-188.059 504.886,-181.917"/>
</g>
</g>
</svg>
