<?xml version="1.0" encoding="UTF-8" standalone="no"?>
<!DOCTYPE svg PUBLIC "-//W3C//DTD SVG 1.1//EN"
 "http://www.w3.org/Graphics/SVG/1.1/DTD/svg11.dtd">
<!-- Generated by graphviz version 2.38.0 (20140413.2041)
 -->
<!-- Title: snakemake_dag Pages: 1 -->
<svg width="614pt" height="697pt"
 viewBox="0.00 0.00 614.00 697.00" xmlns="http://www.w3.org/2000/svg" xmlns:xlink="http://www.w3.org/1999/xlink">
<g id="graph0" class="graph" transform="scale(1 1) rotate(0) translate(4 693)">
<title>snakemake_dag</title>
<polygon fill="white" stroke="none" points="-4,4 -4,-693 610,-693 610,4 -4,4"/>
<!-- 0 -->
<g id="node1" class="node"><title>0</title>
<path fill="none" stroke="#56d86b" stroke-width="2" d="M332,-36C332,-36 302,-36 302,-36 296,-36 290,-30 290,-24 290,-24 290,-12 290,-12 290,-6 296,-0 302,-0 302,-0 332,-0 332,-0 338,-0 344,-6 344,-12 344,-12 344,-24 344,-24 344,-30 338,-36 332,-36"/>
<text text-anchor="middle" x="317" y="-15.5" font-family="sans" font-size="10.00">all</text>
</g>
<!-- 1 -->
<g id="node2" class="node"><title>1</title>
<path fill="none" stroke="#ced856" stroke-width="2" d="M296,-108C296,-108 192,-108 192,-108 186,-108 180,-102 180,-96 180,-96 180,-84 180,-84 180,-78 186,-72 192,-72 192,-72 296,-72 296,-72 302,-72 308,-78 308,-84 308,-84 308,-96 308,-96 308,-102 302,-108 296,-108"/>
<text text-anchor="middle" x="244" y="-93" font-family="sans" font-size="10.00">compute_score</text>
<text text-anchor="middle" x="244" y="-82" font-family="sans" font-size="10.00">pattern: CountNodes_1</text>
</g>
<!-- 1&#45;&gt;0 -->
<g id="edge1" class="edge"><title>1&#45;&gt;0</title>
<path fill="none" stroke="grey" stroke-width="2" d="M262.045,-71.6966C271.062,-63.0503 282.118,-52.4486 291.943,-43.027"/>
<polygon fill="grey" stroke="grey" stroke-width="2" points="294.367,-45.5518 299.163,-36.1043 289.522,-40.4993 294.367,-45.5518"/>
</g>
<!-- 2 -->
<g id="node3" class="node"><title>2</title>
<path fill="none" stroke="#ced856" stroke-width="2" d="M442,-108C442,-108 338,-108 338,-108 332,-108 326,-102 326,-96 326,-96 326,-84 326,-84 326,-78 332,-72 338,-72 338,-72 442,-72 442,-72 448,-72 454,-78 454,-84 454,-84 454,-96 454,-96 454,-102 448,-108 442,-108"/>
<text text-anchor="middle" x="390" y="-93" font-family="sans" font-size="10.00">compute_score</text>
<text text-anchor="middle" x="390" y="-82" font-family="sans" font-size="10.00">pattern: CountNodes_1</text>
</g>
<!-- 2&#45;&gt;0 -->
<g id="edge2" class="edge"><title>2&#45;&gt;0</title>
<path fill="none" stroke="grey" stroke-width="2" d="M371.955,-71.6966C362.938,-63.0503 351.882,-52.4486 342.057,-43.027"/>
<polygon fill="grey" stroke="grey" stroke-width="2" points="344.478,-40.4993 334.837,-36.1043 339.633,-45.5518 344.478,-40.4993"/>
</g>
<!-- 3 -->
<g id="node4" class="node"><title>3</title>
<path fill="none" stroke="#56b1d8" stroke-width="2" d="M268.5,-252C268.5,-252 219.5,-252 219.5,-252 213.5,-252 207.5,-246 207.5,-240 207.5,-240 207.5,-228 207.5,-228 207.5,-222 213.5,-216 219.5,-216 219.5,-216 268.5,-216 268.5,-216 274.5,-216 280.5,-222 280.5,-228 280.5,-228 280.5,-240 280.5,-240 280.5,-246 274.5,-252 268.5,-252"/>
<text text-anchor="middle" x="244" y="-231.5" font-family="sans" font-size="10.00">unroot_tree</text>
</g>
<!-- 3&#45;&gt;1 -->
<g id="edge3" class="edge"><title>3&#45;&gt;1</title>
<path fill="none" stroke="grey" stroke-width="2" d="M244,-215.871C244,-191.67 244,-147.211 244,-118.393"/>
<polygon fill="grey" stroke="grey" stroke-width="2" points="247.5,-118.189 244,-108.189 240.5,-118.189 247.5,-118.189"/>
</g>
<!-- 4 -->
<g id="node5" class="node"><title>4</title>
<path fill="none" stroke="#5682d8" stroke-width="2" d="M204,-180C204,-180 154,-180 154,-180 148,-180 142,-174 142,-168 142,-168 142,-156 142,-156 142,-150 148,-144 154,-144 154,-144 204,-144 204,-144 210,-144 216,-150 216,-156 216,-156 216,-168 216,-168 216,-174 210,-180 204,-180"/>
<text text-anchor="middle" x="179" y="-159.5" font-family="sans" font-size="10.00">run_codeml</text>
</g>
<!-- 3&#45;&gt;4 -->
<g id="edge9" class="edge"><title>3&#45;&gt;4</title>
<path fill="none" stroke="grey" stroke-width="2" d="M227.933,-215.697C220.061,-207.22 210.445,-196.864 201.827,-187.583"/>
<polygon fill="grey" stroke="grey" stroke-width="2" points="204.252,-185.051 194.883,-180.104 199.122,-189.814 204.252,-185.051"/>
</g>
<!-- 4&#45;&gt;1 -->
<g id="edge4" class="edge"><title>4&#45;&gt;1</title>
<path fill="none" stroke="grey" stroke-width="2" d="M195.067,-143.697C202.939,-135.22 212.555,-124.864 221.173,-115.583"/>
<polygon fill="grey" stroke="grey" stroke-width="2" points="223.878,-117.814 228.117,-108.104 218.748,-113.051 223.878,-117.814"/>
</g>
<!-- 5 -->
<g id="node6" class="node"><title>5</title>
<path fill="none" stroke="#56b1d8" stroke-width="2" d="M480.5,-252C480.5,-252 431.5,-252 431.5,-252 425.5,-252 419.5,-246 419.5,-240 419.5,-240 419.5,-228 419.5,-228 419.5,-222 425.5,-216 431.5,-216 431.5,-216 480.5,-216 480.5,-216 486.5,-216 492.5,-222 492.5,-228 492.5,-228 492.5,-240 492.5,-240 492.5,-246 486.5,-252 480.5,-252"/>
<text text-anchor="middle" x="456" y="-231.5" font-family="sans" font-size="10.00">unroot_tree</text>
</g>
<!-- 5&#45;&gt;2 -->
<g id="edge5" class="edge"><title>5&#45;&gt;2</title>
<path fill="none" stroke="grey" stroke-width="2" d="M454.646,-215.76C452.628,-197.187 447.714,-167.18 436,-144 430.919,-133.947 423.509,-124.242 416.114,-115.946"/>
<polygon fill="grey" stroke="grey" stroke-width="2" points="418.494,-113.367 409.105,-108.458 413.383,-118.15 418.494,-113.367"/>
</g>
<!-- 6 -->
<g id="node7" class="node"><title>6</title>
<path fill="none" stroke="#5682d8" stroke-width="2" d="M415,-180C415,-180 365,-180 365,-180 359,-180 353,-174 353,-168 353,-168 353,-156 353,-156 353,-150 359,-144 365,-144 365,-144 415,-144 415,-144 421,-144 427,-150 427,-156 427,-156 427,-168 427,-168 427,-174 421,-180 415,-180"/>
<text text-anchor="middle" x="390" y="-159.5" font-family="sans" font-size="10.00">run_codeml</text>
</g>
<!-- 5&#45;&gt;6 -->
<g id="edge12" class="edge"><title>5&#45;&gt;6</title>
<path fill="none" stroke="grey" stroke-width="2" d="M439.685,-215.697C431.693,-207.22 421.928,-196.864 413.178,-187.583"/>
<polygon fill="grey" stroke="grey" stroke-width="2" points="415.534,-184.979 406.127,-180.104 410.441,-189.781 415.534,-184.979"/>
</g>
<!-- 6&#45;&gt;2 -->
<g id="edge6" class="edge"><title>6&#45;&gt;2</title>
<path fill="none" stroke="grey" stroke-width="2" d="M390,-143.697C390,-135.983 390,-126.712 390,-118.112"/>
<polygon fill="grey" stroke="grey" stroke-width="2" points="393.5,-118.104 390,-108.104 386.5,-118.104 393.5,-118.104"/>
</g>
<!-- 7 -->
<g id="node8" class="node"><title>7</title>
<path fill="none" stroke="#d85656" stroke-width="2" d="M259,-324C259,-324 229,-324 229,-324 223,-324 217,-318 217,-312 217,-312 217,-300 217,-300 217,-294 223,-288 229,-288 229,-288 259,-288 259,-288 265,-288 271,-294 271,-300 271,-300 271,-312 271,-312 271,-318 265,-324 259,-324"/>
<text text-anchor="middle" x="244" y="-303.5" font-family="sans" font-size="10.00">ml_tree</text>
</g>
<!-- 7&#45;&gt;3 -->
<g id="edge7" class="edge"><title>7&#45;&gt;3</title>
<path fill="none" stroke="grey" stroke-width="2" d="M244,-287.697C244,-279.983 244,-270.712 244,-262.112"/>
<polygon fill="grey" stroke="grey" stroke-width="2" points="247.5,-262.104 244,-252.104 240.5,-262.104 247.5,-262.104"/>
</g>
<!-- 8 -->
<g id="node9" class="node"><title>8</title>
<path fill="none" stroke="#9fd856" stroke-width="2" d="M186.5,-324C186.5,-324 127.5,-324 127.5,-324 121.5,-324 115.5,-318 115.5,-312 115.5,-312 115.5,-300 115.5,-300 115.5,-294 121.5,-288 127.5,-288 127.5,-288 186.5,-288 186.5,-288 192.5,-288 198.5,-294 198.5,-300 198.5,-300 198.5,-312 198.5,-312 198.5,-318 192.5,-324 186.5,-324"/>
<text text-anchor="middle" x="157" y="-303.5" font-family="sans" font-size="10.00">remove_gaps</text>
</g>
<!-- 8&#45;&gt;4 -->
<g id="edge8" class="edge"><title>8&#45;&gt;4</title>
<path fill="none" stroke="grey" stroke-width="2" d="M159.654,-287.871C163.403,-263.67 170.291,-219.211 174.756,-190.393"/>
<polygon fill="grey" stroke="grey" stroke-width="2" points="178.264,-190.607 176.337,-180.189 171.347,-189.535 178.264,-190.607"/>
</g>
<!-- 9 -->
<g id="node10" class="node"><title>9</title>
<path fill="none" stroke="#d85656" stroke-width="2" d="M471,-324C471,-324 441,-324 441,-324 435,-324 429,-318 429,-312 429,-312 429,-300 429,-300 429,-294 435,-288 441,-288 441,-288 471,-288 471,-288 477,-288 483,-294 483,-300 483,-300 483,-312 483,-312 483,-318 477,-324 471,-324"/>
<text text-anchor="middle" x="456" y="-303.5" font-family="sans" font-size="10.00">ml_tree</text>
</g>
<!-- 9&#45;&gt;5 -->
<g id="edge10" class="edge"><title>9&#45;&gt;5</title>
<path fill="none" stroke="grey" stroke-width="2" d="M456,-287.697C456,-279.983 456,-270.712 456,-262.112"/>
<polygon fill="grey" stroke="grey" stroke-width="2" points="459.5,-262.104 456,-252.104 452.5,-262.104 459.5,-262.104"/>
</g>
<!-- 10 -->
<g id="node11" class="node"><title>10</title>
<path fill="none" stroke="#9fd856" stroke-width="2" d="M389.5,-252C389.5,-252 330.5,-252 330.5,-252 324.5,-252 318.5,-246 318.5,-240 318.5,-240 318.5,-228 318.5,-228 318.5,-222 324.5,-216 330.5,-216 330.5,-216 389.5,-216 389.5,-216 395.5,-216 401.5,-222 401.5,-228 401.5,-228 401.5,-240 401.5,-240 401.5,-246 395.5,-252 389.5,-252"/>
<text text-anchor="middle" x="360" y="-231.5" font-family="sans" font-size="10.00">remove_gaps</text>
</g>
<!-- 10&#45;&gt;6 -->
<g id="edge11" class="edge"><title>10&#45;&gt;6</title>
<path fill="none" stroke="grey" stroke-width="2" d="M367.416,-215.697C370.794,-207.813 374.87,-198.304 378.623,-189.546"/>
<polygon fill="grey" stroke="grey" stroke-width="2" points="381.947,-190.675 382.67,-180.104 375.513,-187.917 381.947,-190.675"/>
</g>
<!-- 11 -->
<g id="node12" class="node"><title>11</title>
<path fill="none" stroke="#d88556" stroke-width="2" d="M250.5,-396C250.5,-396 211.5,-396 211.5,-396 205.5,-396 199.5,-390 199.5,-384 199.5,-384 199.5,-372 199.5,-372 199.5,-366 205.5,-360 211.5,-360 211.5,-360 250.5,-360 250.5,-360 256.5,-360 262.5,-366 262.5,-372 262.5,-372 262.5,-384 262.5,-384 262.5,-390 256.5,-396 250.5,-396"/>
<text text-anchor="middle" x="231" y="-375.5" font-family="sans" font-size="10.00">trim_msa</text>
</g>
<!-- 11&#45;&gt;7 -->
<g id="edge13" class="edge"><title>11&#45;&gt;7</title>
<path fill="none" stroke="grey" stroke-width="2" d="M234.213,-359.697C235.646,-351.983 237.368,-342.712 238.965,-334.112"/>
<polygon fill="grey" stroke="grey" stroke-width="2" points="242.439,-334.575 240.823,-324.104 235.556,-333.297 242.439,-334.575"/>
</g>
<!-- 12 -->
<g id="node13" class="node"><title>12</title>
<path fill="none" stroke="#d8b456" stroke-width="2" d="M172,-468C172,-468 142,-468 142,-468 136,-468 130,-462 130,-456 130,-456 130,-444 130,-444 130,-438 136,-432 142,-432 142,-432 172,-432 172,-432 178,-432 184,-438 184,-444 184,-444 184,-456 184,-456 184,-462 178,-468 172,-468"/>
<text text-anchor="middle" x="157" y="-447.5" font-family="sans" font-size="10.00">msa</text>
</g>
<!-- 12&#45;&gt;8 -->
<g id="edge14" class="edge"><title>12&#45;&gt;8</title>
<path fill="none" stroke="grey" stroke-width="2" d="M157,-431.871C157,-407.67 157,-363.211 157,-334.393"/>
<polygon fill="grey" stroke="grey" stroke-width="2" points="160.5,-334.189 157,-324.189 153.5,-334.189 160.5,-334.189"/>
</g>
<!-- 12&#45;&gt;11 -->
<g id="edge17" class="edge"><title>12&#45;&gt;11</title>
<path fill="none" stroke="grey" stroke-width="2" d="M175.292,-431.697C184.433,-423.05 195.64,-412.449 205.6,-403.027"/>
<polygon fill="grey" stroke="grey" stroke-width="2" points="208.059,-405.519 212.918,-396.104 203.248,-400.434 208.059,-405.519"/>
</g>
<!-- 13 -->
<g id="node14" class="node"><title>13</title>
<path fill="none" stroke="#d88556" stroke-width="2" d="M475.5,-396C475.5,-396 436.5,-396 436.5,-396 430.5,-396 424.5,-390 424.5,-384 424.5,-384 424.5,-372 424.5,-372 424.5,-366 430.5,-360 436.5,-360 436.5,-360 475.5,-360 475.5,-360 481.5,-360 487.5,-366 487.5,-372 487.5,-372 487.5,-384 487.5,-384 487.5,-390 481.5,-396 475.5,-396"/>
<text text-anchor="middle" x="456" y="-375.5" font-family="sans" font-size="10.00">trim_msa</text>
</g>
<!-- 13&#45;&gt;9 -->
<g id="edge15" class="edge"><title>13&#45;&gt;9</title>
<path fill="none" stroke="grey" stroke-width="2" d="M456,-359.697C456,-351.983 456,-342.712 456,-334.112"/>
<polygon fill="grey" stroke="grey" stroke-width="2" points="459.5,-334.104 456,-324.104 452.5,-334.104 459.5,-334.104"/>
</g>
<!-- 14 -->
<g id="node15" class="node"><title>14</title>
<path fill="none" stroke="#d8b456" stroke-width="2" d="M471,-468C471,-468 441,-468 441,-468 435,-468 429,-462 429,-456 429,-456 429,-444 429,-444 429,-438 435,-432 441,-432 441,-432 471,-432 471,-432 477,-432 483,-438 483,-444 483,-444 483,-456 483,-456 483,-462 477,-468 471,-468"/>
<text text-anchor="middle" x="456" y="-447.5" font-family="sans" font-size="10.00">msa</text>
</g>
<!-- 14&#45;&gt;10 -->
<g id="edge16" class="edge"><title>14&#45;&gt;10</title>
<path fill="none" stroke="grey" stroke-width="2" d="M440.394,-431.864C431.988,-421.948 421.948,-408.907 415,-396 391.124,-351.644 374.65,-294.935 366.313,-262.016"/>
<polygon fill="grey" stroke="grey" stroke-width="2" points="369.687,-261.08 363.893,-252.21 362.891,-262.758 369.687,-261.08"/>
</g>
<!-- 14&#45;&gt;13 -->
<g id="edge19" class="edge"><title>14&#45;&gt;13</title>
<path fill="none" stroke="grey" stroke-width="2" d="M456,-431.697C456,-423.983 456,-414.712 456,-406.112"/>
<polygon fill="grey" stroke="grey" stroke-width="2" points="459.5,-406.104 456,-396.104 452.5,-406.104 459.5,-406.104"/>
</g>
<!-- 15 -->
<g id="node16" class="node"><title>15</title>
<path fill="none" stroke="#70d856" stroke-width="2" d="M186.5,-540C186.5,-540 121.5,-540 121.5,-540 115.5,-540 109.5,-534 109.5,-528 109.5,-528 109.5,-516 109.5,-516 109.5,-510 115.5,-504 121.5,-504 121.5,-504 186.5,-504 186.5,-504 192.5,-504 198.5,-510 198.5,-516 198.5,-516 198.5,-528 198.5,-528 198.5,-534 192.5,-540 186.5,-540"/>
<text text-anchor="middle" x="154" y="-519.5" font-family="sans" font-size="10.00">header_update</text>
</g>
<!-- 15&#45;&gt;12 -->
<g id="edge18" class="edge"><title>15&#45;&gt;12</title>
<path fill="none" stroke="grey" stroke-width="2" d="M154.742,-503.697C155.072,-495.983 155.469,-486.712 155.838,-478.112"/>
<polygon fill="grey" stroke="grey" stroke-width="2" points="159.335,-478.245 156.267,-468.104 152.342,-477.945 159.335,-478.245"/>
</g>
<!-- 16 -->
<g id="node17" class="node"><title>16</title>
<path fill="none" stroke="#70d856" stroke-width="2" d="M490.5,-540C490.5,-540 425.5,-540 425.5,-540 419.5,-540 413.5,-534 413.5,-528 413.5,-528 413.5,-516 413.5,-516 413.5,-510 419.5,-504 425.5,-504 425.5,-504 490.5,-504 490.5,-504 496.5,-504 502.5,-510 502.5,-516 502.5,-516 502.5,-528 502.5,-528 502.5,-534 496.5,-540 490.5,-540"/>
<text text-anchor="middle" x="458" y="-519.5" font-family="sans" font-size="10.00">header_update</text>
</g>
<!-- 16&#45;&gt;14 -->
<g id="edge20" class="edge"><title>16&#45;&gt;14</title>
<path fill="none" stroke="grey" stroke-width="2" d="M457.506,-503.697C457.285,-495.983 457.02,-486.712 456.775,-478.112"/>
<polygon fill="grey" stroke="grey" stroke-width="2" points="460.273,-478 456.489,-468.104 453.276,-478.2 460.273,-478"/>
</g>
<!-- 17 -->
<g id="node18" class="node"><title>17</title>
<path fill="none" stroke="#56d8c9" stroke-width="2" d="M175,-612C175,-612 119,-612 119,-612 113,-612 107,-606 107,-600 107,-600 107,-588 107,-588 107,-582 113,-576 119,-576 119,-576 175,-576 175,-576 181,-576 187,-582 187,-588 187,-588 187,-600 187,-600 187,-606 181,-612 175,-612"/>
<text text-anchor="middle" x="147" y="-591.5" font-family="sans" font-size="10.00">get_blasthits</text>
</g>
<!-- 17&#45;&gt;15 -->
<g id="edge21" class="edge"><title>17&#45;&gt;15</title>
<path fill="none" stroke="grey" stroke-width="2" d="M148.73,-575.697C149.502,-567.983 150.429,-558.712 151.289,-550.112"/>
<polygon fill="grey" stroke="grey" stroke-width="2" points="154.777,-550.403 152.29,-540.104 147.812,-549.706 154.777,-550.403"/>
</g>
<!-- 18 -->
<g id="node19" class="node"><title>18</title>
<path fill="none" stroke="#56d8c9" stroke-width="2" d="M486,-612C486,-612 430,-612 430,-612 424,-612 418,-606 418,-600 418,-600 418,-588 418,-588 418,-582 424,-576 430,-576 430,-576 486,-576 486,-576 492,-576 498,-582 498,-588 498,-588 498,-600 498,-600 498,-606 492,-612 486,-612"/>
<text text-anchor="middle" x="458" y="-591.5" font-family="sans" font-size="10.00">get_blasthits</text>
</g>
<!-- 18&#45;&gt;16 -->
<g id="edge22" class="edge"><title>18&#45;&gt;16</title>
<path fill="none" stroke="grey" stroke-width="2" d="M458,-575.697C458,-567.983 458,-558.712 458,-550.112"/>
<polygon fill="grey" stroke="grey" stroke-width="2" points="461.5,-550.104 458,-540.104 454.5,-550.104 461.5,-550.104"/>
</g>
<!-- 19 -->
<g id="node20" class="node"><title>19</title>
<path fill="none" stroke="#56d89a" stroke-width="2" d="M282,-689C282,-689 12,-689 12,-689 6,-689 0,-683 0,-677 0,-677 0,-660 0,-660 0,-654 6,-648 12,-648 12,-648 282,-648 282,-648 288,-648 294,-654 294,-660 294,-660 294,-677 294,-677 294,-683 288,-689 282,-689"/>
<text text-anchor="middle" x="147" y="-677" font-family="sans" font-size="10.00">blastp</text>
<text text-anchor="middle" x="147" y="-666" font-family="sans" font-size="10.00">query_fasta: P01008</text>
<text text-anchor="middle" x="147" y="-655" font-family="sans" font-size="10.00">workdir: /cta/users/eakkoyun/test/phylogeny&#45;snakemake</text>
</g>
<!-- 19&#45;&gt;17 -->
<g id="edge23" class="edge"><title>19&#45;&gt;17</title>
<path fill="none" stroke="grey" stroke-width="2" d="M147,-647.689C147,-639.907 147,-630.842 147,-622.447"/>
<polygon fill="grey" stroke="grey" stroke-width="2" points="150.5,-622.319 147,-612.319 143.5,-622.32 150.5,-622.319"/>
</g>
<!-- 20 -->
<g id="node21" class="node"><title>20</title>
<path fill="none" stroke="#56d89a" stroke-width="2" d="M594,-689C594,-689 324,-689 324,-689 318,-689 312,-683 312,-677 312,-677 312,-660 312,-660 312,-654 318,-648 324,-648 324,-648 594,-648 594,-648 600,-648 606,-654 606,-660 606,-660 606,-677 606,-677 606,-683 600,-689 594,-689"/>
<text text-anchor="middle" x="459" y="-677" font-family="sans" font-size="10.00">blastp</text>
<text text-anchor="middle" x="459" y="-666" font-family="sans" font-size="10.00">query_fasta: P68871</text>
<text text-anchor="middle" x="459" y="-655" font-family="sans" font-size="10.00">workdir: /cta/users/eakkoyun/test/phylogeny&#45;snakemake</text>
</g>
<!-- 20&#45;&gt;18 -->
<g id="edge24" class="edge"><title>20&#45;&gt;18</title>
<path fill="none" stroke="grey" stroke-width="2" d="M458.727,-647.689C458.619,-639.907 458.494,-630.842 458.379,-622.447"/>
<polygon fill="grey" stroke="grey" stroke-width="2" points="461.877,-622.27 458.239,-612.319 454.877,-622.367 461.877,-622.27"/>
</g>
</g>
</svg>
