<?xml version="1.0" encoding="UTF-8" standalone="no"?>
<!DOCTYPE svg PUBLIC "-//W3C//DTD SVG 1.1//EN"
 "http://www.w3.org/Graphics/SVG/1.1/DTD/svg11.dtd">
<!-- Generated by graphviz version 2.38.0 (20140413.2041)
 -->
<!-- Title: snakemake_dag Pages: 1 -->
<svg width="1127pt" height="697pt"
 viewBox="0.00 0.00 1127.00 697.00" xmlns="http://www.w3.org/2000/svg" xmlns:xlink="http://www.w3.org/1999/xlink">
<g id="graph0" class="graph" transform="scale(1 1) rotate(0) translate(4 693)">
<title>snakemake_dag</title>
<polygon fill="white" stroke="none" points="-4,4 -4,-693 1123,-693 1123,4 -4,4"/>
<!-- 0 -->
<g id="node1" class="node"><title>0</title>
<path fill="none" stroke="#d88556" stroke-width="2" d="M572.5,-36C572.5,-36 542.5,-36 542.5,-36 536.5,-36 530.5,-30 530.5,-24 530.5,-24 530.5,-12 530.5,-12 530.5,-6 536.5,-0 542.5,-0 542.5,-0 572.5,-0 572.5,-0 578.5,-0 584.5,-6 584.5,-12 584.5,-12 584.5,-24 584.5,-24 584.5,-30 578.5,-36 572.5,-36"/>
<text text-anchor="middle" x="557.5" y="-15.5" font-family="sans" font-size="10.00">all</text>
</g>
<!-- 1 -->
<g id="node2" class="node"><title>1</title>
<path fill="none" stroke="#56d8c9" stroke-width="2" d="M412.5,-108C412.5,-108 308.5,-108 308.5,-108 302.5,-108 296.5,-102 296.5,-96 296.5,-96 296.5,-84 296.5,-84 296.5,-78 302.5,-72 308.5,-72 308.5,-72 412.5,-72 412.5,-72 418.5,-72 424.5,-78 424.5,-84 424.5,-84 424.5,-96 424.5,-96 424.5,-102 418.5,-108 412.5,-108"/>
<text text-anchor="middle" x="360.5" y="-93" font-family="sans" font-size="10.00">compute_score</text>
<text text-anchor="middle" x="360.5" y="-82" font-family="sans" font-size="10.00">pattern: CountNodes_1</text>
</g>
<!-- 1&#45;&gt;0 -->
<g id="edge1" class="edge"><title>1&#45;&gt;0</title>
<path fill="none" stroke="grey" stroke-width="2" d="M408.44,-71.9656C442.97,-59.6959 488.874,-43.3847 520.574,-32.121"/>
<polygon fill="grey" stroke="grey" stroke-width="2" points="522.083,-35.2991 530.334,-28.6528 519.739,-28.7031 522.083,-35.2991"/>
</g>
<!-- 2 -->
<g id="node3" class="node"><title>2</title>
<path fill="none" stroke="#56d8c9" stroke-width="2" d="M609.5,-108C609.5,-108 505.5,-108 505.5,-108 499.5,-108 493.5,-102 493.5,-96 493.5,-96 493.5,-84 493.5,-84 493.5,-78 499.5,-72 505.5,-72 505.5,-72 609.5,-72 609.5,-72 615.5,-72 621.5,-78 621.5,-84 621.5,-84 621.5,-96 621.5,-96 621.5,-102 615.5,-108 609.5,-108"/>
<text text-anchor="middle" x="557.5" y="-93" font-family="sans" font-size="10.00">compute_score</text>
<text text-anchor="middle" x="557.5" y="-82" font-family="sans" font-size="10.00">pattern: CountNodes_1</text>
</g>
<!-- 2&#45;&gt;0 -->
<g id="edge2" class="edge"><title>2&#45;&gt;0</title>
<path fill="none" stroke="grey" stroke-width="2" d="M557.5,-71.6966C557.5,-63.9827 557.5,-54.7125 557.5,-46.1124"/>
<polygon fill="grey" stroke="grey" stroke-width="2" points="561,-46.1043 557.5,-36.1043 554,-46.1044 561,-46.1043"/>
</g>
<!-- 3 -->
<g id="node4" class="node"><title>3</title>
<path fill="none" stroke="#56d8c9" stroke-width="2" d="M758.5,-108C758.5,-108 654.5,-108 654.5,-108 648.5,-108 642.5,-102 642.5,-96 642.5,-96 642.5,-84 642.5,-84 642.5,-78 648.5,-72 654.5,-72 654.5,-72 758.5,-72 758.5,-72 764.5,-72 770.5,-78 770.5,-84 770.5,-84 770.5,-96 770.5,-96 770.5,-102 764.5,-108 758.5,-108"/>
<text text-anchor="middle" x="706.5" y="-93" font-family="sans" font-size="10.00">compute_score</text>
<text text-anchor="middle" x="706.5" y="-82" font-family="sans" font-size="10.00">pattern: CountNodes_1</text>
</g>
<!-- 3&#45;&gt;0 -->
<g id="edge3" class="edge"><title>3&#45;&gt;0</title>
<path fill="none" stroke="grey" stroke-width="2" d="M670.05,-71.8761C646.88,-60.9904 616.996,-46.9511 593.845,-36.0749"/>
<polygon fill="grey" stroke="grey" stroke-width="2" points="595.234,-32.8605 584.695,-31.7761 592.258,-39.1961 595.234,-32.8605"/>
</g>
<!-- 4 -->
<g id="node5" class="node"><title>4</title>
<path fill="none" stroke="#70d856" stroke-width="2" d="M385,-252C385,-252 336,-252 336,-252 330,-252 324,-246 324,-240 324,-240 324,-228 324,-228 324,-222 330,-216 336,-216 336,-216 385,-216 385,-216 391,-216 397,-222 397,-228 397,-228 397,-240 397,-240 397,-246 391,-252 385,-252"/>
<text text-anchor="middle" x="360.5" y="-231.5" font-family="sans" font-size="10.00">unroot_tree</text>
</g>
<!-- 4&#45;&gt;1 -->
<g id="edge4" class="edge"><title>4&#45;&gt;1</title>
<path fill="none" stroke="grey" stroke-width="2" d="M360.5,-215.871C360.5,-191.67 360.5,-147.211 360.5,-118.393"/>
<polygon fill="grey" stroke="grey" stroke-width="2" points="364,-118.189 360.5,-108.189 357,-118.189 364,-118.189"/>
</g>
<!-- 5 -->
<g id="node6" class="node"><title>5</title>
<path fill="none" stroke="#56d89a" stroke-width="2" d="M320.5,-180C320.5,-180 270.5,-180 270.5,-180 264.5,-180 258.5,-174 258.5,-168 258.5,-168 258.5,-156 258.5,-156 258.5,-150 264.5,-144 270.5,-144 270.5,-144 320.5,-144 320.5,-144 326.5,-144 332.5,-150 332.5,-156 332.5,-156 332.5,-168 332.5,-168 332.5,-174 326.5,-180 320.5,-180"/>
<text text-anchor="middle" x="295.5" y="-159.5" font-family="sans" font-size="10.00">run_codeml</text>
</g>
<!-- 4&#45;&gt;5 -->
<g id="edge12" class="edge"><title>4&#45;&gt;5</title>
<path fill="none" stroke="grey" stroke-width="2" d="M344.433,-215.697C336.561,-207.22 326.945,-196.864 318.327,-187.583"/>
<polygon fill="grey" stroke="grey" stroke-width="2" points="320.752,-185.051 311.383,-180.104 315.622,-189.814 320.752,-185.051"/>
</g>
<!-- 5&#45;&gt;1 -->
<g id="edge5" class="edge"><title>5&#45;&gt;1</title>
<path fill="none" stroke="grey" stroke-width="2" d="M311.567,-143.697C319.439,-135.22 329.055,-124.864 337.673,-115.583"/>
<polygon fill="grey" stroke="grey" stroke-width="2" points="340.378,-117.814 344.617,-108.104 335.248,-113.051 340.378,-117.814"/>
</g>
<!-- 6 -->
<g id="node7" class="node"><title>6</title>
<path fill="none" stroke="#70d856" stroke-width="2" d="M641,-252C641,-252 592,-252 592,-252 586,-252 580,-246 580,-240 580,-240 580,-228 580,-228 580,-222 586,-216 592,-216 592,-216 641,-216 641,-216 647,-216 653,-222 653,-228 653,-228 653,-240 653,-240 653,-246 647,-252 641,-252"/>
<text text-anchor="middle" x="616.5" y="-231.5" font-family="sans" font-size="10.00">unroot_tree</text>
</g>
<!-- 6&#45;&gt;2 -->
<g id="edge6" class="edge"><title>6&#45;&gt;2</title>
<path fill="none" stroke="grey" stroke-width="2" d="M615.073,-215.91C613.035,-197.466 608.264,-167.57 597.5,-144 593.046,-134.248 586.549,-124.587 580.082,-116.238"/>
<polygon fill="grey" stroke="grey" stroke-width="2" points="582.719,-113.932 573.701,-108.371 577.282,-118.342 582.719,-113.932"/>
</g>
<!-- 7 -->
<g id="node8" class="node"><title>7</title>
<path fill="none" stroke="#56d89a" stroke-width="2" d="M576.5,-180C576.5,-180 526.5,-180 526.5,-180 520.5,-180 514.5,-174 514.5,-168 514.5,-168 514.5,-156 514.5,-156 514.5,-150 520.5,-144 526.5,-144 526.5,-144 576.5,-144 576.5,-144 582.5,-144 588.5,-150 588.5,-156 588.5,-156 588.5,-168 588.5,-168 588.5,-174 582.5,-180 576.5,-180"/>
<text text-anchor="middle" x="551.5" y="-159.5" font-family="sans" font-size="10.00">run_codeml</text>
</g>
<!-- 6&#45;&gt;7 -->
<g id="edge15" class="edge"><title>6&#45;&gt;7</title>
<path fill="none" stroke="grey" stroke-width="2" d="M600.433,-215.697C592.561,-207.22 582.945,-196.864 574.327,-187.583"/>
<polygon fill="grey" stroke="grey" stroke-width="2" points="576.752,-185.051 567.383,-180.104 571.622,-189.814 576.752,-185.051"/>
</g>
<!-- 7&#45;&gt;2 -->
<g id="edge7" class="edge"><title>7&#45;&gt;2</title>
<path fill="none" stroke="grey" stroke-width="2" d="M552.983,-143.697C553.644,-135.983 554.439,-126.712 555.176,-118.112"/>
<polygon fill="grey" stroke="grey" stroke-width="2" points="558.667,-118.367 556.034,-108.104 551.693,-117.769 558.667,-118.367"/>
</g>
<!-- 8 -->
<g id="node9" class="node"><title>8</title>
<path fill="none" stroke="#70d856" stroke-width="2" d="M796,-252C796,-252 747,-252 747,-252 741,-252 735,-246 735,-240 735,-240 735,-228 735,-228 735,-222 741,-216 747,-216 747,-216 796,-216 796,-216 802,-216 808,-222 808,-228 808,-228 808,-240 808,-240 808,-246 802,-252 796,-252"/>
<text text-anchor="middle" x="771.5" y="-231.5" font-family="sans" font-size="10.00">unroot_tree</text>
</g>
<!-- 8&#45;&gt;3 -->
<g id="edge8" class="edge"><title>8&#45;&gt;3</title>
<path fill="none" stroke="grey" stroke-width="2" d="M770.382,-215.763C768.608,-197.192 764.063,-167.188 752.5,-144 747.473,-133.92 740.078,-124.207 732.68,-115.913"/>
<polygon fill="grey" stroke="grey" stroke-width="2" points="735.057,-113.33 725.664,-108.428 729.95,-118.117 735.057,-113.33"/>
</g>
<!-- 9 -->
<g id="node10" class="node"><title>9</title>
<path fill="none" stroke="#56d89a" stroke-width="2" d="M731.5,-180C731.5,-180 681.5,-180 681.5,-180 675.5,-180 669.5,-174 669.5,-168 669.5,-168 669.5,-156 669.5,-156 669.5,-150 675.5,-144 681.5,-144 681.5,-144 731.5,-144 731.5,-144 737.5,-144 743.5,-150 743.5,-156 743.5,-156 743.5,-168 743.5,-168 743.5,-174 737.5,-180 731.5,-180"/>
<text text-anchor="middle" x="706.5" y="-159.5" font-family="sans" font-size="10.00">run_codeml</text>
</g>
<!-- 8&#45;&gt;9 -->
<g id="edge18" class="edge"><title>8&#45;&gt;9</title>
<path fill="none" stroke="grey" stroke-width="2" d="M755.433,-215.697C747.561,-207.22 737.945,-196.864 729.327,-187.583"/>
<polygon fill="grey" stroke="grey" stroke-width="2" points="731.752,-185.051 722.383,-180.104 726.622,-189.814 731.752,-185.051"/>
</g>
<!-- 9&#45;&gt;3 -->
<g id="edge9" class="edge"><title>9&#45;&gt;3</title>
<path fill="none" stroke="grey" stroke-width="2" d="M706.5,-143.697C706.5,-135.983 706.5,-126.712 706.5,-118.112"/>
<polygon fill="grey" stroke="grey" stroke-width="2" points="710,-118.104 706.5,-108.104 703,-118.104 710,-118.104"/>
</g>
<!-- 10 -->
<g id="node11" class="node"><title>10</title>
<path fill="none" stroke="#d8b456" stroke-width="2" d="M375.5,-324C375.5,-324 345.5,-324 345.5,-324 339.5,-324 333.5,-318 333.5,-312 333.5,-312 333.5,-300 333.5,-300 333.5,-294 339.5,-288 345.5,-288 345.5,-288 375.5,-288 375.5,-288 381.5,-288 387.5,-294 387.5,-300 387.5,-300 387.5,-312 387.5,-312 387.5,-318 381.5,-324 375.5,-324"/>
<text text-anchor="middle" x="360.5" y="-303.5" font-family="sans" font-size="10.00">ml_tree</text>
</g>
<!-- 10&#45;&gt;4 -->
<g id="edge10" class="edge"><title>10&#45;&gt;4</title>
<path fill="none" stroke="grey" stroke-width="2" d="M360.5,-287.697C360.5,-279.983 360.5,-270.712 360.5,-262.112"/>
<polygon fill="grey" stroke="grey" stroke-width="2" points="364,-262.104 360.5,-252.104 357,-262.104 364,-262.104"/>
</g>
<!-- 11 -->
<g id="node12" class="node"><title>11</title>
<path fill="none" stroke="#5682d8" stroke-width="2" d="M303,-324C303,-324 244,-324 244,-324 238,-324 232,-318 232,-312 232,-312 232,-300 232,-300 232,-294 238,-288 244,-288 244,-288 303,-288 303,-288 309,-288 315,-294 315,-300 315,-300 315,-312 315,-312 315,-318 309,-324 303,-324"/>
<text text-anchor="middle" x="273.5" y="-303.5" font-family="sans" font-size="10.00">remove_gaps</text>
</g>
<!-- 11&#45;&gt;5 -->
<g id="edge11" class="edge"><title>11&#45;&gt;5</title>
<path fill="none" stroke="grey" stroke-width="2" d="M276.154,-287.871C279.903,-263.67 286.791,-219.211 291.256,-190.393"/>
<polygon fill="grey" stroke="grey" stroke-width="2" points="294.764,-190.607 292.837,-180.189 287.847,-189.535 294.764,-190.607"/>
</g>
<!-- 12 -->
<g id="node13" class="node"><title>12</title>
<path fill="none" stroke="#d8b456" stroke-width="2" d="M620.5,-324C620.5,-324 590.5,-324 590.5,-324 584.5,-324 578.5,-318 578.5,-312 578.5,-312 578.5,-300 578.5,-300 578.5,-294 584.5,-288 590.5,-288 590.5,-288 620.5,-288 620.5,-288 626.5,-288 632.5,-294 632.5,-300 632.5,-300 632.5,-312 632.5,-312 632.5,-318 626.5,-324 620.5,-324"/>
<text text-anchor="middle" x="605.5" y="-303.5" font-family="sans" font-size="10.00">ml_tree</text>
</g>
<!-- 12&#45;&gt;6 -->
<g id="edge13" class="edge"><title>12&#45;&gt;6</title>
<path fill="none" stroke="grey" stroke-width="2" d="M608.219,-287.697C609.431,-279.983 610.888,-270.712 612.239,-262.112"/>
<polygon fill="grey" stroke="grey" stroke-width="2" points="615.717,-262.526 613.812,-252.104 608.802,-261.44 615.717,-262.526"/>
</g>
<!-- 13 -->
<g id="node14" class="node"><title>13</title>
<path fill="none" stroke="#5682d8" stroke-width="2" d="M550,-252C550,-252 491,-252 491,-252 485,-252 479,-246 479,-240 479,-240 479,-228 479,-228 479,-222 485,-216 491,-216 491,-216 550,-216 550,-216 556,-216 562,-222 562,-228 562,-228 562,-240 562,-240 562,-246 556,-252 550,-252"/>
<text text-anchor="middle" x="520.5" y="-231.5" font-family="sans" font-size="10.00">remove_gaps</text>
</g>
<!-- 13&#45;&gt;7 -->
<g id="edge14" class="edge"><title>13&#45;&gt;7</title>
<path fill="none" stroke="grey" stroke-width="2" d="M528.163,-215.697C531.692,-207.728 535.956,-198.1 539.869,-189.264"/>
<polygon fill="grey" stroke="grey" stroke-width="2" points="543.076,-190.665 543.925,-180.104 536.676,-187.831 543.076,-190.665"/>
</g>
<!-- 14 -->
<g id="node15" class="node"><title>14</title>
<path fill="none" stroke="#d8b456" stroke-width="2" d="M799.5,-324C799.5,-324 769.5,-324 769.5,-324 763.5,-324 757.5,-318 757.5,-312 757.5,-312 757.5,-300 757.5,-300 757.5,-294 763.5,-288 769.5,-288 769.5,-288 799.5,-288 799.5,-288 805.5,-288 811.5,-294 811.5,-300 811.5,-300 811.5,-312 811.5,-312 811.5,-318 805.5,-324 799.5,-324"/>
<text text-anchor="middle" x="784.5" y="-303.5" font-family="sans" font-size="10.00">ml_tree</text>
</g>
<!-- 14&#45;&gt;8 -->
<g id="edge16" class="edge"><title>14&#45;&gt;8</title>
<path fill="none" stroke="grey" stroke-width="2" d="M781.287,-287.697C779.854,-279.983 778.132,-270.712 776.535,-262.112"/>
<polygon fill="grey" stroke="grey" stroke-width="2" points="779.944,-261.297 774.677,-252.104 773.061,-262.575 779.944,-261.297"/>
</g>
<!-- 15 -->
<g id="node16" class="node"><title>15</title>
<path fill="none" stroke="#5682d8" stroke-width="2" d="M736,-396C736,-396 677,-396 677,-396 671,-396 665,-390 665,-384 665,-384 665,-372 665,-372 665,-366 671,-360 677,-360 677,-360 736,-360 736,-360 742,-360 748,-366 748,-372 748,-372 748,-384 748,-384 748,-390 742,-396 736,-396"/>
<text text-anchor="middle" x="706.5" y="-375.5" font-family="sans" font-size="10.00">remove_gaps</text>
</g>
<!-- 15&#45;&gt;9 -->
<g id="edge17" class="edge"><title>15&#45;&gt;9</title>
<path fill="none" stroke="grey" stroke-width="2" d="M706.5,-359.849C706.5,-322.832 706.5,-235.181 706.5,-190.386"/>
<polygon fill="grey" stroke="grey" stroke-width="2" points="710,-190.232 706.5,-180.232 703,-190.232 710,-190.232"/>
</g>
<!-- 16 -->
<g id="node17" class="node"><title>16</title>
<path fill="none" stroke="#d85656" stroke-width="2" d="M367,-396C367,-396 328,-396 328,-396 322,-396 316,-390 316,-384 316,-384 316,-372 316,-372 316,-366 322,-360 328,-360 328,-360 367,-360 367,-360 373,-360 379,-366 379,-372 379,-372 379,-384 379,-384 379,-390 373,-396 367,-396"/>
<text text-anchor="middle" x="347.5" y="-375.5" font-family="sans" font-size="10.00">trim_msa</text>
</g>
<!-- 16&#45;&gt;10 -->
<g id="edge19" class="edge"><title>16&#45;&gt;10</title>
<path fill="none" stroke="grey" stroke-width="2" d="M350.713,-359.697C352.146,-351.983 353.868,-342.712 355.465,-334.112"/>
<polygon fill="grey" stroke="grey" stroke-width="2" points="358.939,-334.575 357.323,-324.104 352.056,-333.297 358.939,-334.575"/>
</g>
<!-- 17 -->
<g id="node18" class="node"><title>17</title>
<path fill="none" stroke="#ced856" stroke-width="2" d="M288.5,-468C288.5,-468 258.5,-468 258.5,-468 252.5,-468 246.5,-462 246.5,-456 246.5,-456 246.5,-444 246.5,-444 246.5,-438 252.5,-432 258.5,-432 258.5,-432 288.5,-432 288.5,-432 294.5,-432 300.5,-438 300.5,-444 300.5,-444 300.5,-456 300.5,-456 300.5,-462 294.5,-468 288.5,-468"/>
<text text-anchor="middle" x="273.5" y="-447.5" font-family="sans" font-size="10.00">msa</text>
</g>
<!-- 17&#45;&gt;11 -->
<g id="edge20" class="edge"><title>17&#45;&gt;11</title>
<path fill="none" stroke="grey" stroke-width="2" d="M273.5,-431.871C273.5,-407.67 273.5,-363.211 273.5,-334.393"/>
<polygon fill="grey" stroke="grey" stroke-width="2" points="277,-334.189 273.5,-324.189 270,-334.189 277,-334.189"/>
</g>
<!-- 17&#45;&gt;16 -->
<g id="edge25" class="edge"><title>17&#45;&gt;16</title>
<path fill="none" stroke="grey" stroke-width="2" d="M291.792,-431.697C300.933,-423.05 312.14,-412.449 322.1,-403.027"/>
<polygon fill="grey" stroke="grey" stroke-width="2" points="324.559,-405.519 329.418,-396.104 319.748,-400.434 324.559,-405.519"/>
</g>
<!-- 18 -->
<g id="node19" class="node"><title>18</title>
<path fill="none" stroke="#d85656" stroke-width="2" d="M622,-396C622,-396 583,-396 583,-396 577,-396 571,-390 571,-384 571,-384 571,-372 571,-372 571,-366 577,-360 583,-360 583,-360 622,-360 622,-360 628,-360 634,-366 634,-372 634,-372 634,-384 634,-384 634,-390 628,-396 622,-396"/>
<text text-anchor="middle" x="602.5" y="-375.5" font-family="sans" font-size="10.00">trim_msa</text>
</g>
<!-- 18&#45;&gt;12 -->
<g id="edge21" class="edge"><title>18&#45;&gt;12</title>
<path fill="none" stroke="grey" stroke-width="2" d="M603.242,-359.697C603.572,-351.983 603.969,-342.712 604.338,-334.112"/>
<polygon fill="grey" stroke="grey" stroke-width="2" points="607.835,-334.245 604.767,-324.104 600.842,-333.945 607.835,-334.245"/>
</g>
<!-- 19 -->
<g id="node20" class="node"><title>19</title>
<path fill="none" stroke="#ced856" stroke-width="2" d="M574.5,-468C574.5,-468 544.5,-468 544.5,-468 538.5,-468 532.5,-462 532.5,-456 532.5,-456 532.5,-444 532.5,-444 532.5,-438 538.5,-432 544.5,-432 544.5,-432 574.5,-432 574.5,-432 580.5,-432 586.5,-438 586.5,-444 586.5,-444 586.5,-456 586.5,-456 586.5,-462 580.5,-468 574.5,-468"/>
<text text-anchor="middle" x="559.5" y="-447.5" font-family="sans" font-size="10.00">msa</text>
</g>
<!-- 19&#45;&gt;13 -->
<g id="edge22" class="edge"><title>19&#45;&gt;13</title>
<path fill="none" stroke="grey" stroke-width="2" d="M556.374,-431.849C549.614,-394.753 533.587,-306.81 525.439,-262.103"/>
<polygon fill="grey" stroke="grey" stroke-width="2" points="528.877,-261.443 523.64,-252.232 521.99,-262.698 528.877,-261.443"/>
</g>
<!-- 19&#45;&gt;18 -->
<g id="edge27" class="edge"><title>19&#45;&gt;18</title>
<path fill="none" stroke="grey" stroke-width="2" d="M570.129,-431.697C575.128,-423.559 581.191,-413.689 586.712,-404.701"/>
<polygon fill="grey" stroke="grey" stroke-width="2" points="589.741,-406.457 591.993,-396.104 583.777,-402.793 589.741,-406.457"/>
</g>
<!-- 20 -->
<g id="node21" class="node"><title>20</title>
<path fill="none" stroke="#d85656" stroke-width="2" d="M817,-396C817,-396 778,-396 778,-396 772,-396 766,-390 766,-384 766,-384 766,-372 766,-372 766,-366 772,-360 778,-360 778,-360 817,-360 817,-360 823,-360 829,-366 829,-372 829,-372 829,-384 829,-384 829,-390 823,-396 817,-396"/>
<text text-anchor="middle" x="797.5" y="-375.5" font-family="sans" font-size="10.00">trim_msa</text>
</g>
<!-- 20&#45;&gt;14 -->
<g id="edge23" class="edge"><title>20&#45;&gt;14</title>
<path fill="none" stroke="grey" stroke-width="2" d="M794.287,-359.697C792.854,-351.983 791.132,-342.712 789.535,-334.112"/>
<polygon fill="grey" stroke="grey" stroke-width="2" points="792.944,-333.297 787.677,-324.104 786.061,-334.575 792.944,-333.297"/>
</g>
<!-- 21 -->
<g id="node22" class="node"><title>21</title>
<path fill="none" stroke="#ced856" stroke-width="2" d="M812.5,-468C812.5,-468 782.5,-468 782.5,-468 776.5,-468 770.5,-462 770.5,-456 770.5,-456 770.5,-444 770.5,-444 770.5,-438 776.5,-432 782.5,-432 782.5,-432 812.5,-432 812.5,-432 818.5,-432 824.5,-438 824.5,-444 824.5,-444 824.5,-456 824.5,-456 824.5,-462 818.5,-468 812.5,-468"/>
<text text-anchor="middle" x="797.5" y="-447.5" font-family="sans" font-size="10.00">msa</text>
</g>
<!-- 21&#45;&gt;15 -->
<g id="edge24" class="edge"><title>21&#45;&gt;15</title>
<path fill="none" stroke="grey" stroke-width="2" d="M775.006,-431.697C763.545,-422.881 749.442,-412.032 737.016,-402.474"/>
<polygon fill="grey" stroke="grey" stroke-width="2" points="738.796,-399.427 728.736,-396.104 734.528,-404.976 738.796,-399.427"/>
</g>
<!-- 21&#45;&gt;20 -->
<g id="edge29" class="edge"><title>21&#45;&gt;20</title>
<path fill="none" stroke="grey" stroke-width="2" d="M797.5,-431.697C797.5,-423.983 797.5,-414.712 797.5,-406.112"/>
<polygon fill="grey" stroke="grey" stroke-width="2" points="801,-406.104 797.5,-396.104 794,-406.104 801,-406.104"/>
</g>
<!-- 22 -->
<g id="node23" class="node"><title>22</title>
<path fill="none" stroke="#9fd856" stroke-width="2" d="M261,-540C261,-540 196,-540 196,-540 190,-540 184,-534 184,-528 184,-528 184,-516 184,-516 184,-510 190,-504 196,-504 196,-504 261,-504 261,-504 267,-504 273,-510 273,-516 273,-516 273,-528 273,-528 273,-534 267,-540 261,-540"/>
<text text-anchor="middle" x="228.5" y="-519.5" font-family="sans" font-size="10.00">header_update</text>
</g>
<!-- 22&#45;&gt;17 -->
<g id="edge26" class="edge"><title>22&#45;&gt;17</title>
<path fill="none" stroke="grey" stroke-width="2" d="M239.624,-503.697C244.855,-495.559 251.2,-485.689 256.978,-476.701"/>
<polygon fill="grey" stroke="grey" stroke-width="2" points="260.041,-478.409 262.504,-468.104 254.153,-474.623 260.041,-478.409"/>
</g>
<!-- 23 -->
<g id="node24" class="node"><title>23</title>
<path fill="none" stroke="#9fd856" stroke-width="2" d="M592,-540C592,-540 527,-540 527,-540 521,-540 515,-534 515,-528 515,-528 515,-516 515,-516 515,-510 521,-504 527,-504 527,-504 592,-504 592,-504 598,-504 604,-510 604,-516 604,-516 604,-528 604,-528 604,-534 598,-540 592,-540"/>
<text text-anchor="middle" x="559.5" y="-519.5" font-family="sans" font-size="10.00">header_update</text>
</g>
<!-- 23&#45;&gt;19 -->
<g id="edge28" class="edge"><title>23&#45;&gt;19</title>
<path fill="none" stroke="grey" stroke-width="2" d="M559.5,-503.697C559.5,-495.983 559.5,-486.712 559.5,-478.112"/>
<polygon fill="grey" stroke="grey" stroke-width="2" points="563,-478.104 559.5,-468.104 556,-478.104 563,-478.104"/>
</g>
<!-- 24 -->
<g id="node25" class="node"><title>24</title>
<path fill="none" stroke="#9fd856" stroke-width="2" d="M928,-540C928,-540 863,-540 863,-540 857,-540 851,-534 851,-528 851,-528 851,-516 851,-516 851,-510 857,-504 863,-504 863,-504 928,-504 928,-504 934,-504 940,-510 940,-516 940,-516 940,-528 940,-528 940,-534 934,-540 928,-540"/>
<text text-anchor="middle" x="895.5" y="-519.5" font-family="sans" font-size="10.00">header_update</text>
</g>
<!-- 24&#45;&gt;21 -->
<g id="edge30" class="edge"><title>24&#45;&gt;21</title>
<path fill="none" stroke="grey" stroke-width="2" d="M871.527,-503.876C858.95,-494.893 843.368,-483.763 829.748,-474.034"/>
<polygon fill="grey" stroke="grey" stroke-width="2" points="831.737,-471.154 821.566,-468.19 827.669,-476.85 831.737,-471.154"/>
</g>
<!-- 25 -->
<g id="node26" class="node"><title>25</title>
<path fill="none" stroke="#56d86b" stroke-width="2" d="M232.5,-612C232.5,-612 176.5,-612 176.5,-612 170.5,-612 164.5,-606 164.5,-600 164.5,-600 164.5,-588 164.5,-588 164.5,-582 170.5,-576 176.5,-576 176.5,-576 232.5,-576 232.5,-576 238.5,-576 244.5,-582 244.5,-588 244.5,-588 244.5,-600 244.5,-600 244.5,-606 238.5,-612 232.5,-612"/>
<text text-anchor="middle" x="204.5" y="-591.5" font-family="sans" font-size="10.00">get_blasthits</text>
</g>
<!-- 25&#45;&gt;22 -->
<g id="edge31" class="edge"><title>25&#45;&gt;22</title>
<path fill="none" stroke="grey" stroke-width="2" d="M210.433,-575.697C213.106,-567.898 216.326,-558.509 219.301,-549.829"/>
<polygon fill="grey" stroke="grey" stroke-width="2" points="222.703,-550.699 222.636,-540.104 216.082,-548.429 222.703,-550.699"/>
</g>
<!-- 26 -->
<g id="node27" class="node"><title>26</title>
<path fill="none" stroke="#56d86b" stroke-width="2" d="M587.5,-612C587.5,-612 531.5,-612 531.5,-612 525.5,-612 519.5,-606 519.5,-600 519.5,-600 519.5,-588 519.5,-588 519.5,-582 525.5,-576 531.5,-576 531.5,-576 587.5,-576 587.5,-576 593.5,-576 599.5,-582 599.5,-588 599.5,-588 599.5,-600 599.5,-600 599.5,-606 593.5,-612 587.5,-612"/>
<text text-anchor="middle" x="559.5" y="-591.5" font-family="sans" font-size="10.00">get_blasthits</text>
</g>
<!-- 26&#45;&gt;23 -->
<g id="edge32" class="edge"><title>26&#45;&gt;23</title>
<path fill="none" stroke="grey" stroke-width="2" d="M559.5,-575.697C559.5,-567.983 559.5,-558.712 559.5,-550.112"/>
<polygon fill="grey" stroke="grey" stroke-width="2" points="563,-550.104 559.5,-540.104 556,-550.104 563,-550.104"/>
</g>
<!-- 27 -->
<g id="node28" class="node"><title>27</title>
<path fill="none" stroke="#56d86b" stroke-width="2" d="M944.5,-612C944.5,-612 888.5,-612 888.5,-612 882.5,-612 876.5,-606 876.5,-600 876.5,-600 876.5,-588 876.5,-588 876.5,-582 882.5,-576 888.5,-576 888.5,-576 944.5,-576 944.5,-576 950.5,-576 956.5,-582 956.5,-588 956.5,-588 956.5,-600 956.5,-600 956.5,-606 950.5,-612 944.5,-612"/>
<text text-anchor="middle" x="916.5" y="-591.5" font-family="sans" font-size="10.00">get_blasthits</text>
</g>
<!-- 27&#45;&gt;24 -->
<g id="edge33" class="edge"><title>27&#45;&gt;24</title>
<path fill="none" stroke="grey" stroke-width="2" d="M911.309,-575.697C908.969,-567.898 906.153,-558.509 903.549,-549.829"/>
<polygon fill="grey" stroke="grey" stroke-width="2" points="906.857,-548.677 900.631,-540.104 900.152,-550.688 906.857,-548.677"/>
</g>
<!-- 28 -->
<g id="node29" class="node"><title>28</title>
<path fill="none" stroke="#56b1d8" stroke-width="2" d="M349,-689C349,-689 12,-689 12,-689 6,-689 2.84217e-14,-683 2.84217e-14,-677 2.84217e-14,-677 2.84217e-14,-660 2.84217e-14,-660 2.84217e-14,-654 6,-648 12,-648 12,-648 349,-648 349,-648 355,-648 361,-654 361,-660 361,-660 361,-677 361,-677 361,-683 355,-689 349,-689"/>
<text text-anchor="middle" x="180.5" y="-677" font-family="sans" font-size="10.00">blastp</text>
<text text-anchor="middle" x="180.5" y="-666" font-family="sans" font-size="10.00">msa_name: P01008</text>
<text text-anchor="middle" x="180.5" y="-655" font-family="sans" font-size="10.00">output_folder: /cta/users/eakkoyun/WORKFOLDER/phylogeny&#45;workflow</text>
</g>
<!-- 28&#45;&gt;25 -->
<g id="edge34" class="edge"><title>28&#45;&gt;25</title>
<path fill="none" stroke="grey" stroke-width="2" d="M187.058,-647.689C189.692,-639.734 192.769,-630.438 195.599,-621.888"/>
<polygon fill="grey" stroke="grey" stroke-width="2" points="198.947,-622.913 198.767,-612.319 192.301,-620.713 198.947,-622.913"/>
</g>
<!-- 29 -->
<g id="node30" class="node"><title>29</title>
<path fill="none" stroke="#56b1d8" stroke-width="2" d="M728,-689C728,-689 391,-689 391,-689 385,-689 379,-683 379,-677 379,-677 379,-660 379,-660 379,-654 385,-648 391,-648 391,-648 728,-648 728,-648 734,-648 740,-654 740,-660 740,-660 740,-677 740,-677 740,-683 734,-689 728,-689"/>
<text text-anchor="middle" x="559.5" y="-677" font-family="sans" font-size="10.00">blastp</text>
<text text-anchor="middle" x="559.5" y="-666" font-family="sans" font-size="10.00">msa_name: P68871</text>
<text text-anchor="middle" x="559.5" y="-655" font-family="sans" font-size="10.00">output_folder: /cta/users/eakkoyun/WORKFOLDER/phylogeny&#45;workflow</text>
</g>
<!-- 29&#45;&gt;26 -->
<g id="edge35" class="edge"><title>29&#45;&gt;26</title>
<path fill="none" stroke="grey" stroke-width="2" d="M559.5,-647.689C559.5,-639.907 559.5,-630.842 559.5,-622.447"/>
<polygon fill="grey" stroke="grey" stroke-width="2" points="563,-622.319 559.5,-612.319 556,-622.32 563,-622.319"/>
</g>
<!-- 30 -->
<g id="node31" class="node"><title>30</title>
<path fill="none" stroke="#56b1d8" stroke-width="2" d="M1107,-689C1107,-689 770,-689 770,-689 764,-689 758,-683 758,-677 758,-677 758,-660 758,-660 758,-654 764,-648 770,-648 770,-648 1107,-648 1107,-648 1113,-648 1119,-654 1119,-660 1119,-660 1119,-677 1119,-677 1119,-683 1113,-689 1107,-689"/>
<text text-anchor="middle" x="938.5" y="-677" font-family="sans" font-size="10.00">blastp</text>
<text text-anchor="middle" x="938.5" y="-666" font-family="sans" font-size="10.00">msa_name: P22033</text>
<text text-anchor="middle" x="938.5" y="-655" font-family="sans" font-size="10.00">output_folder: /cta/users/eakkoyun/WORKFOLDER/phylogeny&#45;workflow</text>
</g>
<!-- 30&#45;&gt;27 -->
<g id="edge36" class="edge"><title>30&#45;&gt;27</title>
<path fill="none" stroke="grey" stroke-width="2" d="M932.488,-647.689C930.101,-639.82 927.315,-630.64 924.744,-622.168"/>
<polygon fill="grey" stroke="grey" stroke-width="2" points="928.009,-620.872 921.756,-612.319 921.31,-622.905 928.009,-620.872"/>
</g>
</g>
</svg>
